<svg width="104" height="18" viewBox="0 0 104 18" fill="none" xmlns="http://www.w3.org/2000/svg">
<path d="M15.2444 9.00001C15.2444 12.6083 12.3193 15.5333 8.71107 15.5333C5.10281 15.5333 2.17773 12.6083 2.17773 9.00001C2.17773 5.39175 5.10281 2.46667 8.71107 2.46667C12.3193 2.46667 15.2444 5.39175 15.2444 9.00001Z" stroke="#64748B" stroke-width="1.08889" stroke-linecap="round" stroke-linejoin="round"/>
<path d="M11.1308 5.89463H8.71108M8.71108 5.89463H7.5012C6.56573 5.89463 5.80737 6.58978 5.80737 7.4473C5.80737 8.30482 6.56573 8.99998 7.5012 8.99998H8.71108M8.71108 5.89463V5.00739M8.71108 5.89463V8.99998M8.71108 8.99998H9.92095C10.8564 8.99998 11.6148 9.69513 11.6148 10.5527C11.6148 11.4102 10.8564 12.1053 9.92095 12.1053H8.71108M8.71108 8.99998V12.1053M8.71108 12.1053H5.80737M8.71108 12.1053V12.9926" stroke="#64748B" stroke-width="1.08889" stroke-linecap="round" stroke-linejoin="round"/>
<path d="M23.6246 14H22.1026L25.5224 4.49697H27.179L30.5988 14H29.0768L26.3901 6.22311H26.3159L23.6246 14ZM23.8798 10.2786H28.8169V11.485H23.8798V10.2786ZM33.2471 4.49697V14H31.8597V4.49697H33.2471ZM36.501 4.49697V14H35.1136V4.49697H36.501ZM45.0134 14H41.937V4.49697H45.1108C46.042 4.49697 46.8416 4.68722 47.5098 5.06771C48.178 5.44511 48.6899 5.98801 49.0457 6.6964C49.4045 7.4017 49.5839 8.24776 49.5839 9.23456C49.5839 10.2245 49.403 11.0752 49.041 11.7866C48.6822 12.4981 48.1625 13.0457 47.4819 13.4293C46.8014 13.8098 45.9785 14 45.0134 14ZM43.3708 12.7472H44.9345C45.6584 12.7472 46.26 12.611 46.7395 12.3388C47.219 12.0635 47.5778 11.666 47.816 11.1463C48.0542 10.6235 48.1733 9.98627 48.1733 9.23456C48.1733 8.48905 48.0542 7.85644 47.816 7.33674C47.5809 6.81705 47.2298 6.42263 46.7627 6.1535C46.2956 5.88438 45.7156 5.74981 45.0227 5.74981H43.3708V12.7472ZM51.2556 14V6.87273H52.643V14H51.2556ZM51.9562 5.77301C51.7149 5.77301 51.5077 5.69258 51.3344 5.53172C51.1643 5.36777 51.0792 5.17289 51.0792 4.94706C51.0792 4.71815 51.1643 4.52326 51.3344 4.36241C51.5077 4.19845 51.7149 4.11648 51.9562 4.11648C52.1975 4.11648 52.4032 4.19845 52.5734 4.36241C52.7466 4.52326 52.8332 4.71815 52.8332 4.94706C52.8332 5.17289 52.7466 5.36777 52.5734 5.53172C52.4032 5.69258 52.1975 5.77301 51.9562 5.77301ZM60.6066 6.87273L58.0221 14H56.5372L53.948 6.87273H55.4375L57.2425 12.3574H57.3167L59.1171 6.87273H60.6066ZM61.9105 14V6.87273H63.2979V14H61.9105ZM62.6112 5.77301C62.3699 5.77301 62.1626 5.69258 61.9894 5.53172C61.8192 5.36777 61.7342 5.17289 61.7342 4.94706C61.7342 4.71815 61.8192 4.52326 61.9894 4.36241C62.1626 4.19845 62.3699 4.11648 62.6112 4.11648C62.8525 4.11648 63.0582 4.19845 63.2283 4.36241C63.4015 4.52326 63.4882 4.71815 63.4882 4.94706C63.4882 5.17289 63.4015 5.36777 63.2283 5.53172C63.0582 5.69258 62.8525 5.77301 62.6112 5.77301ZM67.8325 14.1392C67.2571 14.1392 66.7436 13.9923 66.292 13.6984C65.8434 13.4014 65.4908 12.9792 65.234 12.4316C64.9803 11.881 64.8535 11.2205 64.8535 10.4503C64.8535 9.68002 64.9819 9.02112 65.2386 8.47358C65.4985 7.92604 65.8542 7.50688 66.3059 7.2161C66.7575 6.92532 67.2695 6.77992 67.8418 6.77992C68.2841 6.77992 68.6399 6.85417 68.909 7.00265C69.1812 7.14804 69.3916 7.31818 69.5401 7.51307C69.6916 7.70795 69.8092 7.87964 69.8927 8.02813H69.9762V4.49697H71.3636V14H70.0087V12.891H69.8927C69.8092 13.0426 69.6886 13.2158 69.5308 13.4107C69.3761 13.6056 69.1627 13.7757 68.8904 13.9211C68.6182 14.0665 68.2656 14.1392 67.8325 14.1392ZM68.1387 12.956C68.5378 12.956 68.875 12.8508 69.1503 12.6404C69.4287 12.427 69.6391 12.1316 69.7814 11.7542C69.9267 11.3768 69.9994 10.9375 69.9994 10.4364C69.9994 9.94141 69.9283 9.50833 69.786 9.13712C69.6437 8.76591 69.4349 8.47667 69.1596 8.26941C68.8843 8.06215 68.544 7.95852 68.1387 7.95852C67.7211 7.95852 67.3731 8.06679 67.0947 8.28333C66.8163 8.49987 66.6059 8.7953 66.4636 9.1696C66.3244 9.54391 66.2548 9.96616 66.2548 10.4364C66.2548 10.9128 66.326 11.3412 66.4683 11.7217C66.6106 12.1022 66.8209 12.4038 67.0993 12.6265C67.3809 12.8461 67.7273 12.956 68.1387 12.956ZM76.4156 14.1438C75.7134 14.1438 75.1086 13.9938 74.6013 13.6938C74.0971 13.3906 73.7073 12.9652 73.432 12.4177C73.1598 11.8671 73.0237 11.2221 73.0237 10.4828C73.0237 9.75271 73.1598 9.10928 73.432 8.55246C73.7073 7.99564 74.0909 7.56102 74.5828 7.24858C75.0777 6.93614 75.6562 6.77992 76.3182 6.77992C76.7203 6.77992 77.1101 6.84643 77.4875 6.97945C77.8649 7.11247 78.2036 7.32128 78.5037 7.60587C78.8037 7.89047 79.0404 8.26013 79.2136 8.71487C79.3869 9.16651 79.4735 9.71559 79.4735 10.3621V10.854H73.8078V9.81458H78.1139C78.1139 9.44956 78.0397 9.12629 77.8912 8.84479C77.7427 8.5602 77.5339 8.33592 77.2648 8.17197C76.9987 8.00802 76.6863 7.92604 76.3274 7.92604C75.9377 7.92604 75.5974 8.02194 75.3066 8.21373C75.0189 8.40243 74.7962 8.64991 74.6384 8.95616C74.4838 9.25931 74.4064 9.58876 74.4064 9.94451V10.7565C74.4064 11.2329 74.4899 11.6382 74.657 11.9723C74.8271 12.3063 75.0638 12.5616 75.3669 12.7379C75.6701 12.9111 76.0243 12.9977 76.4295 12.9977C76.6925 12.9977 76.9322 12.9606 77.1488 12.8864C77.3653 12.809 77.5524 12.6946 77.7102 12.543C77.868 12.3914 77.9886 12.2043 78.0721 11.9815L79.3853 12.2182C79.2801 12.6049 79.0914 12.9436 78.8192 13.2344C78.5501 13.5221 78.2113 13.7463 77.803 13.9072C77.3978 14.065 76.9353 14.1438 76.4156 14.1438ZM82.4002 9.76818V14H81.0128V6.87273H82.3446V8.03277H82.4327C82.5967 7.65537 82.8534 7.35221 83.203 7.1233C83.5556 6.89438 83.9996 6.77992 84.5347 6.77992C85.0204 6.77992 85.4457 6.88201 85.8108 7.08617C86.1758 7.28725 86.4588 7.58731 86.6599 7.98636C86.861 8.38542 86.9615 8.87882 86.9615 9.46657V14H85.5741V9.63362C85.5741 9.11701 85.4395 8.71332 85.1704 8.42254C84.9013 8.12866 84.5316 7.98172 84.0614 7.98172C83.7397 7.98172 83.4536 8.05133 83.203 8.19053C82.9555 8.32974 82.7591 8.5339 82.6137 8.80303C82.4714 9.06907 82.4002 9.39078 82.4002 9.76818ZM91.4903 14.1392C90.9149 14.1392 90.4014 13.9923 89.9498 13.6984C89.5012 13.4014 89.1486 12.9792 88.8918 12.4316C88.6382 11.881 88.5113 11.2205 88.5113 10.4503C88.5113 9.68002 88.6397 9.02112 88.8965 8.47358C89.1563 7.92604 89.512 7.50688 89.9637 7.2161C90.4153 6.92532 90.9273 6.77992 91.4996 6.77992C91.9419 6.77992 92.2977 6.85417 92.5668 7.00265C92.839 7.14804 93.0494 7.31818 93.1979 7.51307C93.3495 7.70795 93.467 7.87964 93.5505 8.02813H93.634V4.49697H95.0215V14H93.6665V12.891H93.5505C93.467 13.0426 93.3464 13.2158 93.1886 13.4107C93.0339 13.6056 92.8205 13.7757 92.5483 13.9211C92.276 14.0665 91.9234 14.1392 91.4903 14.1392ZM91.7965 12.956C92.1956 12.956 92.5328 12.8508 92.8081 12.6404C93.0865 12.427 93.2969 12.1316 93.4392 11.7542C93.5846 11.3768 93.6572 10.9375 93.6572 10.4364C93.6572 9.94141 93.5861 9.50833 93.4438 9.13712C93.3015 8.76591 93.0927 8.47667 92.8174 8.26941C92.5421 8.06215 92.2018 7.95852 91.7965 7.95852C91.3789 7.95852 91.0309 8.06679 90.7525 8.28333C90.4741 8.49987 90.2638 8.7953 90.1215 9.1696C89.9822 9.54391 89.9126 9.96616 89.9126 10.4364C89.9126 10.9128 89.9838 11.3412 90.1261 11.7217C90.2684 12.1022 90.4787 12.4038 90.7572 12.6265C91.0387 12.8461 91.3851 12.956 91.7965 12.956ZM102.342 8.61278L101.085 8.83551C101.032 8.67465 100.949 8.52153 100.834 8.37614C100.723 8.23075 100.571 8.11165 100.38 8.01884C100.188 7.92604 99.9481 7.87964 99.6604 7.87964C99.2676 7.87964 98.9397 7.9678 98.6767 8.14413C98.4138 8.31736 98.2823 8.54164 98.2823 8.81695C98.2823 9.05515 98.3705 9.24694 98.5468 9.39233C98.7231 9.53772 99.0077 9.65682 99.4006 9.74962L100.533 10.0095C101.189 10.161 101.677 10.3946 101.999 10.7101C102.321 11.0257 102.482 11.4355 102.482 11.9398C102.482 12.3667 102.358 12.7472 102.11 13.0813C101.866 13.4122 101.524 13.6721 101.085 13.8608C100.649 14.0495 100.143 14.1438 99.5676 14.1438C98.7695 14.1438 98.1184 13.9737 97.6141 13.6334C97.1099 13.2901 96.8006 12.8028 96.6861 12.1718L98.0271 11.9676C98.1106 12.3172 98.2823 12.5817 98.5422 12.7611C98.802 12.9374 99.1407 13.0256 99.5584 13.0256C100.013 13.0256 100.377 12.9312 100.649 12.7425C100.921 12.5507 101.057 12.3172 101.057 12.0419C101.057 11.8191 100.974 11.632 100.807 11.4804C100.643 11.3288 100.39 11.2144 100.05 11.137L98.8438 10.8725C98.1787 10.721 97.6868 10.4797 97.3682 10.1487C97.0527 9.81768 96.8949 9.39852 96.8949 8.89119C96.8949 8.47049 97.0125 8.10237 97.2476 7.78684C97.4827 7.47131 97.8075 7.22538 98.222 7.04905C98.6365 6.86963 99.1114 6.77992 99.6465 6.77992C100.417 6.77992 101.023 6.94697 101.465 7.28106C101.908 7.61206 102.2 8.05597 102.342 8.61278Z" fill="#64748B"/>
</svg>
