<svg width="16" height="16" viewBox="0 0 16 16" fill="none" xmlns="http://www.w3.org/2000/svg">
<rect width="15.8667" height="15.8667" rx="7.93333" fill="#F7F7F7"/>
<g clip-path="url(#clip0_40000091_3752)">
<path d="M11.8307 10.2009C11.684 10.5397 11.5105 10.8515 11.3094 11.1382C11.0352 11.529 10.8108 11.7995 10.6378 11.9498C10.3697 12.1964 10.0824 12.3226 9.77476 12.3298C9.55391 12.3298 9.28757 12.267 8.97753 12.1395C8.66648 12.0126 8.38063 11.9498 8.11926 11.9498C7.84514 11.9498 7.55115 12.0126 7.23669 12.1395C6.92175 12.267 6.66803 12.3334 6.47405 12.34C6.17905 12.3526 5.88499 12.2227 5.59148 11.9498C5.40414 11.7864 5.16983 11.5063 4.88912 11.1094C4.58795 10.6857 4.34034 10.1943 4.14636 9.63409C3.93861 9.02899 3.83447 8.44304 3.83447 7.87576C3.83447 7.22595 3.97488 6.6655 4.25613 6.19584C4.47716 5.8186 4.77121 5.52101 5.13924 5.30255C5.50727 5.08409 5.90492 4.97277 6.33316 4.96565C6.56748 4.96565 6.87476 5.03813 7.25662 5.18058C7.63739 5.3235 7.88189 5.39598 7.98908 5.39598C8.06922 5.39598 8.34083 5.31123 8.80127 5.14227C9.23669 4.98558 9.60418 4.9207 9.90524 4.94626C10.721 5.01209 11.3339 5.33368 11.7415 5.91304C11.0119 6.35511 10.651 6.97428 10.6582 7.76857C10.6648 8.38726 10.8892 8.9021 11.3303 9.31089C11.5302 9.50062 11.7535 9.64726 12.0018 9.7514C11.948 9.90762 11.8911 10.0572 11.8307 10.2009V10.2009ZM9.9597 2.83851C9.9597 3.32344 9.78254 3.77621 9.42942 4.19529C9.00327 4.6935 8.48783 4.98139 7.92887 4.93596C7.92175 4.87779 7.91762 4.81656 7.91762 4.75222C7.91762 4.28669 8.12028 3.78848 8.48017 3.38113C8.65984 3.17488 8.88835 3.00339 9.16547 2.86658C9.44198 2.73182 9.70354 2.65729 9.94953 2.64453C9.95671 2.70936 9.9597 2.77419 9.9597 2.83851V2.83851Z" fill="black"/>
</g>
<defs>
<clipPath id="clip0_40000091_3752">
<rect width="10.5778" height="10.5778" fill="white" transform="translate(2.64453 2.64441)"/>
</clipPath>
</defs>
</svg>
