<svg width="107" height="18" viewBox="0 0 107 18" fill="none" xmlns="http://www.w3.org/2000/svg">
<path d="M5.08144 11.1778H2.90366C2.71113 11.1778 2.52649 11.1013 2.39035 10.9652C2.25422 10.829 2.17773 10.6444 2.17773 10.4519V4.64444C2.17773 4.45192 2.25422 4.26727 2.39035 4.13114C2.52649 3.995 2.71113 3.91852 2.90366 3.91852H11.6148C11.8073 3.91852 11.9919 3.995 12.1281 4.13114C12.2642 4.26727 12.3407 4.45192 12.3407 4.64444V6.82222" stroke="#64748B" stroke-width="1.08889" stroke-linecap="round" stroke-linejoin="round"/>
<path d="M5.08154 7.54813C5.08154 7.3556 5.15802 7.17096 5.29416 7.03482C5.4303 6.89869 5.61494 6.8222 5.80747 6.8222H14.5186C14.7111 6.8222 14.8958 6.89869 15.0319 7.03482C15.168 7.17096 15.2445 7.3556 15.2445 7.54813V13.3555C15.2445 13.5481 15.168 13.7327 15.0319 13.8688C14.8958 14.005 14.7111 14.0815 14.5186 14.0815H5.80747C5.61494 14.0815 5.4303 14.005 5.29416 13.8688C5.15802 13.7327 5.08154 13.5481 5.08154 13.3555V7.54813Z" stroke="#64748B" stroke-width="1.08889" stroke-linecap="round" stroke-linejoin="round"/>
<path d="M8.71118 10.4519C8.71118 10.8369 8.86414 11.2062 9.13642 11.4785C9.40869 11.7507 9.77798 11.9037 10.163 11.9037C10.5481 11.9037 10.9174 11.7507 11.1896 11.4785C11.4619 11.2062 11.6149 10.8369 11.6149 10.4519C11.6149 10.0668 11.4619 9.69751 11.1896 9.42524C10.9174 9.15296 10.5481 9 10.163 9C9.77798 9 9.40869 9.15296 9.13642 9.42524C8.86414 9.69751 8.71118 10.0668 8.71118 10.4519Z" stroke="#64748B" stroke-width="1.08889" stroke-linecap="round" stroke-linejoin="round"/>
<path d="M30.7148 7.58731H29.267C29.2114 7.27797 29.1077 7.00575 28.9561 6.77064C28.8046 6.53554 28.619 6.33602 28.3993 6.17206C28.1797 6.00811 27.9338 5.88438 27.6615 5.80085C27.3924 5.71733 27.1063 5.67557 26.8031 5.67557C26.2556 5.67557 25.7653 5.81323 25.3322 6.08854C24.9022 6.36386 24.5619 6.76755 24.3114 7.29962C24.0639 7.83169 23.9401 8.48131 23.9401 9.24849C23.9401 10.0218 24.0639 10.6746 24.3114 11.2066C24.5619 11.7387 24.9037 12.1408 25.3368 12.4131C25.7699 12.6853 26.2571 12.8214 26.7985 12.8214C27.0985 12.8214 27.3831 12.7812 27.6523 12.7008C27.9245 12.6172 28.1704 12.495 28.39 12.3342C28.6097 12.1733 28.7953 11.9769 28.9469 11.7449C29.1015 11.5098 29.2083 11.2407 29.267 10.9375L30.7148 10.9421C30.6374 11.4092 30.4874 11.8392 30.2647 12.2321C30.045 12.6219 29.762 12.9591 29.4155 13.2437C29.0721 13.5252 28.6793 13.7432 28.2369 13.8979C27.7946 14.0526 27.312 14.1299 26.7892 14.1299C25.9663 14.1299 25.2332 13.935 24.5898 13.5453C23.9463 13.1524 23.439 12.5909 23.0678 11.8609C22.6997 11.1308 22.5156 10.26 22.5156 9.24849C22.5156 8.23384 22.7012 7.36304 23.0724 6.63608C23.4436 5.90603 23.951 5.34612 24.5944 4.95635C25.2378 4.56348 25.9694 4.36705 26.7892 4.36705C27.2934 4.36705 27.7636 4.43974 28.1998 4.58513C28.6391 4.72743 29.0335 4.93778 29.383 5.21619C29.7326 5.49151 30.0218 5.82869 30.2507 6.22775C30.4797 6.62371 30.6343 7.07689 30.7148 7.58731ZM34.3932 14.1578C33.9416 14.1578 33.5333 14.0742 33.1682 13.9072C32.8032 13.7371 32.514 13.4911 32.3005 13.1694C32.0902 12.8477 31.985 12.4533 31.985 11.9862C31.985 11.584 32.0623 11.253 32.217 10.9932C32.3717 10.7333 32.5805 10.5276 32.8434 10.376C33.1064 10.2245 33.4003 10.11 33.7251 10.0327C34.0499 9.95533 34.3809 9.89656 34.7181 9.85634C35.1449 9.80685 35.4914 9.76664 35.7574 9.7357C36.0235 9.70167 36.2168 9.64754 36.3375 9.5733C36.4581 9.49905 36.5184 9.37841 36.5184 9.21136V9.17888C36.5184 8.77364 36.404 8.45966 36.1751 8.23693C35.9492 8.0142 35.6121 7.90284 35.1635 7.90284C34.6964 7.90284 34.3283 8.00647 34.0592 8.21373C33.7931 8.4179 33.6091 8.64527 33.507 8.89583L32.2031 8.59886C32.3578 8.16578 32.5836 7.81623 32.8806 7.55019C33.1806 7.28106 33.5255 7.08617 33.9153 6.96553C34.3051 6.84179 34.715 6.77992 35.1449 6.77992C35.4295 6.77992 35.7312 6.81395 36.0498 6.88201C36.3715 6.94697 36.6716 7.06761 36.95 7.24394C37.2315 7.42027 37.4619 7.67238 37.6413 8.00028C37.8208 8.3251 37.9105 8.74735 37.9105 9.26705V14H36.5556V13.0256H36.4999C36.4102 13.205 36.2756 13.3813 36.0962 13.5545C35.9168 13.7278 35.6863 13.8716 35.4048 13.9861C35.1233 14.1005 34.7861 14.1578 34.3932 14.1578ZM34.6949 13.0441C35.0784 13.0441 35.4063 12.9683 35.6786 12.8168C35.9539 12.6652 36.1627 12.4672 36.305 12.2228C36.4504 11.9753 36.5231 11.7109 36.5231 11.4294V10.5106C36.4736 10.5601 36.3777 10.6065 36.2354 10.6498C36.0962 10.69 35.9369 10.7256 35.7574 10.7565C35.578 10.7844 35.4032 10.8107 35.2331 10.8354C35.063 10.8571 34.9207 10.8756 34.8062 10.8911C34.5371 10.9251 34.2912 10.9824 34.0684 11.0628C33.8488 11.1432 33.6725 11.2592 33.5395 11.4108C33.4095 11.5593 33.3446 11.7573 33.3446 12.0047C33.3446 12.3481 33.4714 12.608 33.7251 12.7843C33.9787 12.9575 34.302 13.0441 34.6949 13.0441ZM45.0992 8.61278L43.8418 8.83551C43.7892 8.67465 43.7056 8.52153 43.5912 8.37614C43.4798 8.23075 43.3282 8.11165 43.1364 8.01884C42.9447 7.92604 42.7049 7.87964 42.4172 7.87964C42.0244 7.87964 41.6965 7.9678 41.4335 8.14413C41.1706 8.31736 41.0391 8.54164 41.0391 8.81695C41.0391 9.05515 41.1273 9.24694 41.3036 9.39233C41.4799 9.53772 41.7645 9.65682 42.1574 9.74962L43.2896 10.0095C43.9454 10.161 44.4341 10.3946 44.7559 10.7101C45.0776 11.0257 45.2384 11.4355 45.2384 11.9398C45.2384 12.3667 45.1147 12.7472 44.8672 13.0813C44.6228 13.4122 44.281 13.6721 43.8418 13.8608C43.4056 14.0495 42.8998 14.1438 42.3244 14.1438C41.5263 14.1438 40.8751 13.9737 40.3709 13.6334C39.8667 13.2901 39.5573 12.8028 39.4429 12.1718L40.7839 11.9676C40.8674 12.3172 41.0391 12.5817 41.2989 12.7611C41.5588 12.9374 41.8975 13.0256 42.3151 13.0256C42.7699 13.0256 43.1334 12.9312 43.4056 12.7425C43.6778 12.5507 43.8139 12.3172 43.8139 12.0419C43.8139 11.8191 43.7304 11.632 43.5633 11.4804C43.3994 11.3288 43.1473 11.2144 42.807 11.137L41.6006 10.8725C40.9355 10.721 40.4436 10.4797 40.125 10.1487C39.8095 9.81768 39.6517 9.39852 39.6517 8.89119C39.6517 8.47049 39.7692 8.10237 40.0043 7.78684C40.2394 7.47131 40.5643 7.22538 40.9788 7.04905C41.3933 6.86963 41.8681 6.77992 42.4033 6.77992C43.1736 6.77992 43.7799 6.94697 44.2222 7.28106C44.6646 7.61206 44.9569 8.05597 45.0992 8.61278ZM48.1513 9.76818V14H46.7639V4.49697H48.1327V8.03277H48.2209C48.3879 7.64918 48.6431 7.34448 48.9865 7.11866C49.3299 6.89284 49.7784 6.77992 50.3322 6.77992C50.8209 6.77992 51.2478 6.88046 51.6128 7.08153C51.981 7.28261 52.2656 7.58267 52.4666 7.98172C52.6708 8.37768 52.7729 8.87263 52.7729 9.46657V14H51.3855V9.63362C51.3855 9.11083 51.2509 8.70559 50.9818 8.4179C50.7127 8.12712 50.3383 7.98172 49.8589 7.98172C49.531 7.98172 49.2371 8.05133 48.9772 8.19053C48.7205 8.32974 48.5179 8.5339 48.3694 8.80303C48.224 9.06907 48.1513 9.39078 48.1513 9.76818ZM58.1937 14V4.49697H61.6739C62.3482 4.49697 62.9066 4.60833 63.3489 4.83106C63.7913 5.05069 64.1223 5.34921 64.3419 5.72661C64.5616 6.10092 64.6714 6.52317 64.6714 6.99337C64.6714 7.38933 64.5987 7.72342 64.4533 7.99564C64.3079 8.26477 64.113 8.48131 63.8686 8.64527C63.6274 8.80612 63.3613 8.92367 63.0705 8.99792V9.09072C63.3861 9.10619 63.6939 9.20827 63.9939 9.39697C64.2971 9.58258 64.5477 9.84706 64.7456 10.1904C64.9436 10.5338 65.0426 10.9514 65.0426 11.4433C65.0426 11.9289 64.9281 12.3651 64.6992 12.7518C64.4734 13.1354 64.1239 13.4401 63.6506 13.6659C63.1773 13.8886 62.5725 14 61.8363 14H58.1937ZM59.6275 12.7704H61.6971C62.3838 12.7704 62.8757 12.6373 63.1726 12.3713C63.4696 12.1053 63.6181 11.7727 63.6181 11.3737C63.6181 11.0736 63.5423 10.7983 63.3907 10.5477C63.2391 10.2972 63.0226 10.0976 62.7411 9.94915C62.4627 9.80066 62.1317 9.72642 61.7481 9.72642H59.6275V12.7704ZM59.6275 8.60814H61.5486C61.8703 8.60814 62.1595 8.54628 62.4163 8.42254C62.6761 8.2988 62.8818 8.12557 63.0334 7.90284C63.1881 7.67702 63.2654 7.41099 63.2654 7.10474C63.2654 6.71187 63.1278 6.38242 62.8525 6.11638C62.5771 5.85035 62.1549 5.71733 61.5857 5.71733H59.6275V8.60814ZM68.706 14.1578C68.2544 14.1578 67.846 14.0742 67.481 13.9072C67.116 13.7371 66.8267 13.4911 66.6133 13.1694C66.4029 12.8477 66.2978 12.4533 66.2978 11.9862C66.2978 11.584 66.3751 11.253 66.5298 10.9932C66.6844 10.7333 66.8933 10.5276 67.1562 10.376C67.4191 10.2245 67.713 10.11 68.0378 10.0327C68.3626 9.95533 68.6936 9.89656 69.0308 9.85634C69.4577 9.80685 69.8042 9.76664 70.0702 9.7357C70.3362 9.70167 70.5296 9.64754 70.6502 9.5733C70.7709 9.49905 70.8312 9.37841 70.8312 9.21136V9.17888C70.8312 8.77364 70.7167 8.45966 70.4878 8.23693C70.262 8.0142 69.9248 7.90284 69.4763 7.90284C69.0092 7.90284 68.641 8.00647 68.3719 8.21373C68.1059 8.4179 67.9218 8.64527 67.8197 8.89583L66.5159 8.59886C66.6705 8.16578 66.8963 7.81623 67.1933 7.55019C67.4934 7.28106 67.8383 7.08617 68.2281 6.96553C68.6178 6.84179 69.0277 6.77992 69.4577 6.77992C69.7423 6.77992 70.0439 6.81395 70.3625 6.88201C70.6843 6.94697 70.9843 7.06761 71.2627 7.24394C71.5442 7.42027 71.7747 7.67238 71.9541 8.00028C72.1335 8.3251 72.2232 8.74735 72.2232 9.26705V14H70.8683V13.0256H70.8126C70.7229 13.205 70.5884 13.3813 70.4089 13.5545C70.2295 13.7278 69.9991 13.8716 69.7176 13.9861C69.4361 14.1005 69.0989 14.1578 68.706 14.1578ZM69.0076 13.0441C69.3912 13.0441 69.7191 12.9683 69.9913 12.8168C70.2666 12.6652 70.4754 12.4672 70.6177 12.2228C70.7631 11.9753 70.8358 11.7109 70.8358 11.4294V10.5106C70.7863 10.5601 70.6904 10.6065 70.5481 10.6498C70.4089 10.69 70.2496 10.7256 70.0702 10.7565C69.8908 10.7844 69.716 10.8107 69.5459 10.8354C69.3757 10.8571 69.2334 10.8756 69.119 10.8911C68.8498 10.9251 68.6039 10.9824 68.3812 11.0628C68.1616 11.1432 67.9852 11.2592 67.8522 11.4108C67.7223 11.5593 67.6573 11.7573 67.6573 12.0047C67.6573 12.3481 67.7842 12.608 68.0378 12.7843C68.2915 12.9575 68.6147 13.0441 69.0076 13.0441ZM75.4586 4.49697V14H74.0712V4.49697H75.4586ZM79.3992 14.1578C78.9476 14.1578 78.5393 14.0742 78.1742 13.9072C77.8092 13.7371 77.52 13.4911 77.3065 13.1694C77.0962 12.8477 76.991 12.4533 76.991 11.9862C76.991 11.584 77.0683 11.253 77.223 10.9932C77.3777 10.7333 77.5865 10.5276 77.8494 10.376C78.1124 10.2245 78.4062 10.11 78.731 10.0327C79.0559 9.95533 79.3869 9.89656 79.724 9.85634C80.1509 9.80685 80.4974 9.76664 80.7634 9.7357C81.0295 9.70167 81.2228 9.64754 81.3435 9.5733C81.4641 9.49905 81.5244 9.37841 81.5244 9.21136V9.17888C81.5244 8.77364 81.41 8.45966 81.181 8.23693C80.9552 8.0142 80.618 7.90284 80.1695 7.90284C79.7024 7.90284 79.3343 8.00647 79.0651 8.21373C78.7991 8.4179 78.615 8.64527 78.513 8.89583L77.2091 8.59886C77.3637 8.16578 77.5896 7.81623 77.8865 7.55019C78.1866 7.28106 78.5315 7.08617 78.9213 6.96553C79.3111 6.84179 79.7209 6.77992 80.1509 6.77992C80.4355 6.77992 80.7371 6.81395 81.0558 6.88201C81.3775 6.94697 81.6775 7.06761 81.956 7.24394C82.2375 7.42027 82.4679 7.67238 82.6473 8.00028C82.8268 8.3251 82.9165 8.74735 82.9165 9.26705V14H81.5615V13.0256H81.5059C81.4161 13.205 81.2816 13.3813 81.1022 13.5545C80.9227 13.7278 80.6923 13.8716 80.4108 13.9861C80.1293 14.1005 79.7921 14.1578 79.3992 14.1578ZM79.7008 13.0441C80.0844 13.0441 80.4123 12.9683 80.6846 12.8168C80.9599 12.6652 81.1687 12.4672 81.311 12.2228C81.4564 11.9753 81.5291 11.7109 81.5291 11.4294V10.5106C81.4796 10.5601 81.3837 10.6065 81.2414 10.6498C81.1022 10.69 80.9429 10.7256 80.7634 10.7565C80.584 10.7844 80.4092 10.8107 80.2391 10.8354C80.069 10.8571 79.9267 10.8756 79.8122 10.8911C79.5431 10.9251 79.2971 10.9824 79.0744 11.0628C78.8548 11.1432 78.6785 11.2592 78.5454 11.4108C78.4155 11.5593 78.3506 11.7573 78.3506 12.0047C78.3506 12.3481 78.4774 12.608 78.731 12.7843C78.9847 12.9575 79.308 13.0441 79.7008 13.0441ZM86.1518 9.76818V14H84.7644V6.87273H86.0961V8.03277H86.1843C86.3482 7.65537 86.605 7.35221 86.9546 7.1233C87.3072 6.89438 87.7511 6.77992 88.2863 6.77992C88.7719 6.77992 89.1973 6.88201 89.5623 7.08617C89.9273 7.28725 90.2104 7.58731 90.4115 7.98636C90.6125 8.38542 90.7131 8.87882 90.7131 9.46657V14H89.3257V9.63362C89.3257 9.11701 89.1911 8.71332 88.922 8.42254C88.6529 8.12866 88.2832 7.98172 87.813 7.98172C87.4913 7.98172 87.2051 8.05133 86.9546 8.19053C86.7071 8.32974 86.5106 8.5339 86.3653 8.80303C86.223 9.06907 86.1518 9.39078 86.1518 9.76818ZM95.576 14.1438C94.8861 14.1438 94.2922 13.9876 93.7941 13.6752C93.2992 13.3597 92.9187 12.925 92.6527 12.3713C92.3866 11.8176 92.2536 11.1834 92.2536 10.4688C92.2536 9.74498 92.3897 9.10619 92.6619 8.55246C92.9342 7.99564 93.3177 7.56102 93.8127 7.24858C94.3076 6.93614 94.8908 6.77992 95.562 6.77992C96.1034 6.77992 96.586 6.88046 97.0098 7.08153C97.4336 7.27951 97.7754 7.55792 98.0352 7.91676C98.2982 8.2756 98.4544 8.69476 98.5039 9.17424H97.1536C97.0794 8.84015 96.9092 8.55246 96.6432 8.31117C96.3802 8.06989 96.0276 7.94924 95.5852 7.94924C95.1986 7.94924 94.8598 8.05133 94.569 8.25549C94.2814 8.45657 94.0571 8.74426 93.8962 9.11856C93.7354 9.48977 93.6549 9.92904 93.6549 10.4364C93.6549 10.9561 93.7338 11.4046 93.8916 11.782C94.0493 12.1594 94.2721 12.4517 94.5598 12.659C94.8505 12.8663 95.1924 12.9699 95.5852 12.9699C95.8482 12.9699 96.0864 12.9219 96.2998 12.826C96.5164 12.7271 96.6973 12.5863 96.8427 12.4038C96.9912 12.2213 97.0948 12.0016 97.1536 11.7449H98.5039C98.4544 12.2058 98.3044 12.6172 98.0538 12.9792C97.8032 13.3411 97.4676 13.6257 97.0469 13.833C96.6293 14.0402 96.139 14.1438 95.576 14.1438ZM103.059 14.1438C102.357 14.1438 101.752 13.9938 101.245 13.6938C100.741 13.3906 100.351 12.9652 100.076 12.4177C99.8035 11.8671 99.6674 11.2221 99.6674 10.4828C99.6674 9.75271 99.8035 9.10928 100.076 8.55246C100.351 7.99564 100.735 7.56102 101.226 7.24858C101.721 6.93614 102.3 6.77992 102.962 6.77992C103.364 6.77992 103.754 6.84643 104.131 6.97945C104.509 7.11247 104.847 7.32128 105.147 7.60587C105.447 7.89047 105.684 8.26013 105.857 8.71487C106.031 9.16651 106.117 9.71559 106.117 10.3621V10.854H100.452V9.81458H104.758C104.758 9.44956 104.683 9.12629 104.535 8.84479C104.386 8.5602 104.178 8.33592 103.909 8.17197C103.642 8.00802 103.33 7.92604 102.971 7.92604C102.581 7.92604 102.241 8.02194 101.95 8.21373C101.663 8.40243 101.44 8.64991 101.282 8.95616C101.128 9.25931 101.05 9.58876 101.05 9.94451V10.7565C101.05 11.2329 101.134 11.6382 101.301 11.9723C101.471 12.3063 101.708 12.5616 102.011 12.7379C102.314 12.9111 102.668 12.9977 103.073 12.9977C103.336 12.9977 103.576 12.9606 103.793 12.8864C104.009 12.809 104.196 12.6946 104.354 12.543C104.512 12.3914 104.632 12.2043 104.716 11.9815L106.029 12.2182C105.924 12.6049 105.735 12.9436 105.463 13.2344C105.194 13.5221 104.855 13.7463 104.447 13.9072C104.042 14.065 103.579 14.1438 103.059 14.1438Z" fill="#64748B"/>
</svg>
