<svg width="40" height="40" viewBox="0 0 40 40" fill="none" xmlns="http://www.w3.org/2000/svg">
<path d="M40 20C40 31.0457 31.0457 40 20 40C8.9543 40 0 31.0457 0 20C0 8.9543 8.9543 0 20 0C31.0457 0 40 8.9543 40 20Z" fill="#9CFD8C"/>
<path d="M10.9983 22.441C12.6579 24.1819 14.3176 25.9228 15.9773 27.6637C16.5919 28.3153 17.418 28.3363 18.046 27.6721C21.3425 24.2003 24.6487 20.7361 27.9453 17.2643C28.4263 16.7583 28.8997 16.262 29.3806 15.7561C29.8616 15.2501 29.6704 14.3362 29.1556 13.9264C28.5623 13.4474 27.8069 13.6454 27.3259 14.1514C24.0294 17.6232 20.7231 21.0874 17.4266 24.5592C16.9456 25.0652 16.4722 25.5614 15.9913 26.0674L18.0599 26.0758C16.4003 24.335 14.7406 22.5941 13.0809 20.8532C12.589 20.3442 11.8646 20.153 11.2543 20.6047C10.7412 20.992 10.5226 21.9213 11.0058 22.4313L10.9983 22.441Z" fill="#111313"/>
</svg>
