<svg width="19" height="12" viewBox="0 0 19 12" fill="none" xmlns="http://www.w3.org/2000/svg">
<path fill-rule="evenodd" clip-rule="evenodd" d="M18.7224 1.11771C18.7224 0.500417 18.2567 0 17.6823 0H16.6421C16.0677 0 15.602 0.500417 15.602 1.11771V10.8046C15.602 11.4219 16.0677 11.9223 16.6421 11.9223H17.6823C18.2567 11.9223 18.7224 11.4219 18.7224 10.8046V1.11771ZM11.4732 2.38445H12.5133C13.0878 2.38445 13.5535 2.89688 13.5535 3.52899V10.7777C13.5535 11.4098 13.0878 11.9223 12.5133 11.9223H11.4732C10.8988 11.9223 10.4331 11.4098 10.4331 10.7777V3.52899C10.4331 2.89688 10.8988 2.38445 11.4732 2.38445ZM7.24919 4.9676H6.20905C5.6346 4.9676 5.16892 5.48656 5.16892 6.12671V10.7632C5.16892 11.4033 5.6346 11.9223 6.20905 11.9223H7.24919C7.82364 11.9223 8.28932 11.4033 8.28932 10.7632V6.12671C8.28932 5.48656 7.82364 4.9676 7.24919 4.9676ZM2.08027 7.35207H1.04013C0.465683 7.35207 0 7.86361 0 8.49462V10.7797C0 11.4107 0.465683 11.9223 1.04013 11.9223H2.08027C2.65471 11.9223 3.1204 11.4107 3.1204 10.7797V8.49462C3.1204 7.86361 2.65471 7.35207 2.08027 7.35207Z" fill="black"/>
</svg>
