<svg width="296" height="59" viewBox="0 0 296 59" fill="none" xmlns="http://www.w3.org/2000/svg">
<rect width="296" height="58.6585" rx="14.439" fill="white"/>
<rect x="14.439" y="14.8903" width="28.878" height="28.878" rx="7.21951" fill="#111313"/>
<path d="M28.8777 22.4481C32.6779 22.4481 35.7594 25.5288 35.7595 29.329C35.7595 33.1293 32.678 36.2108 28.8777 36.2108C25.0775 36.2107 21.9968 33.1292 21.9968 29.329C21.997 25.5289 25.0776 22.4483 28.8777 22.4481ZM28.8777 24.1776C28.3497 24.1778 27.9166 24.5813 27.8679 25.0966H27.6248C26.1829 25.0966 24.8543 26.1876 24.8542 27.7206C24.8542 29.2536 26.1828 30.3446 27.6248 30.3446H27.863V31.5311H25.8699C25.3092 31.5311 24.8542 31.986 24.8542 32.5468C24.8545 33.1072 25.3093 33.5614 25.8699 33.5614H27.8679C27.9163 34.077 28.3495 34.4802 28.8777 34.4803C29.406 34.4803 29.8401 34.0771 29.8884 33.5614H30.1316C31.5735 33.5613 32.9011 32.4704 32.9011 30.9374C32.9009 29.4046 31.5733 28.3144 30.1316 28.3143H29.8933V27.1278H31.3845C31.9452 27.1278 32.4001 26.6729 32.4001 26.1122C32.4001 25.5515 31.9452 25.0966 31.3845 25.0966H29.8884C29.8398 24.5811 29.4058 24.1776 28.8777 24.1776ZM30.1316 30.3446C30.6187 30.3447 30.8706 30.6858 30.8708 30.9374C30.8708 31.189 30.619 31.531 30.1316 31.5311H29.8933V30.3446H30.1316ZM27.6248 27.1278H27.863V28.3143H27.6248C27.1372 28.3143 26.8855 27.9723 26.8855 27.7206C26.8856 27.4689 27.1373 27.1278 27.6248 27.1278Z" fill="#B8FFAC" stroke="#B8FFAC" stroke-width="0.902439"/>
<path d="M54.5207 25.8293H51.5461V16.6408H54.6149C55.5152 16.6408 56.2884 16.8248 56.9345 17.1927C57.5805 17.5576 58.0755 18.0825 58.4195 18.7674C58.7665 19.4494 58.9399 20.2674 58.9399 21.2216C58.9399 22.1787 58.765 23.0013 58.415 23.6892C58.0681 24.3771 57.5656 24.9065 56.9075 25.2774C56.2495 25.6453 55.4539 25.8293 54.5207 25.8293ZM52.9324 24.6179H54.4444C55.1443 24.6179 55.7261 24.4863 56.1897 24.2231C56.6533 23.9569 57.0003 23.5725 57.2306 23.0701C57.4609 22.5646 57.576 21.9484 57.576 21.2216C57.576 20.5007 57.4609 19.8891 57.2306 19.3866C57.0032 18.8841 56.6638 18.5027 56.2121 18.2425C55.7605 17.9823 55.1997 17.8522 54.5297 17.8522H52.9324V24.6179ZM60.5562 25.8293V18.9379H61.8977V25.8293H60.5562ZM61.2337 17.8746C61.0004 17.8746 60.8 17.7969 60.6325 17.6413C60.468 17.4828 60.3857 17.2944 60.3857 17.076C60.3857 16.8547 60.468 16.6662 60.6325 16.5107C60.8 16.3522 61.0004 16.2729 61.2337 16.2729C61.467 16.2729 61.6659 16.3522 61.8304 16.5107C61.9979 16.6662 62.0817 16.8547 62.0817 17.076C62.0817 17.2944 61.9979 17.4828 61.8304 17.6413C61.6659 17.7969 61.467 17.8746 61.2337 17.8746ZM69.5978 18.9379L67.0987 25.8293H65.6631L63.1596 18.9379H64.5997L66.345 24.241H66.4168L68.1576 18.9379H69.5978ZM70.8585 25.8293V18.9379H72.2V25.8293H70.8585ZM71.536 17.8746C71.3027 17.8746 71.1023 17.7969 70.9348 17.6413C70.7703 17.4828 70.688 17.2944 70.688 17.076C70.688 16.8547 70.7703 16.6662 70.9348 16.5107C71.1023 16.3522 71.3027 16.2729 71.536 16.2729C71.7693 16.2729 71.9682 16.3522 72.1327 16.5107C72.3002 16.6662 72.3839 16.8547 72.3839 17.076C72.3839 17.2944 72.3002 17.4828 72.1327 17.6413C71.9682 17.7969 71.7693 17.8746 71.536 17.8746ZM76.5845 25.9639C76.0281 25.9639 75.5316 25.8218 75.0949 25.5377C74.6612 25.2505 74.3202 24.8422 74.072 24.3128C73.8267 23.7804 73.7041 23.1418 73.7041 22.3971C73.7041 21.6523 73.8282 21.0152 74.0765 20.4858C74.3277 19.9564 74.6717 19.5511 75.1084 19.2699C75.5451 18.9888 76.0401 18.8482 76.5934 18.8482C77.0211 18.8482 77.3651 18.92 77.6253 19.0636C77.8885 19.2041 78.0919 19.3686 78.2355 19.5571C78.3821 19.7455 78.4957 19.9115 78.5765 20.0551H78.6572V16.6408H79.9987V25.8293H78.6887V24.757H78.5765C78.4957 24.9036 78.3791 25.0711 78.2265 25.2595C78.077 25.4479 77.8706 25.6124 77.6074 25.753C77.3442 25.8936 77.0032 25.9639 76.5845 25.9639ZM76.8806 24.8198C77.2664 24.8198 77.5924 24.7181 77.8586 24.5147C78.1278 24.3083 78.3312 24.0227 78.4688 23.6578C78.6094 23.2929 78.6797 22.8682 78.6797 22.3836C78.6797 21.905 78.6109 21.4863 78.4733 21.1274C78.3357 20.7684 78.1338 20.4888 77.8676 20.2884C77.6014 20.088 77.2724 19.9878 76.8806 19.9878C76.4768 19.9878 76.1403 20.0925 75.8711 20.3018C75.6019 20.5112 75.3985 20.7969 75.2609 21.1588C75.1263 21.5207 75.059 21.929 75.059 22.3836C75.059 22.8442 75.1278 23.2585 75.2654 23.6264C75.403 23.9943 75.6064 24.2859 75.8756 24.5013C76.1478 24.7136 76.4828 24.8198 76.8806 24.8198ZM84.8835 25.9684C84.2045 25.9684 83.6198 25.8233 83.1292 25.5332C82.6417 25.2401 82.2648 24.8288 81.9986 24.2994C81.7354 23.767 81.6038 23.1433 81.6038 22.4285C81.6038 21.7226 81.7354 21.1005 81.9986 20.5621C82.2648 20.0237 82.6357 19.6034 83.1113 19.3013C83.5898 18.9992 84.1492 18.8482 84.7892 18.8482C85.1781 18.8482 85.555 18.9125 85.9199 19.0411C86.2848 19.1697 86.6123 19.3716 86.9024 19.6468C87.1925 19.922 87.4214 20.2794 87.5889 20.7191C87.7564 21.1558 87.8401 21.6867 87.8401 22.3118V22.7874H82.362V21.7824H86.5255C86.5255 21.4295 86.4538 21.1169 86.3102 20.8447C86.1666 20.5695 85.9647 20.3527 85.7045 20.1942C85.4473 20.0356 85.1452 19.9564 84.7982 19.9564C84.4214 19.9564 84.0923 20.0491 83.8112 20.2345C83.533 20.417 83.3177 20.6563 83.1651 20.9524C83.0156 21.2455 82.9408 21.5641 82.9408 21.908V22.6932C82.9408 23.1538 83.0215 23.5456 83.1831 23.8687C83.3476 24.1917 83.5764 24.4385 83.8695 24.6089C84.1626 24.7764 84.5051 24.8602 84.8969 24.8602C85.1512 24.8602 85.383 24.8243 85.5923 24.7525C85.8017 24.6777 85.9827 24.5671 86.1352 24.4205C86.2878 24.2739 86.4044 24.093 86.4852 23.8776L87.7549 24.1064C87.6532 24.4803 87.4707 24.8078 87.2075 25.089C86.9473 25.3672 86.6198 25.584 86.2249 25.7396C85.8331 25.8921 85.386 25.9684 84.8835 25.9684ZM90.67 21.7375V25.8293H89.3285V18.9379H90.6162V20.0596H90.7014C90.8599 19.6947 91.1082 19.4015 91.4462 19.1802C91.7872 18.9589 92.2164 18.8482 92.7338 18.8482C93.2034 18.8482 93.6147 18.9469 93.9676 19.1443C94.3206 19.3387 94.5942 19.6289 94.7887 20.0147C94.9831 20.4005 95.0803 20.8776 95.0803 21.4459V25.8293H93.7388V21.6074C93.7388 21.1079 93.6087 20.7176 93.3485 20.4364C93.0883 20.1523 92.7308 20.0102 92.2762 20.0102C91.9651 20.0102 91.6885 20.0775 91.4462 20.2121C91.2069 20.3467 91.017 20.5441 90.8764 20.8043C90.7388 21.0616 90.67 21.3726 90.67 21.7375ZM99.4592 25.9639C98.9028 25.9639 98.4063 25.8218 97.9696 25.5377C97.5359 25.2505 97.195 24.8422 96.9467 24.3128C96.7014 23.7804 96.5788 23.1418 96.5788 22.3971C96.5788 21.6523 96.7029 21.0152 96.9512 20.4858C97.2024 19.9564 97.5464 19.5511 97.9831 19.2699C98.4198 18.9888 98.9148 18.8482 99.4681 18.8482C99.8959 18.8482 100.24 18.92 100.5 19.0636C100.763 19.2041 100.967 19.3686 101.11 19.5571C101.257 19.7455 101.37 19.9115 101.451 20.0551H101.532V16.6408H102.873V25.8293H101.563V24.757H101.451C101.37 24.9036 101.254 25.0711 101.101 25.2595C100.952 25.4479 100.745 25.6124 100.482 25.753C100.219 25.8936 99.8779 25.9639 99.4592 25.9639ZM99.7553 24.8198C100.141 24.8198 100.467 24.7181 100.733 24.5147C101.003 24.3083 101.206 24.0227 101.344 23.6578C101.484 23.2929 101.554 22.8682 101.554 22.3836C101.554 21.905 101.486 21.4863 101.348 21.1274C101.21 20.7684 101.009 20.4888 100.742 20.2884C100.476 20.088 100.147 19.9878 99.7553 19.9878C99.3515 19.9878 99.015 20.0925 98.7458 20.3018C98.4766 20.5112 98.2732 20.7969 98.1356 21.1588C98.001 21.5207 97.9337 21.929 97.9337 22.3836C97.9337 22.8442 98.0025 23.2585 98.1401 23.6264C98.2777 23.9943 98.4811 24.2859 98.7503 24.5013C99.0225 24.7136 99.3575 24.8198 99.7553 24.8198ZM109.016 25.8293H107.544L110.851 16.6408H112.452L115.759 25.8293H114.287L111.69 18.3098H111.618L109.016 25.8293ZM109.262 22.2311H114.036V23.3976H109.262V22.2311ZM117.862 25.8293H116.39L119.697 16.6408H121.299L124.605 25.8293H123.134L120.536 18.3098H120.464L117.862 25.8293ZM118.109 22.2311H122.882V23.3976H118.109V22.2311ZM125.932 25.8293V16.6408H129.207C129.922 16.6408 130.514 16.7709 130.984 17.0311C131.454 17.2914 131.805 17.6473 132.038 18.0989C132.272 18.5476 132.388 19.0531 132.388 19.6154C132.388 20.1807 132.27 20.6892 132.034 21.1408C131.801 21.5895 131.448 21.9454 130.975 22.2086C130.505 22.4689 129.915 22.599 129.203 22.599H126.951V21.4235H129.077C129.529 21.4235 129.895 21.3457 130.176 21.1902C130.458 21.0317 130.664 20.8163 130.796 20.5441C130.927 20.2719 130.993 19.9624 130.993 19.6154C130.993 19.2684 130.927 18.9604 130.796 18.6912C130.664 18.422 130.456 18.2111 130.172 18.0586C129.891 17.906 129.52 17.8298 129.059 17.8298H127.318V25.8293H125.932ZM134.014 25.8293V16.6408H135.4V24.6359H139.563V25.8293H134.014Z" fill="#111313"/>
<path d="M53.9515 43.8293H51.4019V35.9535H54.0323C54.804 35.9535 55.4667 36.1111 56.0205 36.4265C56.5742 36.7392 56.9985 37.1892 57.2934 37.7763C57.5908 38.3608 57.7395 39.062 57.7395 39.8798C57.7395 40.7002 57.5895 41.4053 57.2895 41.9949C56.9921 42.5846 56.5614 43.0384 55.9974 43.3563C55.4334 43.6716 54.7514 43.8293 53.9515 43.8293ZM52.5902 42.791H53.8862C54.4861 42.791 54.9847 42.6782 55.3821 42.4526C55.7795 42.2244 56.0769 41.8949 56.2743 41.4642C56.4717 41.031 56.5704 40.5028 56.5704 39.8798C56.5704 39.262 56.4717 38.7377 56.2743 38.307C56.0794 37.8763 55.7885 37.5494 55.4013 37.3263C55.0142 37.1033 54.5335 36.9918 53.9592 36.9918H52.5902V42.791ZM61.6707 43.9485C61.0887 43.9485 60.5875 43.8242 60.167 43.5755C59.7491 43.3242 59.4261 42.9717 59.1979 42.5179C58.9723 42.0616 58.8595 41.527 58.8595 40.9143C58.8595 40.3093 58.9723 39.776 59.1979 39.3145C59.4261 38.8531 59.744 38.4928 60.1516 38.2339C60.5618 37.975 61.0413 37.8455 61.5899 37.8455C61.9232 37.8455 62.2462 37.9006 62.559 38.0109C62.8718 38.1211 63.1525 38.2942 63.4012 38.53C63.6499 38.7659 63.846 39.0723 63.9896 39.4491C64.1331 39.8234 64.2049 40.2785 64.2049 40.8143V41.222H59.5094V40.3605H63.0782C63.0782 40.058 63.0166 39.7901 62.8936 39.5568C62.7705 39.3209 62.5974 39.1351 62.3744 38.9992C62.1539 38.8633 61.895 38.7954 61.5976 38.7954C61.2746 38.7954 60.9925 38.8748 60.7516 39.0338C60.5131 39.1902 60.3285 39.3953 60.1978 39.6491C60.0696 39.9003 60.0055 40.1734 60.0055 40.4682V41.1412C60.0055 41.536 60.0747 41.8719 60.2132 42.1487C60.3542 42.4256 60.5503 42.6371 60.8015 42.7833C61.0528 42.9268 61.3463 42.9986 61.6822 42.9986C61.9001 42.9986 62.0988 42.9679 62.2783 42.9063C62.4577 42.8422 62.6128 42.7474 62.7436 42.6218C62.8743 42.4961 62.9743 42.341 63.0435 42.1564L64.1319 42.3526C64.0447 42.673 63.8883 42.9538 63.6627 43.1948C63.4396 43.4332 63.1589 43.6191 62.8205 43.7524C62.4846 43.8831 62.1014 43.9485 61.6707 43.9485ZM67.9688 43.9485C67.3971 43.9485 66.9049 43.819 66.4921 43.5601C66.0819 43.2986 65.7666 42.9384 65.5461 42.4795C65.3256 42.0206 65.2154 41.495 65.2154 40.9028C65.2154 40.3029 65.3282 39.7734 65.5538 39.3145C65.7794 38.8531 66.0973 38.4928 66.5075 38.2339C66.9177 37.975 67.401 37.8455 67.9573 37.8455C68.4059 37.8455 68.8059 37.9288 69.1571 38.0955C69.5084 38.2595 69.7916 38.4903 70.007 38.7877C70.2249 39.0851 70.3544 39.4325 70.3954 39.8298H69.2763C69.2148 39.553 69.0738 39.3145 68.8533 39.1146C68.6354 38.9146 68.3431 38.8146 67.9765 38.8146C67.656 38.8146 67.3753 38.8992 67.1343 39.0684C66.8959 39.235 66.71 39.4735 66.5767 39.7837C66.4434 40.0913 66.3767 40.4554 66.3767 40.8758C66.3767 41.3066 66.4421 41.6783 66.5729 41.9911C66.7036 42.3039 66.8882 42.5461 67.1266 42.7179C67.3676 42.8897 67.6509 42.9756 67.9765 42.9756C68.1944 42.9756 68.3918 42.9358 68.5687 42.8563C68.7482 42.7743 68.8982 42.6577 69.0187 42.5064C69.1417 42.3551 69.2276 42.1731 69.2763 41.9603H70.3954C70.3544 42.3423 70.23 42.6833 70.0224 42.9832C69.8147 43.2832 69.5366 43.5191 69.1879 43.6908C68.8418 43.8626 68.4354 43.9485 67.9688 43.9485ZM77.4637 35.9535V43.8293H76.2715V37.1456H76.2254L74.341 38.3762V37.2379L76.3061 35.9535H77.4637Z" fill="#A0ABBB"/>
<path d="M250.166 26.9778V15.4923H250.902V26.9778H250.166ZM252.468 19.0546C252.42 18.6299 252.223 18.3008 251.876 18.0675C251.529 17.8312 251.092 17.7131 250.566 17.7131C250.189 17.7131 249.863 17.7729 249.587 17.8926C249.312 18.0092 249.098 18.1707 248.946 18.3771C248.796 18.5805 248.722 18.8123 248.722 19.0725C248.722 19.2909 248.772 19.4793 248.874 19.6378C248.979 19.7964 249.115 19.9295 249.282 20.0371C249.453 20.1418 249.635 20.2301 249.83 20.3018C250.024 20.3706 250.211 20.4275 250.391 20.4723L251.288 20.7056C251.581 20.7774 251.882 20.8746 252.19 20.9973C252.498 21.1199 252.783 21.2814 253.047 21.4818C253.31 21.6822 253.522 21.9305 253.684 22.2266C253.848 22.5227 253.93 22.8771 253.93 23.2899C253.93 23.8103 253.796 24.2724 253.527 24.6762C253.26 25.08 252.873 25.3986 252.365 25.6319C251.859 25.8652 251.247 25.9818 250.53 25.9818C249.842 25.9818 249.246 25.8727 248.744 25.6543C248.241 25.436 247.848 25.1264 247.564 24.7256C247.28 24.3218 247.123 23.8432 247.093 23.2899H248.484C248.511 23.6219 248.618 23.8986 248.807 24.1199C248.998 24.3383 249.242 24.5013 249.538 24.6089C249.837 24.7136 250.165 24.766 250.521 24.766C250.912 24.766 251.261 24.7047 251.566 24.582C251.874 24.4564 252.116 24.2829 252.293 24.0616C252.469 23.8373 252.558 23.5755 252.558 23.2764C252.558 23.0042 252.48 22.7814 252.324 22.6079C252.172 22.4345 251.964 22.2909 251.701 22.1772C251.44 22.0636 251.146 21.9634 250.817 21.8766L249.731 21.5805C248.995 21.3801 248.412 21.0855 247.981 20.6967C247.554 20.3078 247.34 19.7934 247.34 19.1533C247.34 18.6239 247.483 18.1618 247.77 17.7669C248.058 17.3721 248.446 17.0655 248.937 16.8472C249.427 16.6259 249.981 16.5152 250.597 16.5152C251.219 16.5152 251.768 16.6244 252.244 16.8427C252.722 17.0611 253.099 17.3617 253.374 17.7445C253.649 18.1244 253.793 18.5611 253.805 19.0546H252.468ZM258.66 25.9818C257.952 25.9788 257.346 25.7919 256.843 25.421C256.341 25.0501 255.957 24.5102 255.69 23.8014C255.424 23.0925 255.291 22.2385 255.291 21.2395C255.291 20.2435 255.424 19.3926 255.69 18.6867C255.96 17.9808 256.345 17.4424 256.848 17.0715C257.353 16.7006 257.958 16.5152 258.66 16.5152C259.363 16.5152 259.966 16.7021 260.468 17.076C260.971 17.4469 261.355 17.9853 261.622 18.6912C261.891 19.3941 262.025 20.2435 262.025 21.2395C262.025 22.2415 261.892 23.097 261.626 23.8058C261.36 24.5117 260.975 25.0516 260.473 25.4255C259.97 25.7964 259.366 25.9818 258.66 25.9818ZM258.66 24.7839C259.283 24.7839 259.769 24.4803 260.119 23.8731C260.471 23.266 260.648 22.3881 260.648 21.2395C260.648 20.4768 260.567 19.8323 260.406 19.3058C260.247 18.7764 260.018 18.3756 259.719 18.1034C259.423 17.8283 259.07 17.6907 258.66 17.6907C258.041 17.6907 257.555 17.9958 257.202 18.6059C256.849 19.2161 256.671 20.094 256.668 21.2395C256.668 22.0052 256.748 22.6528 256.906 23.1822C257.068 23.7086 257.296 24.1079 257.593 24.3801C257.889 24.6493 258.245 24.7839 258.66 24.7839ZM264.186 25.9145C263.94 25.9145 263.729 25.8278 263.553 25.6543C263.377 25.4778 263.288 25.2655 263.288 25.0172C263.288 24.772 263.377 24.5626 263.553 24.3891C263.729 24.2126 263.94 24.1244 264.186 24.1244C264.431 24.1244 264.642 24.2126 264.818 24.3891C264.995 24.5626 265.083 24.772 265.083 25.0172C265.083 25.1817 265.041 25.3328 264.957 25.4704C264.877 25.605 264.769 25.7126 264.634 25.7934C264.5 25.8742 264.35 25.9145 264.186 25.9145ZM266.669 24.0347V22.913L270.64 16.6408H271.523V18.2919H270.963L268.123 22.7874V22.8592H273.565V24.0347H266.669ZM271.025 25.8293V23.6937L271.034 23.1822V16.6408H272.349V25.8293H271.025ZM275.438 25.8293L279.449 17.8971V17.8298H274.81V16.6408H280.885V17.8701L276.887 25.8293H275.438Z" fill="#111313"/>
<path d="M257.807 43.8293H255.258V35.9535H257.888C258.66 35.9535 259.323 36.1111 259.876 36.4265C260.43 36.7392 260.854 37.1892 261.149 37.7763C261.447 38.3608 261.595 39.062 261.595 39.8798C261.595 40.7002 261.445 41.4053 261.145 41.9949C260.848 42.5846 260.417 43.0384 259.853 43.3563C259.289 43.6716 258.607 43.8293 257.807 43.8293ZM256.446 42.791H257.742C258.342 42.791 258.841 42.6782 259.238 42.4526C259.635 42.2244 259.933 41.8949 260.13 41.4642C260.328 41.031 260.426 40.5028 260.426 39.8798C260.426 39.262 260.328 38.7377 260.13 38.307C259.935 37.8763 259.644 37.5494 259.257 37.3263C258.87 37.1033 258.389 36.9918 257.815 36.9918H256.446V42.791ZM265.469 43.9485C264.915 43.9485 264.432 43.8216 264.019 43.5678C263.606 43.314 263.286 42.9589 263.058 42.5025C262.83 42.0462 262.715 41.5129 262.715 40.9028C262.715 40.29 262.83 39.7542 263.058 39.2953C263.286 38.8364 263.606 38.48 264.019 38.2262C264.432 37.9724 264.915 37.8455 265.469 37.8455C266.023 37.8455 266.506 37.9724 266.919 38.2262C267.331 38.48 267.652 38.8364 267.88 39.2953C268.108 39.7542 268.222 40.29 268.222 40.9028C268.222 41.5129 268.108 42.0462 267.88 42.5025C267.652 42.9589 267.331 43.314 266.919 43.5678C266.506 43.8216 266.023 43.9485 265.469 43.9485ZM265.473 42.9832C265.832 42.9832 266.129 42.8884 266.365 42.6987C266.601 42.509 266.775 42.2564 266.888 41.9411C267.003 41.6257 267.061 41.2784 267.061 40.8989C267.061 40.5221 267.003 40.1759 266.888 39.8606C266.775 39.5427 266.601 39.2876 266.365 39.0953C266.129 38.903 265.832 38.8069 265.473 38.8069C265.111 38.8069 264.811 38.903 264.573 39.0953C264.337 39.2876 264.161 39.5427 264.046 39.8606C263.933 40.1759 263.877 40.5221 263.877 40.8989C263.877 41.2784 263.933 41.6257 264.046 41.9411C264.161 42.2564 264.337 42.509 264.573 42.6987C264.811 42.8884 265.111 42.9832 265.473 42.9832ZM270.656 40.3221V43.8293H269.506V37.9224H270.61V38.8838H270.683C270.819 38.571 271.031 38.3198 271.321 38.1301C271.613 37.9404 271.981 37.8455 272.425 37.8455C272.827 37.8455 273.18 37.9301 273.482 38.0993C273.785 38.266 274.019 38.5146 274.186 38.8454C274.353 39.1761 274.436 39.585 274.436 40.0721V43.8293H273.286V40.2106C273.286 39.7824 273.175 39.4478 272.952 39.2068C272.728 38.9633 272.422 38.8415 272.032 38.8415C271.766 38.8415 271.529 38.8992 271.321 39.0146C271.116 39.1299 270.953 39.2991 270.833 39.5222C270.715 39.7427 270.656 40.0093 270.656 40.3221ZM278.524 43.9485C277.942 43.9485 277.441 43.8242 277.02 43.5755C276.602 43.3242 276.279 42.9717 276.051 42.5179C275.825 42.0616 275.713 41.527 275.713 40.9143C275.713 40.3093 275.825 39.776 276.051 39.3145C276.279 38.8531 276.597 38.4928 277.005 38.2339C277.415 37.975 277.894 37.8455 278.443 37.8455C278.776 37.8455 279.099 37.9006 279.412 38.0109C279.725 38.1211 280.006 38.2942 280.254 38.53C280.503 38.7659 280.699 39.0723 280.843 39.4491C280.986 39.8234 281.058 40.2785 281.058 40.8143V41.222H276.363V40.3605H279.931C279.931 40.058 279.87 39.7901 279.747 39.5568C279.624 39.3209 279.451 39.1351 279.228 38.9992C279.007 38.8633 278.748 38.7954 278.451 38.7954C278.128 38.7954 277.846 38.8748 277.605 39.0338C277.366 39.1902 277.182 39.3953 277.051 39.6491C276.923 39.9003 276.859 40.1734 276.859 40.4682V41.1412C276.859 41.536 276.928 41.8719 277.066 42.1487C277.207 42.4256 277.403 42.6371 277.655 42.7833C277.906 42.9268 278.2 42.9986 278.535 42.9986C278.753 42.9986 278.952 42.9679 279.131 42.9063C279.311 42.8422 279.466 42.7474 279.597 42.6218C279.728 42.4961 279.828 42.341 279.897 42.1564L280.985 42.3526C280.898 42.673 280.741 42.9538 280.516 43.1948C280.293 43.4332 280.012 43.6191 279.674 43.7524C279.338 43.8831 278.955 43.9485 278.524 43.9485Z" fill="#A0ABBB"/>
</svg>
