<svg width="79" height="73" viewBox="0 0 79 73" fill="none" xmlns="http://www.w3.org/2000/svg">
<g filter="url(#filter0_n_3831_43079)">
<path d="M69.9847 56.5192C74.088 50.7067 76.2987 43.7673 76.3494 36.6554C76.3418 36.605 76.3377 36.5521 76.3377 36.4965C76.3315 34.7124 76.2134 32.9284 75.9337 31.1629C74.8334 24.1758 71.5947 17.6176 66.6901 12.514C61.8227 7.45399 55.6561 3.99151 48.5944 2.54933C41.5327 1.10715 33.9986 1.93392 27.4342 4.92396C21.0749 7.82075 15.6605 12.6197 12.0426 18.606C8.31908 24.7788 6.64068 32.1762 7.17528 39.2068C7.70988 46.2374 10.4637 53.0754 14.9643 58.5084C19.4462 63.9166 25.5071 67.9199 32.2705 69.8283C39.2638 71.8051 47.0839 71.4134 53.6296 69.0326C60.1754 66.6517 65.969 62.2071 69.9847 56.5192Z" fill="url(#paint0_linear_3831_43079)" fill-opacity="0.3"/>
</g>
<path d="M42.3969 57.1348C41.6758 57.1348 40.9485 57.1348 40.2274 57.1348C39.5871 57.1348 39.3198 56.8923 39.3074 56.2396C39.295 55.2512 39.295 54.2566 39.3074 53.2682C39.3074 53.0196 39.2328 52.9263 38.9904 52.8642C35.5465 52.0001 32.6187 50.2595 30.2378 47.6176C30.0948 47.456 29.9394 47.3068 29.8089 47.1452C29.3986 46.6292 29.4048 46.2811 29.8773 45.8087C30.4927 45.1933 31.133 44.6027 31.7608 43.9997C32.4011 43.3905 33.0414 42.7876 33.6816 42.1784C34.4089 41.4883 34.7757 41.4759 35.5465 42.1224C36.4976 42.9181 37.4176 43.7635 38.4931 44.41C40.1963 45.4295 41.999 45.9268 43.9883 45.5289C45.5921 45.2057 46.4686 44.1987 46.4996 42.657C46.5121 42.0789 46.2883 41.6189 45.8842 41.2273C45.0637 40.4378 44.0629 39.9591 43.0123 39.5924C40.8863 38.8464 38.7666 38.0943 36.796 36.994C35.0181 36.0056 33.4143 34.8121 32.3141 33.0653C29.4235 28.4963 31.0832 22.7835 35.9692 20.4151C36.8893 19.9675 37.8466 19.6257 38.8474 19.4329C39.239 19.3584 39.3323 19.1967 39.3198 18.8237C39.2887 17.9846 39.3074 17.1391 39.3198 16.2937C39.326 15.5664 39.6555 15.2432 40.3828 15.2432C41.7069 15.2432 43.0372 15.2432 44.3612 15.2432C45.1631 15.2432 45.5796 15.6659 45.5796 16.4491C45.5796 17.2262 45.5983 18.0032 45.5734 18.774C45.561 19.1035 45.6542 19.2278 45.9899 19.2962C48.7872 19.8494 51.2365 21.1113 53.3376 23.0384C54.413 24.0206 54.413 24.5179 53.4184 25.5746C52.3678 26.6811 51.3297 27.8001 50.2791 28.9066C49.6637 29.5593 49.241 29.5904 48.5448 29.0247C47.7491 28.372 46.9659 27.7006 46.0583 27.1971C44.5975 26.3828 43.0682 26.1403 41.4396 26.5568C41.0604 26.6563 40.6998 26.7993 40.3828 27.0293C39.3882 27.7503 39.2577 29.1304 40.1155 30.0131C40.6688 30.585 41.3712 30.9269 42.1047 31.1942C43.7272 31.7847 45.3683 32.3255 46.9907 32.9223C48.8059 33.5937 50.5775 34.3458 52.1254 35.5394C54.1892 37.1307 55.2833 39.2132 55.4262 41.824C55.6935 46.7287 52.8092 50.2533 49.0421 51.9442C48.0599 52.3855 47.0467 52.7212 45.9837 52.9139C45.6853 52.9698 45.561 53.0693 45.5734 53.3988C45.5983 54.2939 45.5858 55.1891 45.5796 56.0904C45.5796 56.8675 45.3061 57.1348 44.5415 57.1348C43.8328 57.1348 43.1242 57.1348 42.4093 57.1348H42.3969Z" fill="#62E257"/>
<path d="M76.3502 36.4967C76.3501 36.5497 76.3498 36.6027 76.3494 36.6556C76.2987 43.7675 74.088 50.7069 69.9847 56.5194C65.969 62.2073 60.1754 66.6519 53.6297 69.0328C47.0839 71.4136 39.2638 71.8053 32.2705 69.8285C25.5071 67.9201 19.4463 63.9168 14.9643 58.5086C10.4637 53.0756 7.7099 46.2376 7.1753 39.207C6.6407 32.1764 8.3191 24.779 12.0427 18.6062C15.6605 12.6199 21.0749 7.82096 27.4342 4.92416C33.9986 1.93413 41.5328 1.10736 48.5945 2.54954C55.6562 3.99172 61.8227 7.4542 66.6901 12.5143C71.5947 17.6178 74.8334 24.176 75.9337 31.1631C76.2134 32.9286 76.3316 34.7126 76.3378 36.4967C76.3378 36.5523 76.3418 36.6052 76.3494 36.6556C76.507 37.6939 78.2086 37.6409 78.2027 36.4967C78.1778 28.9626 75.8529 21.5092 71.4642 15.3675C67.0755 9.22584 61.1452 4.74389 54.214 2.20143C47.2828 -0.341035 39.0897 -0.70158 31.767 1.36845C24.4442 3.43847 18.2527 7.56609 13.5781 13.2478C8.90343 18.9295 5.90718 26.1901 5.31663 33.6807C4.72608 41.1714 6.52881 48.8671 10.4326 55.3321C14.3365 61.797 19.9125 66.7017 26.5888 69.729C33.5821 72.8931 41.4644 73.782 48.9923 72.2715C56.5202 70.7609 62.979 67.0747 68.0825 61.7286C73.1799 56.3951 76.6237 49.5261 77.7551 42.2219C78.0473 40.3259 78.2027 38.4175 78.2089 36.4967C78.2089 35.297 76.3502 35.297 76.344 36.4967H76.3502Z" fill="#A0ABBB"/>
<path d="M40.2897 0.000726177C37.1753 0.000726177 34.0858 -0.0365714 30.9901 0.423434C26.7319 1.0575 22.5857 2.47481 18.8186 4.56348C11.3466 8.70353 5.5033 15.4544 2.42002 23.4113C-0.768935 31.6417 -0.806233 41.0407 2.30813 49.2959C5.32303 57.2839 11.1104 64.0845 18.5451 68.2867C22.3184 70.4189 26.4833 71.8859 30.7725 72.5448C34.0237 73.0484 37.2748 72.9986 40.557 72.9986H41.707C42.9067 72.9986 42.9067 71.1338 41.707 71.1338C39.3199 71.1338 36.9204 71.2083 34.5396 71.0778C30.3747 70.854 26.2222 69.8656 22.4178 68.1561C14.9583 64.8056 8.84145 58.869 5.2733 51.5089C1.70515 44.1488 0.884598 35.0482 3.19084 26.9546C5.49709 18.861 10.5136 12.1722 17.3143 7.65298C20.7208 5.39025 24.4941 3.74293 28.4725 2.79806C31.9288 1.97751 35.3912 1.86561 38.9221 1.86561H40.2835C41.4832 1.86561 41.4832 0.000726177 40.2835 0.000726177H40.2897Z" fill="#A0ABBB"/>
<defs>
<filter id="filter0_n_3831_43079" x="7.07812" y="1.8584" width="69.2712" height="69.2363" filterUnits="userSpaceOnUse" color-interpolation-filters="sRGB">
<feFlood flood-opacity="0" result="BackgroundImageFix"/>
<feBlend mode="normal" in="SourceGraphic" in2="BackgroundImageFix" result="shape"/>
<feTurbulence type="fractalNoise" baseFrequency="0.83333331346511841 0.83333331346511841" stitchTiles="stitch" numOctaves="3" result="noise" seed="4461" />
<feColorMatrix in="noise" type="luminanceToAlpha" result="alphaNoise" />
<feComponentTransfer in="alphaNoise" result="coloredNoise1">
<feFuncA type="discrete" tableValues="1 1 1 1 1 1 1 1 1 1 1 1 1 1 1 1 1 1 1 1 1 1 1 1 1 1 1 1 1 1 1 1 1 1 1 1 1 1 1 1 1 1 1 1 1 1 1 1 1 1 1 0 0 0 0 0 0 0 0 0 0 0 0 0 0 0 0 0 0 0 0 0 0 0 0 0 0 0 0 0 0 0 0 0 0 0 0 0 0 0 0 0 0 0 0 0 0 0 0 0 "/>
</feComponentTransfer>
<feComposite operator="in" in2="shape" in="coloredNoise1" result="noise1Clipped" />
<feFlood flood-color="rgba(0, 0, 0, 0.29)" result="color1Flood" />
<feComposite operator="in" in2="noise1Clipped" in="color1Flood" result="color1" />
<feMerge result="effect1_noise_3831_43079">
<feMergeNode in="shape" />
<feMergeNode in="color1" />
</feMerge>
</filter>
<linearGradient id="paint0_linear_3831_43079" x1="34.5" y1="1.99976" x2="53.5" y2="70.9998" gradientUnits="userSpaceOnUse">
<stop stop-color="#3D9A33"/>
<stop offset="1" stop-color="#62E257"/>
</linearGradient>
</defs>
</svg>
