<svg width="16" height="16" viewBox="0 0 16 16" fill="none" xmlns="http://www.w3.org/2000/svg">
<rect width="15.8667" height="15.8667" rx="7.93333" fill="#F7F7F7"/>
<g clip-path="url(#clip0_6061_1732)">
<path d="M3.74148 2.64441H12.2095C12.2324 3.86896 12.2552 5.0936 12.2783 6.31815C12.1066 6.32666 11.9349 6.33347 11.7631 6.34072C11.7094 5.96759 11.6426 5.59553 11.542 5.23144C11.45 4.89727 11.3306 4.56785 11.1562 4.26538C11.0128 4.01648 10.8282 3.78727 10.5972 3.61029C10.3634 3.42937 10.0853 3.30747 9.79589 3.2402C9.59516 3.19247 9.38903 3.16909 9.18289 3.1604C9.03588 3.15521 8.88879 3.15709 8.74169 3.15664C8.7416 5.83118 8.7416 8.50572 8.74169 11.1803C8.74334 11.437 8.74389 11.6948 8.77695 11.9501C8.79944 12.1126 8.84003 12.2815 8.94994 12.4106C9.04387 12.5291 9.19244 12.5884 9.33669 12.6255C9.65264 12.7065 9.98192 12.6834 10.305 12.6873C10.3049 12.8655 10.3052 13.0439 10.3048 13.2222H5.59755C5.59664 13.0439 5.59737 12.8655 5.59719 12.6872C5.94739 12.6834 6.3077 12.7102 6.64587 12.6023C6.76001 12.5647 6.87359 12.5091 6.94916 12.4147C7.0643 12.2812 7.10498 12.105 7.12711 11.9362C7.16053 11.6646 7.15934 11.3905 7.16071 11.1174C7.16053 8.4638 7.16108 5.81013 7.16044 3.15646C6.93107 3.15942 6.7006 3.14759 6.47233 3.17527C6.09467 3.21781 5.72473 3.34204 5.40813 3.54903C5.07702 3.76291 4.809 4.06502 4.62912 4.40976C4.50672 4.64639 4.40801 4.89521 4.34199 5.15253C4.24099 5.54188 4.1949 5.94206 4.15394 6.34081C3.98867 6.33302 3.82348 6.32585 3.6582 6.31851C3.68575 5.09387 3.71403 3.86914 3.74148 2.64441Z" fill="#ED008C"/>
<path d="M3.52612 7.47135C4.24995 7.47135 4.97386 7.47126 5.69769 7.47135C5.69769 8.19191 5.69778 8.91247 5.6976 9.63295C4.97377 9.63304 4.24995 9.63295 3.52612 9.63304V7.47135Z" fill="#ED008C"/>
<path d="M10.1695 7.47135C10.8933 7.47126 11.6172 7.47135 12.341 7.47135V9.63304C11.6172 9.63295 10.8934 9.63304 10.1695 9.63295C10.1694 8.91247 10.1695 8.19191 10.1695 7.47135Z" fill="#ED008C"/>
</g>
<defs>
<clipPath id="clip0_6061_1732">
<rect width="10.5778" height="10.5778" fill="white" transform="translate(2.64453 2.64441)"/>
</clipPath>
</defs>
</svg>
