<svg width="27" height="27" viewBox="0 0 27 27" fill="none" xmlns="http://www.w3.org/2000/svg">
<path d="M13.0667 22.8667V13.0667" stroke="#111313" stroke-width="1.63333" stroke-linecap="round" stroke-linejoin="round"/>
<path d="M13.0666 7.62222H8.65656C5.64011 7.62222 5.45546 3.26666 8.65656 3.26666C12.0866 3.26666 13.0666 7.62222 13.0666 7.62222Z" stroke="#111313" stroke-width="1.63333" stroke-linecap="round" stroke-linejoin="round"/>
<path d="M13.0667 7.62222H17.4767C20.6299 7.62222 20.6299 3.26666 17.4767 3.26666C14.0467 3.26666 13.0667 7.62222 13.0667 7.62222Z" stroke="#111313" stroke-width="1.63333" stroke-linecap="round" stroke-linejoin="round"/>
<path d="M21.7777 13.0666V20.6889C21.7777 21.8916 20.8027 22.8666 19.5999 22.8666H6.53327C5.33052 22.8666 4.35549 21.8916 4.35549 20.6889V13.0666M22.8666 13.0666V9.79997C22.8666 8.59722 21.8916 7.62219 20.6888 7.62219H5.44438C4.24163 7.62219 3.2666 8.59722 3.2666 9.79997V13.0666H22.8666Z" stroke="#111313" stroke-width="1.63333" stroke-linecap="round" stroke-linejoin="round"/>
</svg>
