<svg width="328" height="64" viewBox="0 0 328 64" fill="none" xmlns="http://www.w3.org/2000/svg">
<rect width="328" height="64" rx="16" fill="white"/>
<rect x="15.5" y="15.5" width="33" height="33" rx="16.5" fill="#F7F7F7"/>
<rect x="15.5" y="15.5" width="33" height="33" rx="16.5" stroke="white"/>
<path d="M39.3689 36.2872C39.0916 36.9277 38.7634 37.5173 38.3832 38.0594C37.8649 38.7984 37.4405 39.3099 37.1135 39.5939C36.6065 40.0602 36.0633 40.2989 35.4816 40.3125C35.0641 40.3125 34.5605 40.1937 33.9743 39.9527C33.3862 39.7127 32.8457 39.5939 32.3515 39.5939C31.8332 39.5939 31.2773 39.7127 30.6828 39.9527C30.0873 40.1937 29.6076 40.3193 29.2408 40.3318C28.683 40.3555 28.127 40.11 27.5721 39.5939C27.2179 39.285 26.7748 38.7554 26.2441 38.0051C25.6746 37.2039 25.2065 36.2748 24.8397 35.2156C24.4469 34.0715 24.25 32.9636 24.25 31.891C24.25 30.6624 24.5155 29.6027 25.0472 28.7147C25.4652 28.0014 26.0211 27.4387 26.717 27.0257C27.4129 26.6126 28.1647 26.4021 28.9744 26.3887C29.4175 26.3887 29.9984 26.5257 30.7204 26.795C31.4404 27.0653 31.9027 27.2023 32.1054 27.2023C32.2569 27.2023 32.7704 27.0421 33.641 26.7226C34.4643 26.4263 35.1591 26.3037 35.7283 26.352C37.2708 26.4765 38.4296 27.0845 39.2002 28.18C37.8208 29.0158 37.1384 30.1865 37.152 31.6883C37.1644 32.8581 37.5888 33.8315 38.4228 34.6045C38.8008 34.9632 39.2229 35.2405 39.6925 35.4374C39.5907 35.7327 39.4832 36.0156 39.3689 36.2872ZM35.8313 22.3668C35.8313 23.2836 35.4963 24.1397 34.8287 24.9321C34.0229 25.8741 33.0484 26.4184 31.9915 26.3325C31.978 26.2225 31.9702 26.1068 31.9702 25.9851C31.9702 25.1049 32.3534 24.1629 33.0339 23.3927C33.3736 23.0028 33.8057 22.6785 34.3296 22.4198C34.8524 22.165 35.347 22.0241 35.8121 22C35.8257 22.1226 35.8313 22.2452 35.8313 22.3668V22.3668Z" fill="black"/>
<path d="M57.9787 29H56.348L60.0121 18.8182H61.7869L65.451 29H63.8203L60.9418 20.6676H60.8622L57.9787 29ZM58.2521 25.0128H63.5419V26.3054H58.2521V25.0128ZM66.802 31.8636V21.3636H68.2537V22.6016H68.378C68.4642 22.4425 68.5885 22.2585 68.7509 22.0497C68.9133 21.8409 69.1387 21.6586 69.427 21.5028C69.7154 21.3438 70.0965 21.2642 70.5705 21.2642C71.187 21.2642 71.7372 21.42 72.2211 21.7315C72.705 22.0431 73.0845 22.4922 73.3596 23.0788C73.638 23.6655 73.7772 24.3714 73.7772 25.1967C73.7772 26.022 73.6396 26.7296 73.3645 27.3196C73.0894 27.9062 72.7116 28.3587 72.231 28.6768C71.7504 28.9917 71.2019 29.1491 70.5854 29.1491C70.1214 29.1491 69.7419 29.0713 69.4469 28.9155C69.1552 28.7597 68.9266 28.5774 68.7608 28.3686C68.5951 28.1598 68.4675 27.9742 68.378 27.8118H68.2885V31.8636H66.802ZM68.2587 25.1818C68.2587 25.7187 68.3366 26.1894 68.4924 26.5938C68.6481 26.9981 68.8735 27.3146 69.1685 27.5433C69.4635 27.7687 69.8248 27.8814 70.2523 27.8814C70.6964 27.8814 71.0676 27.7637 71.3659 27.5284C71.6642 27.2898 71.8896 26.9666 72.0421 26.5589C72.1979 26.1513 72.2757 25.6922 72.2757 25.1818C72.2757 24.678 72.1995 24.2256 72.0471 23.8246C71.8979 23.4235 71.6725 23.107 71.3709 22.875C71.0726 22.643 70.6998 22.527 70.2523 22.527C69.8214 22.527 69.4569 22.638 69.1586 22.8601C68.8636 23.0821 68.6399 23.392 68.4874 23.7898C68.3349 24.1875 68.2587 24.6515 68.2587 25.1818ZM75.4426 31.8636V21.3636H76.8944V22.6016H77.0186C77.1048 22.4425 77.2291 22.2585 77.3915 22.0497C77.5539 21.8409 77.7793 21.6586 78.0676 21.5028C78.356 21.3438 78.7372 21.2642 79.2111 21.2642C79.8276 21.2642 80.3778 21.42 80.8617 21.7315C81.3456 22.0431 81.7251 22.4922 82.0002 23.0788C82.2786 23.6655 82.4178 24.3714 82.4178 25.1967C82.4178 26.022 82.2802 26.7296 82.0051 27.3196C81.7301 27.9062 81.3522 28.3587 80.8716 28.6768C80.391 28.9917 79.8425 29.1491 79.226 29.1491C78.762 29.1491 78.3825 29.0713 78.0875 28.9155C77.7959 28.7597 77.5672 28.5774 77.4015 28.3686C77.2357 28.1598 77.1081 27.9742 77.0186 27.8118H76.9292V31.8636H75.4426ZM76.8993 25.1818C76.8993 25.7187 76.9772 26.1894 77.133 26.5938C77.2888 26.9981 77.5141 27.3146 77.8091 27.5433C78.1041 27.7687 78.4654 27.8814 78.8929 27.8814C79.3371 27.8814 79.7083 27.7637 80.0066 27.5284C80.3049 27.2898 80.5302 26.9666 80.6827 26.5589C80.8385 26.1513 80.9164 25.6922 80.9164 25.1818C80.9164 24.678 80.8401 24.2256 80.6877 23.8246C80.5385 23.4235 80.3132 23.107 80.0115 22.875C79.7132 22.643 79.3404 22.527 78.8929 22.527C78.4621 22.527 78.0975 22.638 77.7992 22.8601C77.5042 23.0821 77.2805 23.392 77.128 23.7898C76.9756 24.1875 76.8993 24.6515 76.8993 25.1818ZM85.5698 18.8182V29H84.0833V18.8182H85.5698ZM90.8608 29.1541C90.1084 29.1541 89.4605 28.9934 88.9169 28.6719C88.3767 28.3471 87.959 27.8913 87.6641 27.3047C87.3724 26.7147 87.2266 26.0237 87.2266 25.2315C87.2266 24.4493 87.3724 23.7599 87.6641 23.1634C87.959 22.5668 88.37 22.1011 88.897 21.7663C89.4273 21.4316 90.0471 21.2642 90.7564 21.2642C91.1873 21.2642 91.6049 21.3355 92.0092 21.478C92.4136 21.6205 92.7765 21.8442 93.098 22.1491C93.4195 22.4541 93.6731 22.8501 93.8587 23.3374C94.0443 23.8213 94.1371 24.4096 94.1371 25.1023V25.6293H88.0668V24.5156H92.6804C92.6804 24.1245 92.6009 23.7782 92.4418 23.4766C92.2827 23.1716 92.0589 22.9313 91.7706 22.7557C91.4856 22.58 91.1508 22.4922 90.7663 22.4922C90.3487 22.4922 89.9841 22.5949 89.6726 22.8004C89.3643 23.0026 89.1257 23.2678 88.9567 23.5959C88.791 23.9207 88.7081 24.2737 88.7081 24.6548V25.5249C88.7081 26.0353 88.7976 26.4695 88.9766 26.8274C89.1589 27.1854 89.4124 27.4588 89.7372 27.6477C90.062 27.8333 90.4415 27.9261 90.8757 27.9261C91.1574 27.9261 91.4143 27.8864 91.6463 27.8068C91.8783 27.724 92.0788 27.6013 92.2479 27.4389C92.4169 27.2765 92.5462 27.076 92.6357 26.8374L94.0426 27.0909C93.9299 27.5052 93.7277 27.8681 93.4361 28.1797C93.1477 28.4879 92.7848 28.7282 92.3473 28.9006C91.9131 29.0696 91.4176 29.1541 90.8608 29.1541Z" fill="#111313"/>
<path d="M59.8778 48.1449C59.2045 48.142 58.6293 47.9645 58.152 47.6122C57.6747 47.2599 57.3097 46.7472 57.0568 46.0739C56.804 45.4006 56.6776 44.5895 56.6776 43.6406C56.6776 42.6946 56.804 41.8864 57.0568 41.2159C57.3125 40.5455 57.679 40.0341 58.1562 39.6818C58.6364 39.3295 59.2102 39.1534 59.8778 39.1534C60.5455 39.1534 61.1179 39.331 61.5952 39.6861C62.0724 40.0384 62.4375 40.5497 62.6903 41.2202C62.946 41.8878 63.0739 42.6946 63.0739 43.6406C63.0739 44.5923 62.9474 45.4048 62.6946 46.0781C62.4418 46.7486 62.0767 47.2614 61.5994 47.6165C61.1222 47.9688 60.5483 48.1449 59.8778 48.1449ZM59.8778 47.0071C60.4688 47.0071 60.9304 46.7188 61.2628 46.142C61.598 45.5653 61.7656 44.7315 61.7656 43.6406C61.7656 42.9162 61.6889 42.304 61.5355 41.804C61.3849 41.3011 61.1676 40.9205 60.8835 40.6619C60.6023 40.4006 60.267 40.2699 59.8778 40.2699C59.2898 40.2699 58.8281 40.5597 58.4929 41.1392C58.1577 41.7187 57.9886 42.5526 57.9858 43.6406C57.9858 44.3679 58.0611 44.983 58.2116 45.4858C58.3651 45.9858 58.5824 46.3651 58.8636 46.6236C59.1449 46.8793 59.483 47.0071 59.8778 47.0071ZM65.1257 48.081C64.8928 48.081 64.6925 47.9986 64.5249 47.8338C64.3572 47.6662 64.2734 47.4645 64.2734 47.2287C64.2734 46.9957 64.3572 46.7969 64.5249 46.6321C64.6925 46.4645 64.8928 46.3807 65.1257 46.3807C65.3587 46.3807 65.5589 46.4645 65.7266 46.6321C65.8942 46.7969 65.978 46.9957 65.978 47.2287C65.978 47.3849 65.9382 47.5284 65.8587 47.6591C65.782 47.7869 65.6797 47.8892 65.5518 47.9659C65.424 48.0426 65.282 48.081 65.1257 48.081ZM70.3896 48.1449C69.7163 48.142 69.141 47.9645 68.6637 47.6122C68.1864 47.2599 67.8214 46.7472 67.5685 46.0739C67.3157 45.4006 67.1893 44.5895 67.1893 43.6406C67.1893 42.6946 67.3157 41.8864 67.5685 41.2159C67.8242 40.5455 68.1907 40.0341 68.668 39.6818C69.1481 39.3295 69.7219 39.1534 70.3896 39.1534C71.0572 39.1534 71.6296 39.331 72.1069 39.6861C72.5842 40.0384 72.9492 40.5497 73.2021 41.2202C73.4577 41.8878 73.5856 42.6946 73.5856 43.6406C73.5856 44.5923 73.4592 45.4048 73.2063 46.0781C72.9535 46.7486 72.5884 47.2614 72.1112 47.6165C71.6339 47.9688 71.06 48.1449 70.3896 48.1449ZM70.3896 47.0071C70.9805 47.0071 71.4421 46.7188 71.7745 46.142C72.1097 45.5653 72.2773 44.7315 72.2773 43.6406C72.2773 42.9162 72.2006 42.304 72.0472 41.804C71.8967 41.3011 71.6793 40.9205 71.3952 40.6619C71.114 40.4006 70.7788 40.2699 70.3896 40.2699C69.8015 40.2699 69.3398 40.5597 69.0046 41.1392C68.6694 41.7187 68.5004 42.5526 68.4975 43.6406C68.4975 44.3679 68.5728 44.983 68.7234 45.4858C68.8768 45.9858 69.0941 46.3651 69.3754 46.6236C69.6566 46.8793 69.9947 47.0071 70.3896 47.0071ZM75.0973 48V47.0455L78.0504 43.9858C78.3658 43.6534 78.6257 43.3622 78.8303 43.1122C79.0376 42.8594 79.1925 42.6193 79.2947 42.392C79.397 42.1648 79.4482 41.9233 79.4482 41.6676C79.4482 41.3778 79.38 41.1278 79.2436 40.9176C79.1072 40.7045 78.9212 40.5412 78.6854 40.4276C78.4496 40.3111 78.1839 40.2528 77.8885 40.2528C77.576 40.2528 77.3033 40.3168 77.0703 40.4446C76.8374 40.5724 76.6584 40.7528 76.5334 40.9858C76.4084 41.2187 76.3459 41.4915 76.3459 41.804H75.0888C75.0888 41.2727 75.2109 40.8082 75.4553 40.4105C75.6996 40.0128 76.0348 39.7045 76.4609 39.4858C76.8871 39.2642 77.3714 39.1534 77.9141 39.1534C78.4624 39.1534 78.9453 39.2628 79.3629 39.4815C79.7834 39.6974 80.1115 39.9929 80.3473 40.3679C80.5831 40.7401 80.701 41.1605 80.701 41.6293C80.701 41.9531 80.6399 42.2699 80.5178 42.5795C80.3984 42.8892 80.1896 43.2344 79.8913 43.6151C79.593 43.9929 79.1783 44.4517 78.647 44.9915L76.9126 46.8068V46.8707H80.8416V48H75.0973ZM90.5543 43.0526L89.3995 43.2571C89.3512 43.1094 89.2745 42.9687 89.1694 42.8352C89.0671 42.7017 88.9279 42.5923 88.7518 42.5071C88.5756 42.4219 88.3555 42.3793 88.0913 42.3793C87.7305 42.3793 87.4293 42.4602 87.1879 42.6222C86.9464 42.7812 86.8256 42.9872 86.8256 43.2401C86.8256 43.4588 86.9066 43.6349 87.0685 43.7685C87.2305 43.902 87.4918 44.0114 87.8526 44.0966L88.8924 44.3352C89.4947 44.4744 89.9435 44.6889 90.239 44.9787C90.5344 45.2685 90.6822 45.6449 90.6822 46.108C90.6822 46.5 90.5685 46.8494 90.3413 47.1562C90.1168 47.4602 89.8029 47.6989 89.3995 47.8722C88.9989 48.0455 88.5344 48.1321 88.006 48.1321C87.2731 48.1321 86.6751 47.9759 86.212 47.6634C85.7489 47.348 85.4648 46.9006 85.3597 46.321L86.5913 46.1335C86.668 46.4545 86.8256 46.6974 87.0643 46.8622C87.3029 47.0241 87.614 47.1051 87.9975 47.1051C88.4151 47.1051 88.7489 47.0185 88.9989 46.8452C89.2489 46.669 89.3739 46.4545 89.3739 46.2017C89.3739 45.9972 89.2972 45.8253 89.1438 45.6861C88.9933 45.5469 88.7617 45.4418 88.4492 45.3707L87.3413 45.1278C86.7305 44.9886 86.2788 44.767 85.9862 44.4631C85.6964 44.1591 85.5515 43.7741 85.5515 43.3082C85.5515 42.9219 85.6594 42.5838 85.8754 42.294C86.0913 42.0043 86.3896 41.7784 86.7702 41.6165C87.1509 41.4517 87.587 41.3693 88.0785 41.3693C88.7859 41.3693 89.3427 41.5227 89.7489 41.8295C90.1552 42.1335 90.4237 42.5412 90.5543 43.0526ZM93.3572 44.1136V48H92.0831V39.2727H93.3402V42.5199H93.4212C93.5746 42.1676 93.8089 41.8878 94.1243 41.6804C94.4396 41.473 94.8516 41.3693 95.3601 41.3693C95.8089 41.3693 96.201 41.4616 96.5362 41.6463C96.8743 41.831 97.1357 42.1065 97.3203 42.473C97.5078 42.8366 97.6016 43.2912 97.6016 43.8366V48H96.3274V43.9901C96.3274 43.5099 96.2038 43.1378 95.9567 42.8736C95.7095 42.6065 95.3658 42.473 94.9254 42.473C94.6243 42.473 94.3544 42.5369 94.1158 42.6648C93.88 42.7926 93.6939 42.9801 93.5575 43.2273C93.424 43.4716 93.3572 43.767 93.3572 44.1136ZM101.207 48.1449C100.792 48.1449 100.417 48.0682 100.082 47.9148C99.7464 47.7585 99.4808 47.5327 99.2848 47.2372C99.0916 46.9418 98.995 46.5795 98.995 46.1506C98.995 45.7812 99.0661 45.4773 99.2081 45.2386C99.3501 45 99.5419 44.8111 99.7834 44.6719C100.025 44.5327 100.295 44.4276 100.593 44.3565C100.891 44.2855 101.195 44.2315 101.505 44.1946C101.897 44.1491 102.215 44.1122 102.46 44.0838C102.704 44.0526 102.881 44.0028 102.992 43.9347C103.103 43.8665 103.158 43.7557 103.158 43.6023V43.5724C103.158 43.2003 103.053 42.9119 102.843 42.7074C102.636 42.5028 102.326 42.4006 101.914 42.4006C101.485 42.4006 101.147 42.4957 100.9 42.6861C100.656 42.8736 100.487 43.0824 100.393 43.3125L99.1953 43.0398C99.3374 42.642 99.5447 42.321 99.8175 42.0767C100.093 41.8295 100.41 41.6506 100.768 41.5398C101.126 41.4261 101.502 41.3693 101.897 41.3693C102.158 41.3693 102.435 41.4006 102.728 41.4631C103.023 41.5227 103.299 41.6335 103.555 41.7955C103.813 41.9574 104.025 42.1889 104.19 42.4901C104.354 42.7884 104.437 43.1761 104.437 43.6534V48H103.192V47.1051H103.141C103.059 47.2699 102.935 47.4318 102.771 47.5909C102.606 47.75 102.394 47.8821 102.136 47.9872C101.877 48.0923 101.567 48.1449 101.207 48.1449ZM101.484 47.1222C101.836 47.1222 102.137 47.0526 102.387 46.9134C102.64 46.7741 102.832 46.5923 102.962 46.3679C103.096 46.1406 103.163 45.8977 103.163 45.6392V44.7955C103.117 44.8409 103.029 44.8835 102.898 44.9233C102.771 44.9602 102.624 44.9929 102.46 45.0213C102.295 45.0469 102.134 45.071 101.978 45.0938C101.822 45.1136 101.691 45.1307 101.586 45.1449C101.339 45.1761 101.113 45.2287 100.908 45.3026C100.707 45.3764 100.545 45.483 100.423 45.6222C100.303 45.7585 100.244 45.9403 100.244 46.1676C100.244 46.483 100.36 46.7216 100.593 46.8835C100.826 47.0426 101.123 47.1222 101.484 47.1222ZM106.134 48V41.4545H107.365V42.4943H107.434C107.553 42.142 107.763 41.8651 108.064 41.6634C108.368 41.4588 108.712 41.3565 109.096 41.3565C109.175 41.3565 109.269 41.3594 109.377 41.3651C109.488 41.3707 109.574 41.3778 109.637 41.3864V42.6051C109.586 42.5909 109.495 42.5753 109.364 42.5582C109.233 42.5384 109.103 42.5284 108.972 42.5284C108.671 42.5284 108.402 42.5923 108.167 42.7202C107.934 42.8452 107.749 43.0199 107.613 43.2443C107.476 43.4659 107.408 43.7187 107.408 44.0028V48H106.134ZM113.326 48.1321C112.681 48.1321 112.126 47.9943 111.66 47.7188C111.197 47.4403 110.839 47.0497 110.586 46.5469C110.336 46.0412 110.211 45.4489 110.211 44.7699C110.211 44.0994 110.336 43.5085 110.586 42.9972C110.839 42.4858 111.191 42.0866 111.643 41.7997C112.097 41.5128 112.629 41.3693 113.237 41.3693C113.606 41.3693 113.964 41.4304 114.31 41.5526C114.657 41.6747 114.968 41.8665 115.244 42.1278C115.519 42.3892 115.737 42.7287 115.896 43.1463C116.055 43.5611 116.134 44.0653 116.134 44.6591V45.1108H110.931V44.1562H114.886C114.886 43.821 114.817 43.5241 114.681 43.2656C114.545 43.0043 114.353 42.7983 114.106 42.6477C113.862 42.4972 113.575 42.4219 113.245 42.4219C112.887 42.4219 112.575 42.5099 112.308 42.6861C112.043 42.8594 111.839 43.0866 111.694 43.3679C111.552 43.6463 111.481 43.9489 111.481 44.2756V45.0213C111.481 45.4588 111.558 45.831 111.711 46.1378C111.867 46.4446 112.085 46.679 112.363 46.8409C112.641 47 112.967 47.0795 113.339 47.0795C113.58 47.0795 113.8 47.0455 113.999 46.9773C114.198 46.9062 114.37 46.8011 114.515 46.6619C114.66 46.5227 114.771 46.3509 114.847 46.1463L116.053 46.3636C115.957 46.7187 115.783 47.0298 115.533 47.2969C115.286 47.5611 114.975 47.767 114.6 47.9148C114.228 48.0597 113.803 48.1321 113.326 48.1321ZM122.453 43.0526L121.298 43.2571C121.25 43.1094 121.173 42.9687 121.068 42.8352C120.966 42.7017 120.826 42.5923 120.65 42.5071C120.474 42.4219 120.254 42.3793 119.99 42.3793C119.629 42.3793 119.328 42.4602 119.086 42.6222C118.845 42.7812 118.724 42.9872 118.724 43.2401C118.724 43.4588 118.805 43.6349 118.967 43.7685C119.129 43.902 119.39 44.0114 119.751 44.0966L120.791 44.3352C121.393 44.4744 121.842 44.6889 122.137 44.9787C122.433 45.2685 122.581 45.6449 122.581 46.108C122.581 46.5 122.467 46.8494 122.24 47.1562C122.015 47.4602 121.701 47.6989 121.298 47.8722C120.897 48.0455 120.433 48.1321 119.904 48.1321C119.172 48.1321 118.574 47.9759 118.11 47.6634C117.647 47.348 117.363 46.9006 117.258 46.321L118.49 46.1335C118.566 46.4545 118.724 46.6974 118.963 46.8622C119.201 47.0241 119.512 47.1051 119.896 47.1051C120.314 47.1051 120.647 47.0185 120.897 46.8452C121.147 46.669 121.272 46.4545 121.272 46.2017C121.272 45.9972 121.196 45.8253 121.042 45.6861C120.892 45.5469 120.66 45.4418 120.348 45.3707L119.24 45.1278C118.629 44.9886 118.177 44.767 117.885 44.4631C117.595 44.1591 117.45 43.7741 117.45 43.3082C117.45 42.9219 117.558 42.5838 117.774 42.294C117.99 42.0043 118.288 41.7784 118.669 41.6165C119.049 41.4517 119.485 41.3693 119.977 41.3693C120.684 41.3693 121.241 41.5227 121.647 41.8295C122.054 42.1335 122.322 42.5412 122.453 43.0526Z" fill="#A0ABBB"/>
<path d="M280.493 30.2727V17.5455H281.308V30.2727H280.493ZM283.043 21.4929C282.99 21.0223 282.771 20.6577 282.387 20.3991C282.002 20.1373 281.518 20.0064 280.935 20.0064C280.517 20.0064 280.156 20.0727 279.851 20.2053C279.546 20.3345 279.309 20.5135 279.14 20.7422C278.975 20.9676 278.892 21.2244 278.892 21.5128C278.892 21.7547 278.948 21.9635 279.061 22.1392C279.177 22.3149 279.328 22.4624 279.513 22.5817C279.702 22.6977 279.904 22.7955 280.12 22.875C280.335 22.9512 280.542 23.0142 280.741 23.0639L281.735 23.3224C282.06 23.402 282.393 23.5097 282.735 23.6456C283.076 23.7815 283.393 23.9605 283.684 24.1825C283.976 24.4046 284.211 24.6797 284.39 25.0078C284.573 25.3359 284.664 25.7287 284.664 26.1861C284.664 26.7628 284.515 27.2749 284.216 27.7223C283.921 28.1697 283.492 28.5227 282.929 28.7812C282.368 29.0398 281.691 29.169 280.895 29.169C280.133 29.169 279.473 29.0481 278.917 28.8061C278.36 28.5642 277.924 28.2211 277.609 27.777C277.294 27.3295 277.12 26.7992 277.087 26.1861H278.628C278.658 26.554 278.777 26.8606 278.986 27.1058C279.198 27.3478 279.468 27.5284 279.797 27.6477C280.128 27.7637 280.491 27.8217 280.885 27.8217C281.319 27.8217 281.706 27.7538 282.044 27.6179C282.385 27.4787 282.654 27.2865 282.849 27.0412C283.045 26.7926 283.142 26.5026 283.142 26.1712C283.142 25.8696 283.056 25.6226 282.884 25.4304C282.715 25.2382 282.484 25.0791 282.193 24.9531C281.904 24.8272 281.578 24.7161 281.213 24.62L280.01 24.2919C279.195 24.0698 278.549 23.7434 278.071 23.3125C277.597 22.8816 277.36 22.3116 277.36 21.6023C277.36 21.0156 277.52 20.5036 277.838 20.0661C278.156 19.6286 278.587 19.2888 279.13 19.0469C279.674 18.8016 280.287 18.679 280.97 18.679C281.659 18.679 282.267 18.8 282.794 19.0419C283.325 19.2839 283.742 19.617 284.047 20.0412C284.352 20.4621 284.511 20.946 284.525 21.4929H283.043ZM286.36 29V27.8864L289.806 24.3168C290.173 23.929 290.477 23.5893 290.715 23.2976C290.957 23.0026 291.138 22.7225 291.257 22.4574C291.377 22.1922 291.436 21.9105 291.436 21.6122C291.436 21.2741 291.357 20.9825 291.198 20.7372C291.039 20.4886 290.821 20.2981 290.546 20.1655C290.271 20.0296 289.961 19.9616 289.617 19.9616C289.252 19.9616 288.934 20.0362 288.662 20.1854C288.39 20.3345 288.182 20.545 288.036 20.8168C287.89 21.0885 287.817 21.4067 287.817 21.7713H286.35C286.35 21.1515 286.493 20.6096 286.778 20.1456C287.063 19.6816 287.454 19.322 287.951 19.0668C288.448 18.8082 289.013 18.679 289.646 18.679C290.286 18.679 290.85 18.8066 291.337 19.0618C291.827 19.3137 292.21 19.6584 292.485 20.0959C292.76 20.5301 292.898 21.0206 292.898 21.5675C292.898 21.9453 292.827 22.3149 292.684 22.6761C292.545 23.0374 292.301 23.4401 291.953 23.8842C291.605 24.325 291.121 24.8603 290.502 25.4901L288.478 27.608V27.6825H293.062V29H286.36ZM295.945 29.0945C295.674 29.0945 295.44 28.9983 295.244 28.8061C295.049 28.6106 294.951 28.3752 294.951 28.1001C294.951 27.8284 295.049 27.5964 295.244 27.4041C295.44 27.2086 295.674 27.1108 295.945 27.1108C296.217 27.1108 296.451 27.2086 296.646 27.4041C296.842 27.5964 296.94 27.8284 296.94 28.1001C296.94 28.2824 296.893 28.4498 296.801 28.6023C296.711 28.7514 296.592 28.8707 296.443 28.9602C296.294 29.0497 296.128 29.0945 295.945 29.0945ZM301.544 18.8182V29H300.002V20.3594H299.943L297.507 21.9503V20.4787L300.047 18.8182H301.544ZM307.659 29.1392C307.035 29.1392 306.475 29.0199 305.978 28.7812C305.484 28.5393 305.09 28.2079 304.795 27.7869C304.5 27.366 304.343 26.8854 304.323 26.3452H305.814C305.851 26.7827 306.044 27.1423 306.396 27.424C306.747 27.7057 307.168 27.8466 307.659 27.8466C308.05 27.8466 308.396 27.7571 308.698 27.5781C309.003 27.3958 309.241 27.1456 309.414 26.8274C309.589 26.5092 309.677 26.1463 309.677 25.7386C309.677 25.3243 309.588 24.9548 309.409 24.63C309.23 24.3052 308.983 24.05 308.668 23.8643C308.356 23.6787 307.998 23.5843 307.594 23.581C307.286 23.581 306.976 23.634 306.664 23.7401C306.353 23.8461 306.101 23.9853 305.909 24.1577L304.502 23.9489L305.073 18.8182H310.671V20.1357H306.351L306.028 22.9844H306.088C306.286 22.7921 306.55 22.6314 306.878 22.5021C307.209 22.3729 307.564 22.3082 307.942 22.3082C308.562 22.3082 309.114 22.4557 309.597 22.7507C310.085 23.0457 310.468 23.4484 310.746 23.9588C311.028 24.4659 311.167 25.0492 311.164 25.7088C311.167 26.3684 311.018 26.9567 310.716 27.4737C310.418 27.9908 310.003 28.3984 309.473 28.6967C308.946 28.9917 308.341 29.1392 307.659 29.1392Z" fill="#111313"/>
<path d="M285.679 48H282.853V39.2727H285.768C286.623 39.2727 287.358 39.4474 287.971 39.7969C288.585 40.1435 289.055 40.642 289.382 41.2926C289.711 41.9403 289.876 42.7173 289.876 43.6236C289.876 44.5327 289.71 45.3139 289.377 45.9673C289.048 46.6207 288.571 47.1236 287.946 47.4759C287.321 47.8253 286.565 48 285.679 48ZM284.17 46.8494H285.606C286.271 46.8494 286.824 46.7244 287.264 46.4744C287.704 46.2216 288.034 45.8565 288.252 45.3793C288.471 44.8991 288.581 44.3139 288.581 43.6236C288.581 42.9389 288.471 42.358 288.252 41.8807C288.037 41.4034 287.714 41.0412 287.285 40.794C286.856 40.5469 286.324 40.4233 285.687 40.4233H284.17V46.8494ZM294.168 48.1321C293.555 48.1321 293.019 47.9915 292.562 47.7102C292.104 47.429 291.749 47.0355 291.496 46.5298C291.244 46.0241 291.117 45.4332 291.117 44.7571C291.117 44.0781 291.244 43.4844 291.496 42.9759C291.749 42.4673 292.104 42.0724 292.562 41.7912C293.019 41.5099 293.555 41.3693 294.168 41.3693C294.782 41.3693 295.317 41.5099 295.775 41.7912C296.232 42.0724 296.587 42.4673 296.84 42.9759C297.093 43.4844 297.219 44.0781 297.219 44.7571C297.219 45.4332 297.093 46.0241 296.84 46.5298C296.587 47.0355 296.232 47.429 295.775 47.7102C295.317 47.9915 294.782 48.1321 294.168 48.1321ZM294.173 47.0625C294.57 47.0625 294.9 46.9574 295.161 46.7472C295.423 46.5369 295.616 46.2571 295.741 45.9077C295.869 45.5582 295.933 45.1733 295.933 44.7528C295.933 44.3352 295.869 43.9517 295.741 43.6023C295.616 43.25 295.423 42.9673 295.161 42.7543C294.9 42.5412 294.57 42.4347 294.173 42.4347C293.772 42.4347 293.44 42.5412 293.175 42.7543C292.914 42.9673 292.719 43.25 292.592 43.6023C292.467 43.9517 292.404 44.3352 292.404 44.7528C292.404 45.1733 292.467 45.5582 292.592 45.9077C292.719 46.2571 292.914 46.5369 293.175 46.7472C293.44 46.9574 293.772 47.0625 294.173 47.0625ZM299.916 44.1136V48H298.642V41.4545H299.865V42.5199H299.946C300.096 42.1733 300.332 41.8949 300.653 41.6847C300.977 41.4744 301.385 41.3693 301.876 41.3693C302.322 41.3693 302.713 41.4631 303.048 41.6506C303.383 41.8352 303.643 42.1108 303.828 42.4773C304.012 42.8437 304.105 43.2969 304.105 43.8366V48H302.831V43.9901C302.831 43.5156 302.707 43.1449 302.46 42.8778C302.213 42.608 301.873 42.473 301.441 42.473C301.146 42.473 300.883 42.5369 300.653 42.6648C300.426 42.7926 300.245 42.9801 300.112 43.2273C299.981 43.4716 299.916 43.767 299.916 44.1136ZM308.635 48.1321C307.99 48.1321 307.434 47.9943 306.968 47.7188C306.505 47.4403 306.147 47.0497 305.895 46.5469C305.645 46.0412 305.52 45.4489 305.52 44.7699C305.52 44.0994 305.645 43.5085 305.895 42.9972C306.147 42.4858 306.5 42.0866 306.951 41.7997C307.406 41.5128 307.937 41.3693 308.545 41.3693C308.914 41.3693 309.272 41.4304 309.619 41.5526C309.966 41.6747 310.277 41.8665 310.552 42.1278C310.828 42.3892 311.045 42.7287 311.204 43.1463C311.363 43.5611 311.443 44.0653 311.443 44.6591V45.1108H306.24V44.1562H310.194C310.194 43.821 310.126 43.5241 309.99 43.2656C309.853 43.0043 309.662 42.7983 309.414 42.6477C309.17 42.4972 308.883 42.4219 308.554 42.4219C308.196 42.4219 307.883 42.5099 307.616 42.6861C307.352 42.8594 307.147 43.0866 307.002 43.3679C306.86 43.6463 306.789 43.9489 306.789 44.2756V45.0213C306.789 45.4588 306.866 45.831 307.02 46.1378C307.176 46.4446 307.393 46.679 307.672 46.8409C307.95 47 308.275 47.0795 308.647 47.0795C308.889 47.0795 309.109 47.0455 309.308 46.9773C309.507 46.9062 309.679 46.8011 309.824 46.6619C309.968 46.5227 310.079 46.3509 310.156 46.1463L311.362 46.3636C311.265 46.7187 311.092 47.0298 310.842 47.2969C310.595 47.5611 310.284 47.767 309.909 47.9148C309.537 48.0597 309.112 48.1321 308.635 48.1321Z" fill="#A0ABBB"/>
</svg>
