<svg width="328" height="64" viewBox="0 0 328 64" fill="none" xmlns="http://www.w3.org/2000/svg">
<rect width="328" height="64" rx="16" fill="white"/>
<rect x="15.3333" y="15.3333" width="33.3333" height="33.3333" rx="16.6667" fill="#F7F7F7"/>
<rect x="15.3333" y="15.3333" width="33.3333" height="33.3333" rx="16.6667" stroke="white" stroke-width="1.33333"/>
<g clip-path="url(#clip0_4771_4896)">
<path d="M41.9999 32C41.9999 37.5229 37.5228 42 32 42C26.4772 42 22 37.5229 22 32C22 26.4772 26.4772 22 32 22C37.5228 22 41.9999 26.4772 41.9999 32Z" fill="white"/>
<path d="M31.9164 25.5551C32.2685 25.7569 32.6419 26.0167 32.9261 26.292L32.8145 26.4037C32.2535 26.3444 31.6628 26.4184 31.131 26.4266C31.0717 26.367 30.9523 26.2775 31.0635 26.2027L31.9164 25.5551ZM41.8347 32.4873C41.8422 32.7392 41.866 32.9555 41.7672 33.2133C40.7424 33.5033 40.0693 32.4238 39.075 32.5866L39.1874 33.1462C40.1073 33.1763 40.6818 34.0539 41.6322 34.0161C41.4972 34.2844 41.6924 34.9912 41.0943 34.7087C40.4734 34.5603 40.0244 34.0161 39.3441 34.0161C39.262 34.1661 39.3139 34.3737 39.2995 34.5511C40.0173 34.6631 40.5335 35.2667 41.2511 35.3781C41.1836 35.6235 41.1167 35.8982 40.9146 36.0478C40.3308 35.9065 39.8749 35.3849 39.2534 35.3998L39.1427 35.9136C39.7333 35.9287 40.1149 36.4486 40.6457 36.6046C40.6603 36.8213 40.4656 37.015 40.3535 37.2084C39.8822 37.0676 39.5229 36.6649 38.9845 36.6946C38.977 36.4928 39.0974 36.2636 39.052 36.0478C38.4473 36.2268 38.0418 35.6678 37.5936 35.3324C37.5807 34.2351 36.4196 33.5153 36.3583 32.4873C36.3465 32.2823 36.3779 32.0635 36.4718 31.8284C36.8534 30.9506 36.7335 29.8108 36.3151 28.9924C36.1879 28.777 35.9626 28.607 35.7527 28.4803C36.0599 29.128 36.4342 29.8933 36.2474 30.6894C36.2257 31.3042 35.8611 31.8947 35.857 32.4873C35.8555 32.6986 35.9009 32.9099 36.023 33.1233C36.5095 33.995 37.3848 34.8201 37.0556 35.9134C36.9652 36.2492 36.6957 36.5088 36.6285 36.8506C37.1976 37.3195 37.7357 37.848 38.4909 37.8777C38.7599 37.7068 38.6105 36.9486 39.164 37.2983L39.9722 37.7005C39.9133 37.9157 39.7322 38.1086 39.5681 38.2569C39.2615 38.1084 38.9624 37.9304 38.58 37.9449C38.4673 38.0639 38.3703 38.1975 38.3789 38.3682C38.6479 38.4123 38.8947 38.5253 39.1195 38.6818C39.0151 38.9054 38.8118 39.0456 38.6248 39.2168L37.9978 38.9938C37.8932 39.1428 37.6757 39.2994 37.752 39.4629C37.8935 39.5232 38.0504 39.6047 38.1546 39.7091C37.8778 40.0067 37.5271 40.1981 37.1896 40.4001C36.8989 39.4548 35.941 38.792 36.0232 37.6987L35.9787 37.6545C35.7536 37.9064 35.8288 38.3091 35.8433 38.6359C36.1128 39.3207 36.7555 39.8496 36.853 40.6005C36.7405 40.7937 36.4867 40.8322 36.2921 40.9141C36.3147 39.5602 34.2506 38.5334 35.5742 37.164C36.0157 36.4934 36.7553 35.8534 36.4932 34.9302C36.2242 34.0389 35.2725 33.4866 35.2809 32.4873L35.2824 32.4094C35.4991 31.3673 36.1576 30.2585 35.619 29.1499C35.4688 28.704 35.1334 28.1973 34.6772 28.011C35.3573 28.7856 35.627 30.0494 35.2379 31.0916C35.0418 31.5062 34.7718 32.0001 34.7447 32.4875H34.743C34.7286 32.742 34.7808 32.9951 34.9459 33.2351C35.4624 34.0688 36.3594 34.9846 35.8434 36.0711C35.2601 36.9413 34.2429 37.8266 34.8109 38.9728C35.2223 39.6573 35.8586 40.3404 35.6869 41.1819L35.0138 41.405C35.4626 39.8353 33.2634 38.913 34.184 37.3429C34.7524 36.5021 35.7689 35.7132 35.1935 34.5973C34.8495 33.9058 34.1386 33.4966 34.1611 32.6325L34.1855 32.4874C34.4172 31.2619 35.3535 30.1019 34.6988 28.7924C34.5268 28.4057 34.1829 28.0114 33.8013 27.788L33.7783 27.811C34.5415 28.5476 34.7738 29.7597 34.3622 30.734C34.1702 31.3056 33.7488 31.8751 33.6631 32.4876C33.6224 32.7765 33.6568 33.0758 33.8245 33.3911C34.3106 34.1569 35.163 34.9693 34.6311 35.9594C34.0709 36.7772 33.1357 37.5729 33.5093 38.6364C33.9207 39.5668 34.7799 40.4532 34.316 41.6069L33.6214 41.7629C34.1747 40.6386 33.3451 39.5229 32.8591 38.5478C32.2679 37.1488 34.1293 36.4789 34.1591 35.1999C34.1521 34.3743 33.2699 33.9056 33.0835 33.1466C32.7017 32.8262 32.3059 33.2741 31.8495 33.1909C31.5125 33.2583 30.9949 32.7294 30.7938 33.3027C30.5542 34.1431 29.4629 34.7609 29.9426 35.7577C30.3989 36.6435 31.4972 37.2913 31.1304 38.4377C30.8019 39.5084 29.7167 40.528 30.3897 41.7629C30.1133 41.6739 29.597 41.8444 29.6044 41.405C29.1783 39.9094 30.9955 39.0381 30.4342 37.5433C30.173 36.6278 28.9829 36.1219 29.2449 35.0207C29.4386 34.1143 30.4611 33.4805 30.3176 32.4876C30.306 32.4044 30.2854 32.3193 30.2561 32.2306C29.8744 31.1591 29.0959 30.0874 29.5599 28.8368C29.6873 28.4796 29.9418 28.1746 30.1654 27.8553C29.4249 28.2496 29.0514 29.0832 29.0667 29.9313C29.0344 30.8536 29.7192 31.6436 29.8166 32.4876C29.855 32.8282 29.7989 33.1769 29.5599 33.5469C29.0742 34.2027 28.4389 34.8941 28.7301 35.7576C29.0071 36.6286 30.0989 37.1562 30.0316 38.1686C30.0242 39.3661 28.6256 40.1117 29.022 41.451L28.3259 41.2263C28.0495 40.0362 29.3207 39.4273 29.3353 38.3262C29.5152 37.0599 27.8919 36.59 27.9893 35.3557C27.9823 34.4178 28.8121 33.8238 29.1786 33.0349C29.2415 32.8429 29.2624 32.6615 29.254 32.4876C29.209 31.6154 28.4191 30.9334 28.5502 29.9528C28.5943 29.231 28.8411 28.5984 29.3124 28.0556C28.6621 28.3155 28.3934 29.0603 28.2138 29.6855C27.902 30.6879 28.6462 31.5896 28.7209 32.4877C28.7539 32.8843 28.6565 33.2786 28.2814 33.6817C27.7426 34.3134 27.1962 35.1105 27.5852 35.9595C27.9972 36.8963 29.2913 37.6255 28.73 38.7939C28.4238 39.5307 27.6905 40.0884 27.7206 40.9587C27.5263 40.8769 27.3247 40.7953 27.1596 40.6468C27.1596 39.5383 28.7445 38.846 27.9894 37.6777C27.9225 37.9082 27.9081 38.2215 27.8557 38.4819C27.5936 39.1593 27.0329 39.7016 26.8231 40.4019C26.4722 40.2672 26.1053 39.9842 25.8135 39.6866L26.2177 39.4404C26.1728 39.2913 26.0533 39.165 25.9489 39.0385C25.6863 39.0017 25.5139 39.1731 25.2975 39.2403C25.1105 39.0763 24.9301 38.9274 24.781 38.7265C24.9152 38.3462 25.9638 38.6607 25.4326 38.0355C25.074 37.8124 24.714 38.131 24.4 38.2798L23.9742 37.7448C24.3407 37.5218 24.7063 37.2086 25.1621 37.2984C25.2744 37.4997 25.2822 37.7957 25.4987 37.9007C26.2692 37.8858 26.8151 37.306 27.4057 36.852C26.9941 36.2425 26.659 35.4012 27.0247 34.6642C27.3177 33.9257 28.0811 33.3037 28.1157 32.4872C28.1235 32.3014 28.0944 32.1059 28.0127 31.8955C27.609 30.861 27.4666 29.4629 28.2371 28.5474C27.8181 28.6593 27.5711 29.1788 27.4288 29.5732C26.9656 30.5833 27.5514 31.5191 27.5717 32.4872C27.5744 32.6613 27.5602 32.8358 27.5178 33.0116C27.1213 33.8077 26.4788 34.5062 26.3744 35.4223C25.9181 35.712 25.5434 36.2185 24.8931 36.0476C24.8702 36.2185 24.9226 36.4791 24.9823 36.6728C24.4666 36.6512 24.115 37.0294 23.6808 37.208C23.4495 37.1341 23.3893 36.8367 23.2998 36.6285C23.808 36.4577 24.1746 35.9508 24.7581 35.9589C24.8257 35.7719 24.7202 35.6006 24.6904 35.4222C23.9646 35.1017 22.814 37.0067 22.7172 35.3551C23.4426 35.3104 23.9061 34.6405 24.6244 34.5738L24.6458 34.0388C23.8306 33.9569 23.3062 34.7906 22.4913 34.7084L22.3116 33.9945C23.2542 34.0531 23.8158 33.2127 24.7135 33.1675C24.8328 33.0114 24.8472 32.7807 24.8702 32.5652C23.8903 32.4381 23.2179 33.5185 22.178 33.1904C22.178 33.1904 22.1421 32.7407 22.1227 32.4872H22.1241C22.1171 32.3881 22.1103 32.319 22.1103 32.319C23.0377 32.677 23.8525 32.0143 24.6458 31.6722C24.8476 31.6122 25.1622 31.7163 25.2527 31.4933C25.2449 31.3221 25.5586 31.122 25.2974 31.0025C24.1376 30.846 23.3671 32.2377 22.1778 31.6049L22.0886 31.426C22.336 28.0631 24.2424 24.8118 27.4057 23.2119C28.6869 22.4835 30.2786 22.1122 31.8838 22.099C33.8209 22.083 35.7784 22.5886 37.2345 23.6141C38.6485 24.477 40.0011 25.8991 40.7352 27.3428C41.4372 28.6077 41.7603 30.027 41.8568 31.5381C40.6299 32.4603 39.8069 30.6692 38.5576 31.07C38.6249 31.2639 38.6621 31.4644 38.8049 31.6281C39.9122 31.6203 40.6747 32.7738 41.8337 32.3192L41.8347 32.4873ZM27.7419 28.3456C26.9639 27.8395 25.9776 28.3161 25.2526 28.5917C25.1853 27.9143 24.9088 27.2971 24.3322 26.8506C24.2762 26.8229 24.1989 26.7647 24.1293 26.7604C24.0876 26.7578 24.0479 26.7745 24.0171 26.8276C24.2785 28.4271 23.2333 29.5432 22.4927 30.7566C22.7393 30.9571 23.1355 30.9272 23.4346 30.8682C24.2198 30.5559 24.9677 30.0122 25.9025 30.1985C26.179 29.7298 26.6435 29.2757 27.0244 28.9037C27.2571 28.7033 27.5768 28.5761 27.7419 28.3456ZM30.1207 29.3502C30.1058 29.4465 30.1282 29.6182 30.2774 29.5518C30.5097 29.2319 30.9208 29.485 31.1749 29.5076V29.4175C31.0355 29.1997 30.7486 29.0902 30.4573 29.1011C30.3901 29.1035 30.3217 29.1132 30.256 29.1284C30.1585 29.15 30.0907 29.2387 30.1207 29.3502ZM33.7779 28.3916C33.5691 27.9301 33.0904 27.7433 32.656 27.6318C32.4431 27.6057 32.2221 27.588 32.0029 27.586C31.9618 27.5856 31.9208 27.585 31.8799 27.586C31.2668 27.5983 30.681 27.7549 30.3232 28.2569C30.2718 28.3987 30.046 28.5977 30.2557 28.7248C30.7269 28.6948 31.2646 28.636 31.5787 29.0383C31.5787 29.3959 31.8108 29.8715 31.422 30.0427C31.0999 29.746 30.7184 30.169 30.3679 29.9308C30.2031 29.834 30.0989 29.947 30.0314 30.0884C29.9339 31.0108 30.4194 32.0289 31.2869 32.5421C31.6384 32.6683 32.111 32.7883 32.4779 32.6093C33.3604 32.2005 33.7259 31.2635 33.8903 30.4002C33.8682 30.2359 33.8761 29.9158 33.6444 29.908C33.3828 30.0726 33.0012 29.9754 32.724 29.908C32.5601 29.9607 32.5525 30.1993 32.366 30.2445L32.2523 30.1543C32.1549 29.7456 32.0949 29.165 32.4767 28.8823C32.9034 28.7111 33.4044 28.6363 33.8457 28.7706C33.928 28.6294 33.8009 28.5181 33.7779 28.3916ZM33.3277 29.1253C33.298 29.126 33.2692 29.1275 33.24 29.1284C33.0833 29.2324 32.6266 29.1577 32.7914 29.5076C33.0758 29.2837 33.4722 29.4406 33.7564 29.5518C33.8615 29.4999 33.8387 29.3957 33.8456 29.3059C33.7544 29.137 33.5363 29.1211 33.3277 29.1253ZM36.584 25.9792C36.0304 25.95 35.5668 26.2626 35.0582 26.4041C35.0139 25.9734 35.3427 25.5187 35.4177 25.0864C34.5953 25.139 33.9438 25.6315 33.2635 26.025C33.106 25.6464 32.9481 25.266 32.7917 24.886L33.6892 24.0375L33.7122 23.9258L32.4999 23.8586C32.2911 23.4946 32.2088 23.0561 31.962 22.7213C31.76 23.1007 31.6243 23.5023 31.4226 23.8815L30.2117 23.9488V24.0375L31.1307 24.8631C31.0183 25.2874 30.9139 25.7485 30.6375 26.0692C30.099 25.7484 29.5682 25.3991 28.9778 25.1763C28.8358 25.1307 28.6333 25.0565 28.5061 25.1534C28.6928 25.5628 28.9543 26.0031 28.9103 26.45C28.6634 26.4048 28.4693 26.2472 28.2373 26.181C27.9598 26.1057 27.6306 25.9585 27.3614 26.048C27.8102 26.6727 28.1766 27.3265 28.3033 28.0783C29.7923 27.3633 31.5288 26.97 33.3313 27.2756C34.1762 27.4094 34.9531 27.7518 35.7086 28.0339C35.7382 27.2456 36.2392 26.6121 36.584 25.9792ZM39.141 30.2658C39.9033 30.4665 40.668 31.2928 41.4752 30.7567C40.7722 29.5961 39.7259 28.5243 40.0168 27.0066C40.0473 26.9029 39.98 26.7981 39.8832 26.7833C39.4271 26.9688 39.074 27.4158 38.8935 27.8552C38.8193 28.1151 38.7753 28.3913 38.6708 28.6363C38.1244 28.3534 37.5415 28.0793 36.8759 28.1456C36.6358 28.1753 36.2917 28.191 36.2474 28.4361C37.0028 28.8377 37.624 29.508 38.0869 30.2217C38.4092 30.1694 38.8044 30.2141 39.141 30.2658ZM31.1533 31.3147L31.1749 31.4492C31.4671 31.6429 31.557 31.9712 31.9616 31.9413C32.3204 31.9625 32.5896 31.6281 32.7684 31.3604C32.2829 31.2937 31.692 31.3969 31.1533 31.3147ZM31.5574 30.7123C31.572 30.7719 31.5204 30.8612 31.6019 30.8913C31.8413 30.8396 32.2749 31.018 32.4085 30.7353C32.3152 30.6312 32.1628 30.584 32.003 30.584C31.8432 30.584 31.6773 30.6304 31.5574 30.7123Z" fill="#007042"/>
<path opacity="0.99" d="M31.1539 30.4541H32.7939V31.1244H31.1539V30.4541Z" fill="white"/>
<path d="M31.4568 30.8126C31.6687 30.8625 31.7212 30.9373 31.8887 30.9582C32.0667 30.955 32.041 30.9191 32.3516 30.8124C32.3719 30.8053 32.4 30.7605 32.3652 30.7262C32.1724 30.5358 32.0391 30.6718 31.9182 30.6754C31.7579 30.6772 31.6075 30.5389 31.4508 30.7187C31.4241 30.7552 31.4102 30.791 31.4568 30.8126Z" fill="#007042"/>
</g>
<path d="M62.6719 21.4929C62.6188 21.0223 62.4001 20.6577 62.0156 20.3991C61.6312 20.1373 61.1473 20.0064 60.5639 20.0064C60.1463 20.0064 59.785 20.0727 59.4801 20.2053C59.1752 20.3345 58.9382 20.5135 58.7692 20.7422C58.6035 20.9676 58.5206 21.2244 58.5206 21.5128C58.5206 21.7547 58.5769 21.9635 58.6896 22.1392C58.8056 22.3149 58.9564 22.4624 59.142 22.5817C59.331 22.6977 59.5331 22.7955 59.7486 22.875C59.964 22.9512 60.1712 23.0142 60.37 23.0639L61.3643 23.3224C61.6892 23.402 62.0223 23.5097 62.3636 23.6456C62.705 23.7815 63.0215 23.9605 63.3132 24.1825C63.6049 24.4046 63.8402 24.6797 64.0192 25.0078C64.2015 25.3359 64.2926 25.7287 64.2926 26.1861C64.2926 26.7628 64.1435 27.2749 63.8452 27.7223C63.5502 28.1697 63.121 28.5227 62.5575 28.7812C61.9974 29.0398 61.3196 29.169 60.5241 29.169C59.7618 29.169 59.1023 29.0481 58.5455 28.8061C57.9886 28.5642 57.5528 28.2211 57.2379 27.777C56.9231 27.3295 56.7491 26.7992 56.7159 26.1861H58.2571C58.2869 26.554 58.4063 26.8606 58.6151 27.1058C58.8272 27.3478 59.0973 27.5284 59.4254 27.6477C59.7569 27.7637 60.1198 27.8217 60.5142 27.8217C60.9484 27.8217 61.3345 27.7538 61.6726 27.6179C62.014 27.4787 62.2824 27.2865 62.478 27.0412C62.6735 26.7926 62.7713 26.5026 62.7713 26.1712C62.7713 25.8696 62.6851 25.6226 62.5128 25.4304C62.3438 25.2382 62.1134 25.0791 61.8217 24.9531C61.5334 24.8272 61.2069 24.7161 60.8423 24.62L59.6392 24.2919C58.8239 24.0698 58.1776 23.7434 57.7003 23.3125C57.2263 22.8816 56.9893 22.3116 56.9893 21.6023C56.9893 21.0156 57.1484 20.5036 57.4666 20.0661C57.7848 19.6286 58.2157 19.2888 58.7592 19.0469C59.3028 18.8016 59.916 18.679 60.5987 18.679C61.2881 18.679 61.8963 18.8 62.4233 19.0419C62.9536 19.2839 63.3712 19.617 63.6761 20.0412C63.9811 20.4621 64.1402 20.946 64.1534 21.4929H62.6719ZM66.1284 29V18.8182H69.8571C70.5796 18.8182 71.1779 18.9375 71.6518 19.1761C72.1258 19.4115 72.4804 19.7313 72.7157 20.1357C72.9511 20.5367 73.0687 20.9891 73.0687 21.4929C73.0687 21.9171 72.9908 22.2751 72.835 22.5668C72.6793 22.8551 72.4705 23.0871 72.2086 23.2628C71.9501 23.4351 71.6651 23.5611 71.3535 23.6406V23.7401C71.6916 23.7566 72.0214 23.866 72.3429 24.0682C72.6677 24.267 72.9361 24.5504 73.1483 24.9183C73.3604 25.2862 73.4664 25.7337 73.4664 26.2607C73.4664 26.781 73.3438 27.2483 73.0985 27.6626C72.8566 28.0736 72.4821 28.4001 71.975 28.642C71.4679 28.8807 70.8199 29 70.0311 29H66.1284ZM67.6646 27.6825H69.8819C70.6177 27.6825 71.1447 27.54 71.4629 27.255C71.7811 26.9699 71.9402 26.6136 71.9402 26.1861C71.9402 25.8646 71.859 25.5696 71.6966 25.3011C71.5342 25.0327 71.3021 24.8189 71.0005 24.6598C70.7022 24.5007 70.3476 24.4212 69.9366 24.4212H67.6646V27.6825ZM67.6646 23.223H69.7228C70.0675 23.223 70.3774 23.1567 70.6525 23.0241C70.9309 22.8916 71.1513 22.706 71.3137 22.4673C71.4795 22.2254 71.5623 21.9403 71.5623 21.6122C71.5623 21.1913 71.4148 20.8383 71.1199 20.5533C70.8249 20.2682 70.3725 20.1257 69.7626 20.1257H67.6646V23.223ZM81.8361 18.8182H83.3773V25.5149C83.3773 26.2275 83.2099 26.8589 82.8752 27.4091C82.5404 27.956 82.0698 28.3868 81.4632 28.7017C80.8567 29.0133 80.1458 29.169 79.3304 29.169C78.5184 29.169 77.8091 29.0133 77.2026 28.7017C76.5961 28.3868 76.1254 27.956 75.7907 27.4091C75.4559 26.8589 75.2885 26.2275 75.2885 25.5149V18.8182H76.8248V25.3906C76.8248 25.8513 76.9258 26.2607 77.128 26.6186C77.3335 26.9766 77.6235 27.2583 77.998 27.4638C78.3726 27.666 78.8167 27.767 79.3304 27.767C79.8475 27.767 80.2933 27.666 80.6678 27.4638C81.0456 27.2583 81.334 26.9766 81.5328 26.6186C81.735 26.2607 81.8361 25.8513 81.8361 25.3906V18.8182ZM86.6797 18.8182L89.1158 22.8004H89.1953L91.6314 18.8182H93.4112L90.2393 23.9091L93.4311 29H91.6413L89.1953 25.0724H89.1158L86.6697 29H84.88L88.1264 23.9091L84.8999 18.8182H86.6797Z" fill="#111313"/>
<path d="M59.8778 48.1449C59.2045 48.142 58.6293 47.9645 58.152 47.6122C57.6747 47.2599 57.3097 46.7472 57.0568 46.0739C56.804 45.4006 56.6776 44.5895 56.6776 43.6406C56.6776 42.6946 56.804 41.8864 57.0568 41.2159C57.3125 40.5455 57.679 40.0341 58.1562 39.6818C58.6364 39.3295 59.2102 39.1534 59.8778 39.1534C60.5455 39.1534 61.1179 39.331 61.5952 39.6861C62.0724 40.0384 62.4375 40.5497 62.6903 41.2202C62.946 41.8878 63.0739 42.6946 63.0739 43.6406C63.0739 44.5923 62.9474 45.4048 62.6946 46.0781C62.4418 46.7486 62.0767 47.2614 61.5994 47.6165C61.1222 47.9688 60.5483 48.1449 59.8778 48.1449ZM59.8778 47.0071C60.4688 47.0071 60.9304 46.7188 61.2628 46.142C61.598 45.5653 61.7656 44.7315 61.7656 43.6406C61.7656 42.9162 61.6889 42.304 61.5355 41.804C61.3849 41.3011 61.1676 40.9205 60.8835 40.6619C60.6023 40.4006 60.267 40.2699 59.8778 40.2699C59.2898 40.2699 58.8281 40.5597 58.4929 41.1392C58.1577 41.7187 57.9886 42.5526 57.9858 43.6406C57.9858 44.3679 58.0611 44.983 58.2116 45.4858C58.3651 45.9858 58.5824 46.3651 58.8636 46.6236C59.1449 46.8793 59.483 47.0071 59.8778 47.0071ZM65.1257 48.081C64.8928 48.081 64.6925 47.9986 64.5249 47.8338C64.3572 47.6662 64.2734 47.4645 64.2734 47.2287C64.2734 46.9957 64.3572 46.7969 64.5249 46.6321C64.6925 46.4645 64.8928 46.3807 65.1257 46.3807C65.3587 46.3807 65.5589 46.4645 65.7266 46.6321C65.8942 46.7969 65.978 46.9957 65.978 47.2287C65.978 47.3849 65.9382 47.5284 65.8587 47.6591C65.782 47.7869 65.6797 47.8892 65.5518 47.9659C65.424 48.0426 65.282 48.081 65.1257 48.081ZM70.3896 48.1449C69.7163 48.142 69.141 47.9645 68.6637 47.6122C68.1864 47.2599 67.8214 46.7472 67.5685 46.0739C67.3157 45.4006 67.1893 44.5895 67.1893 43.6406C67.1893 42.6946 67.3157 41.8864 67.5685 41.2159C67.8242 40.5455 68.1907 40.0341 68.668 39.6818C69.1481 39.3295 69.7219 39.1534 70.3896 39.1534C71.0572 39.1534 71.6296 39.331 72.1069 39.6861C72.5842 40.0384 72.9492 40.5497 73.2021 41.2202C73.4577 41.8878 73.5856 42.6946 73.5856 43.6406C73.5856 44.5923 73.4592 45.4048 73.2063 46.0781C72.9535 46.7486 72.5884 47.2614 72.1112 47.6165C71.6339 47.9688 71.06 48.1449 70.3896 48.1449ZM70.3896 47.0071C70.9805 47.0071 71.4421 46.7188 71.7745 46.142C72.1097 45.5653 72.2773 44.7315 72.2773 43.6406C72.2773 42.9162 72.2006 42.304 72.0472 41.804C71.8967 41.3011 71.6793 40.9205 71.3952 40.6619C71.114 40.4006 70.7788 40.2699 70.3896 40.2699C69.8015 40.2699 69.3398 40.5597 69.0046 41.1392C68.6694 41.7187 68.5004 42.5526 68.4975 43.6406C68.4975 44.3679 68.5728 44.983 68.7234 45.4858C68.8768 45.9858 69.0941 46.3651 69.3754 46.6236C69.6566 46.8793 69.9947 47.0071 70.3896 47.0071ZM75.0973 48V47.0455L78.0504 43.9858C78.3658 43.6534 78.6257 43.3622 78.8303 43.1122C79.0376 42.8594 79.1925 42.6193 79.2947 42.392C79.397 42.1648 79.4482 41.9233 79.4482 41.6676C79.4482 41.3778 79.38 41.1278 79.2436 40.9176C79.1072 40.7045 78.9212 40.5412 78.6854 40.4276C78.4496 40.3111 78.1839 40.2528 77.8885 40.2528C77.576 40.2528 77.3033 40.3168 77.0703 40.4446C76.8374 40.5724 76.6584 40.7528 76.5334 40.9858C76.4084 41.2187 76.3459 41.4915 76.3459 41.804H75.0888C75.0888 41.2727 75.2109 40.8082 75.4553 40.4105C75.6996 40.0128 76.0348 39.7045 76.4609 39.4858C76.8871 39.2642 77.3714 39.1534 77.9141 39.1534C78.4624 39.1534 78.9453 39.2628 79.3629 39.4815C79.7834 39.6974 80.1115 39.9929 80.3473 40.3679C80.5831 40.7401 80.701 41.1605 80.701 41.6293C80.701 41.9531 80.6399 42.2699 80.5178 42.5795C80.3984 42.8892 80.1896 43.2344 79.8913 43.6151C79.593 43.9929 79.1783 44.4517 78.647 44.9915L76.9126 46.8068V46.8707H80.8416V48H75.0973ZM90.5543 43.0526L89.3995 43.2571C89.3512 43.1094 89.2745 42.9687 89.1694 42.8352C89.0671 42.7017 88.9279 42.5923 88.7518 42.5071C88.5756 42.4219 88.3555 42.3793 88.0913 42.3793C87.7305 42.3793 87.4293 42.4602 87.1879 42.6222C86.9464 42.7812 86.8256 42.9872 86.8256 43.2401C86.8256 43.4588 86.9066 43.6349 87.0685 43.7685C87.2305 43.902 87.4918 44.0114 87.8526 44.0966L88.8924 44.3352C89.4947 44.4744 89.9435 44.6889 90.239 44.9787C90.5344 45.2685 90.6822 45.6449 90.6822 46.108C90.6822 46.5 90.5685 46.8494 90.3413 47.1562C90.1168 47.4602 89.8029 47.6989 89.3995 47.8722C88.9989 48.0455 88.5344 48.1321 88.006 48.1321C87.2731 48.1321 86.6751 47.9759 86.212 47.6634C85.7489 47.348 85.4648 46.9006 85.3597 46.321L86.5913 46.1335C86.668 46.4545 86.8256 46.6974 87.0643 46.8622C87.3029 47.0241 87.614 47.1051 87.9975 47.1051C88.4151 47.1051 88.7489 47.0185 88.9989 46.8452C89.2489 46.669 89.3739 46.4545 89.3739 46.2017C89.3739 45.9972 89.2972 45.8253 89.1438 45.6861C88.9933 45.5469 88.7617 45.4418 88.4492 45.3707L87.3413 45.1278C86.7305 44.9886 86.2788 44.767 85.9862 44.4631C85.6964 44.1591 85.5515 43.7741 85.5515 43.3082C85.5515 42.9219 85.6594 42.5838 85.8754 42.294C86.0913 42.0043 86.3896 41.7784 86.7702 41.6165C87.1509 41.4517 87.587 41.3693 88.0785 41.3693C88.7859 41.3693 89.3427 41.5227 89.7489 41.8295C90.1552 42.1335 90.4237 42.5412 90.5543 43.0526ZM93.3572 44.1136V48H92.0831V39.2727H93.3402V42.5199H93.4212C93.5746 42.1676 93.8089 41.8878 94.1243 41.6804C94.4396 41.473 94.8516 41.3693 95.3601 41.3693C95.8089 41.3693 96.201 41.4616 96.5362 41.6463C96.8743 41.831 97.1357 42.1065 97.3203 42.473C97.5078 42.8366 97.6016 43.2912 97.6016 43.8366V48H96.3274V43.9901C96.3274 43.5099 96.2038 43.1378 95.9567 42.8736C95.7095 42.6065 95.3658 42.473 94.9254 42.473C94.6243 42.473 94.3544 42.5369 94.1158 42.6648C93.88 42.7926 93.6939 42.9801 93.5575 43.2273C93.424 43.4716 93.3572 43.767 93.3572 44.1136ZM101.207 48.1449C100.792 48.1449 100.417 48.0682 100.082 47.9148C99.7464 47.7585 99.4808 47.5327 99.2848 47.2372C99.0916 46.9418 98.995 46.5795 98.995 46.1506C98.995 45.7812 99.0661 45.4773 99.2081 45.2386C99.3501 45 99.5419 44.8111 99.7834 44.6719C100.025 44.5327 100.295 44.4276 100.593 44.3565C100.891 44.2855 101.195 44.2315 101.505 44.1946C101.897 44.1491 102.215 44.1122 102.46 44.0838C102.704 44.0526 102.881 44.0028 102.992 43.9347C103.103 43.8665 103.158 43.7557 103.158 43.6023V43.5724C103.158 43.2003 103.053 42.9119 102.843 42.7074C102.636 42.5028 102.326 42.4006 101.914 42.4006C101.485 42.4006 101.147 42.4957 100.9 42.6861C100.656 42.8736 100.487 43.0824 100.393 43.3125L99.1953 43.0398C99.3374 42.642 99.5447 42.321 99.8175 42.0767C100.093 41.8295 100.41 41.6506 100.768 41.5398C101.126 41.4261 101.502 41.3693 101.897 41.3693C102.158 41.3693 102.435 41.4006 102.728 41.4631C103.023 41.5227 103.299 41.6335 103.555 41.7955C103.813 41.9574 104.025 42.1889 104.19 42.4901C104.354 42.7884 104.437 43.1761 104.437 43.6534V48H103.192V47.1051H103.141C103.059 47.2699 102.935 47.4318 102.771 47.5909C102.606 47.75 102.394 47.8821 102.136 47.9872C101.877 48.0923 101.567 48.1449 101.207 48.1449ZM101.484 47.1222C101.836 47.1222 102.137 47.0526 102.387 46.9134C102.64 46.7741 102.832 46.5923 102.962 46.3679C103.096 46.1406 103.163 45.8977 103.163 45.6392V44.7955C103.117 44.8409 103.029 44.8835 102.898 44.9233C102.771 44.9602 102.624 44.9929 102.46 45.0213C102.295 45.0469 102.134 45.071 101.978 45.0938C101.822 45.1136 101.691 45.1307 101.586 45.1449C101.339 45.1761 101.113 45.2287 100.908 45.3026C100.707 45.3764 100.545 45.483 100.423 45.6222C100.303 45.7585 100.244 45.9403 100.244 46.1676C100.244 46.483 100.36 46.7216 100.593 46.8835C100.826 47.0426 101.123 47.1222 101.484 47.1222ZM106.134 48V41.4545H107.365V42.4943H107.434C107.553 42.142 107.763 41.8651 108.064 41.6634C108.368 41.4588 108.712 41.3565 109.096 41.3565C109.175 41.3565 109.269 41.3594 109.377 41.3651C109.488 41.3707 109.574 41.3778 109.637 41.3864V42.6051C109.586 42.5909 109.495 42.5753 109.364 42.5582C109.233 42.5384 109.103 42.5284 108.972 42.5284C108.671 42.5284 108.402 42.5923 108.167 42.7202C107.934 42.8452 107.749 43.0199 107.613 43.2443C107.476 43.4659 107.408 43.7187 107.408 44.0028V48H106.134ZM113.326 48.1321C112.681 48.1321 112.126 47.9943 111.66 47.7188C111.197 47.4403 110.839 47.0497 110.586 46.5469C110.336 46.0412 110.211 45.4489 110.211 44.7699C110.211 44.0994 110.336 43.5085 110.586 42.9972C110.839 42.4858 111.191 42.0866 111.643 41.7997C112.097 41.5128 112.629 41.3693 113.237 41.3693C113.606 41.3693 113.964 41.4304 114.31 41.5526C114.657 41.6747 114.968 41.8665 115.244 42.1278C115.519 42.3892 115.737 42.7287 115.896 43.1463C116.055 43.5611 116.134 44.0653 116.134 44.6591V45.1108H110.931V44.1562H114.886C114.886 43.821 114.817 43.5241 114.681 43.2656C114.545 43.0043 114.353 42.7983 114.106 42.6477C113.862 42.4972 113.575 42.4219 113.245 42.4219C112.887 42.4219 112.575 42.5099 112.308 42.6861C112.043 42.8594 111.839 43.0866 111.694 43.3679C111.552 43.6463 111.481 43.9489 111.481 44.2756V45.0213C111.481 45.4588 111.558 45.831 111.711 46.1378C111.867 46.4446 112.085 46.679 112.363 46.8409C112.641 47 112.967 47.0795 113.339 47.0795C113.58 47.0795 113.8 47.0455 113.999 46.9773C114.198 46.9062 114.37 46.8011 114.515 46.6619C114.66 46.5227 114.771 46.3509 114.847 46.1463L116.053 46.3636C115.957 46.7187 115.783 47.0298 115.533 47.2969C115.286 47.5611 114.975 47.767 114.6 47.9148C114.228 48.0597 113.803 48.1321 113.326 48.1321ZM122.453 43.0526L121.298 43.2571C121.25 43.1094 121.173 42.9687 121.068 42.8352C120.966 42.7017 120.826 42.5923 120.65 42.5071C120.474 42.4219 120.254 42.3793 119.99 42.3793C119.629 42.3793 119.328 42.4602 119.086 42.6222C118.845 42.7812 118.724 42.9872 118.724 43.2401C118.724 43.4588 118.805 43.6349 118.967 43.7685C119.129 43.902 119.39 44.0114 119.751 44.0966L120.791 44.3352C121.393 44.4744 121.842 44.6889 122.137 44.9787C122.433 45.2685 122.581 45.6449 122.581 46.108C122.581 46.5 122.467 46.8494 122.24 47.1562C122.015 47.4602 121.701 47.6989 121.298 47.8722C120.897 48.0455 120.433 48.1321 119.904 48.1321C119.172 48.1321 118.574 47.9759 118.11 47.6634C117.647 47.348 117.363 46.9006 117.258 46.321L118.49 46.1335C118.566 46.4545 118.724 46.6974 118.963 46.8622C119.201 47.0241 119.512 47.1051 119.896 47.1051C120.314 47.1051 120.647 47.0185 120.897 46.8452C121.147 46.669 121.272 46.4545 121.272 46.2017C121.272 45.9972 121.196 45.8253 121.042 45.6861C120.892 45.5469 120.66 45.4418 120.348 45.3707L119.24 45.1278C118.629 44.9886 118.177 44.767 117.885 44.4631C117.595 44.1591 117.45 43.7741 117.45 43.3082C117.45 42.9219 117.558 42.5838 117.774 42.294C117.99 42.0043 118.288 41.7784 118.669 41.6165C119.049 41.4517 119.485 41.3693 119.977 41.3693C120.684 41.3693 121.241 41.5227 121.647 41.8295C122.054 42.1335 122.322 42.5412 122.453 43.0526Z" fill="#64748B"/>
<path d="M277.348 30.2727V17.5455H278.163V30.2727H277.348ZM279.898 21.4929C279.845 21.0223 279.627 20.6577 279.242 20.3991C278.858 20.1373 278.374 20.0064 277.79 20.0064C277.373 20.0064 277.012 20.0727 276.707 20.2053C276.402 20.3345 276.165 20.5135 275.996 20.7422C275.83 20.9676 275.747 21.2244 275.747 21.5128C275.747 21.7547 275.804 21.9635 275.916 22.1392C276.032 22.3149 276.183 22.4624 276.369 22.5817C276.558 22.6977 276.76 22.7955 276.975 22.875C277.191 22.9512 277.398 23.0142 277.597 23.0639L278.591 23.3224C278.916 23.402 279.249 23.5097 279.59 23.6456C279.932 23.7815 280.248 23.9605 280.54 24.1825C280.831 24.4046 281.067 24.6797 281.246 25.0078C281.428 25.3359 281.519 25.7287 281.519 26.1861C281.519 26.7628 281.37 27.2749 281.072 27.7223C280.777 28.1697 280.348 28.5227 279.784 28.7812C279.224 29.0398 278.546 29.169 277.751 29.169C276.988 29.169 276.329 29.0481 275.772 28.8061C275.215 28.5642 274.779 28.2211 274.464 27.777C274.15 27.3295 273.976 26.7992 273.942 26.1861H275.484C275.513 26.554 275.633 26.8606 275.842 27.1058C276.054 27.3478 276.324 27.5284 276.652 27.6477C276.983 27.7637 277.346 27.8217 277.741 27.8217C278.175 27.8217 278.561 27.7538 278.899 27.6179C279.241 27.4787 279.509 27.2865 279.705 27.0412C279.9 26.7926 279.998 26.5026 279.998 26.1712C279.998 25.8696 279.912 25.6226 279.739 25.4304C279.57 25.2382 279.34 25.0791 279.048 24.9531C278.76 24.8272 278.433 24.7161 278.069 24.62L276.866 24.2919C276.05 24.0698 275.404 23.7434 274.927 23.3125C274.453 22.8816 274.216 22.3116 274.216 21.6023C274.216 21.0156 274.375 20.5036 274.693 20.0661C275.011 19.6286 275.442 19.2888 275.986 19.0469C276.529 18.8016 277.143 18.679 277.825 18.679C278.515 18.679 279.123 18.8 279.65 19.0419C280.18 19.2839 280.598 19.617 280.903 20.0412C281.208 20.4621 281.367 20.946 281.38 21.4929H279.898ZM286.601 18.679C287.055 18.6823 287.503 18.7652 287.944 18.9276C288.385 19.09 288.782 19.3551 289.137 19.723C289.495 20.0909 289.78 20.5881 289.992 21.2145C290.207 21.8376 290.317 22.6132 290.32 23.5412C290.32 24.4328 290.231 25.2266 290.052 25.9226C289.873 26.6153 289.616 27.2003 289.281 27.6776C288.95 28.1548 288.547 28.5178 288.073 28.7663C287.599 29.0149 287.065 29.1392 286.472 29.1392C285.866 29.1392 285.327 29.0199 284.856 28.7812C284.386 28.5426 284.003 28.2128 283.708 27.7919C283.413 27.3677 283.229 26.8804 283.156 26.3303H284.672C284.772 26.7678 284.974 27.1224 285.279 27.3942C285.587 27.6626 285.985 27.7969 286.472 27.7969C287.218 27.7969 287.8 27.4721 288.217 26.8224C288.635 26.1695 288.845 25.258 288.849 24.0881H288.769C288.597 24.3731 288.381 24.6184 288.123 24.8239C287.867 25.0294 287.581 25.1884 287.263 25.3011C286.944 25.4138 286.605 25.4702 286.243 25.4702C285.657 25.4702 285.123 25.326 284.643 25.0376C284.162 24.7493 283.779 24.3532 283.494 23.8494C283.209 23.3456 283.067 22.7706 283.067 22.1243C283.067 21.4813 283.212 20.898 283.504 20.3743C283.799 19.8506 284.21 19.4363 284.737 19.1314C285.267 18.8232 285.889 18.6723 286.601 18.679ZM286.606 19.9716C286.219 19.9716 285.869 20.0677 285.557 20.2599C285.249 20.4489 285.006 20.7057 284.827 21.0305C284.648 21.352 284.558 21.71 284.558 22.1044C284.558 22.4988 284.644 22.8568 284.817 23.1783C284.992 23.4964 285.231 23.75 285.532 23.9389C285.837 24.1245 286.185 24.2173 286.577 24.2173C286.868 24.2173 287.14 24.161 287.392 24.0483C287.644 23.9356 287.864 23.7798 288.053 23.581C288.242 23.3788 288.39 23.1501 288.496 22.8949C288.602 22.6397 288.655 22.3712 288.655 22.0895C288.655 21.715 288.565 21.367 288.386 21.0455C288.211 20.724 287.969 20.4654 287.66 20.2699C287.352 20.071 287.001 19.9716 286.606 19.9716ZM292.746 29.0945C292.474 29.0945 292.241 28.9983 292.045 28.8061C291.85 28.6106 291.752 28.3752 291.752 28.1001C291.752 27.8284 291.85 27.5964 292.045 27.4041C292.241 27.2086 292.474 27.1108 292.746 27.1108C293.018 27.1108 293.252 27.2086 293.447 27.4041C293.643 27.5964 293.741 27.8284 293.741 28.1001C293.741 28.2824 293.694 28.4498 293.601 28.6023C293.512 28.7514 293.393 28.8707 293.243 28.9602C293.094 29.0497 292.929 29.0945 292.746 29.0945ZM295.712 29V27.8864L299.157 24.3168C299.525 23.929 299.828 23.5893 300.067 23.2976C300.309 23.0026 300.49 22.7225 300.609 22.4574C300.728 22.1922 300.788 21.9105 300.788 21.6122C300.788 21.2741 300.708 20.9825 300.549 20.7372C300.39 20.4886 300.173 20.2981 299.898 20.1655C299.623 20.0296 299.313 19.9616 298.968 19.9616C298.604 19.9616 298.285 20.0362 298.014 20.1854C297.742 20.3345 297.533 20.545 297.387 20.8168C297.241 21.0885 297.169 21.4067 297.169 21.7713H295.702C295.702 21.1515 295.844 20.6096 296.129 20.1456C296.414 19.6816 296.806 19.322 297.303 19.0668C297.8 18.8082 298.365 18.679 298.998 18.679C299.638 18.679 300.201 18.8066 300.688 19.0618C301.179 19.3137 301.562 19.6584 301.837 20.0959C302.112 20.5301 302.249 21.0206 302.249 21.5675C302.249 21.9453 302.178 22.3149 302.036 22.6761C301.896 23.0374 301.653 23.4401 301.305 23.8842C300.957 24.325 300.473 24.8603 299.853 25.4901L297.83 27.608V27.6825H302.414V29H295.712ZM307.659 29.1392C307.035 29.1392 306.475 29.0199 305.978 28.7812C305.484 28.5393 305.09 28.2079 304.795 27.7869C304.5 27.366 304.343 26.8854 304.323 26.3452H305.814C305.851 26.7827 306.044 27.1423 306.396 27.424C306.747 27.7057 307.168 27.8466 307.659 27.8466C308.05 27.8466 308.396 27.7571 308.698 27.5781C309.003 27.3958 309.241 27.1456 309.414 26.8274C309.589 26.5092 309.677 26.1463 309.677 25.7386C309.677 25.3243 309.588 24.9548 309.409 24.63C309.23 24.3052 308.983 24.05 308.668 23.8643C308.356 23.6787 307.998 23.5843 307.594 23.581C307.286 23.581 306.976 23.634 306.664 23.7401C306.353 23.8461 306.101 23.9853 305.909 24.1577L304.502 23.9489L305.073 18.8182H310.671V20.1357H306.351L306.028 22.9844H306.088C306.286 22.7921 306.55 22.6314 306.878 22.5021C307.209 22.3729 307.564 22.3082 307.942 22.3082C308.562 22.3082 309.114 22.4557 309.597 22.7507C310.085 23.0457 310.468 23.4484 310.746 23.9588C311.028 24.4659 311.167 25.0492 311.164 25.7088C311.167 26.3684 311.018 26.9567 310.716 27.4737C310.418 27.9908 310.003 28.3984 309.473 28.6967C308.946 28.9917 308.341 29.1392 307.659 29.1392Z" fill="#111313"/>
<path d="M285.679 48H282.853V39.2727H285.768C286.623 39.2727 287.358 39.4474 287.971 39.7969C288.585 40.1435 289.055 40.642 289.382 41.2926C289.711 41.9403 289.876 42.7173 289.876 43.6236C289.876 44.5327 289.71 45.3139 289.377 45.9673C289.048 46.6207 288.571 47.1236 287.946 47.4759C287.321 47.8253 286.565 48 285.679 48ZM284.17 46.8494H285.606C286.271 46.8494 286.824 46.7244 287.264 46.4744C287.704 46.2216 288.034 45.8565 288.252 45.3793C288.471 44.8991 288.581 44.3139 288.581 43.6236C288.581 42.9389 288.471 42.358 288.252 41.8807C288.037 41.4034 287.714 41.0412 287.285 40.794C286.856 40.5469 286.324 40.4233 285.687 40.4233H284.17V46.8494ZM294.168 48.1321C293.555 48.1321 293.019 47.9915 292.562 47.7102C292.104 47.429 291.749 47.0355 291.496 46.5298C291.244 46.0241 291.117 45.4332 291.117 44.7571C291.117 44.0781 291.244 43.4844 291.496 42.9759C291.749 42.4673 292.104 42.0724 292.562 41.7912C293.019 41.5099 293.555 41.3693 294.168 41.3693C294.782 41.3693 295.317 41.5099 295.775 41.7912C296.232 42.0724 296.587 42.4673 296.84 42.9759C297.093 43.4844 297.219 44.0781 297.219 44.7571C297.219 45.4332 297.093 46.0241 296.84 46.5298C296.587 47.0355 296.232 47.429 295.775 47.7102C295.317 47.9915 294.782 48.1321 294.168 48.1321ZM294.173 47.0625C294.57 47.0625 294.9 46.9574 295.161 46.7472C295.423 46.5369 295.616 46.2571 295.741 45.9077C295.869 45.5582 295.933 45.1733 295.933 44.7528C295.933 44.3352 295.869 43.9517 295.741 43.6023C295.616 43.25 295.423 42.9673 295.161 42.7543C294.9 42.5412 294.57 42.4347 294.173 42.4347C293.772 42.4347 293.44 42.5412 293.175 42.7543C292.914 42.9673 292.719 43.25 292.592 43.6023C292.467 43.9517 292.404 44.3352 292.404 44.7528C292.404 45.1733 292.467 45.5582 292.592 45.9077C292.719 46.2571 292.914 46.5369 293.175 46.7472C293.44 46.9574 293.772 47.0625 294.173 47.0625ZM299.916 44.1136V48H298.642V41.4545H299.865V42.5199H299.946C300.096 42.1733 300.332 41.8949 300.653 41.6847C300.977 41.4744 301.385 41.3693 301.876 41.3693C302.322 41.3693 302.713 41.4631 303.048 41.6506C303.383 41.8352 303.643 42.1108 303.828 42.4773C304.012 42.8437 304.105 43.2969 304.105 43.8366V48H302.831V43.9901C302.831 43.5156 302.707 43.1449 302.46 42.8778C302.213 42.608 301.873 42.473 301.441 42.473C301.146 42.473 300.883 42.5369 300.653 42.6648C300.426 42.7926 300.245 42.9801 300.112 43.2273C299.981 43.4716 299.916 43.767 299.916 44.1136ZM308.635 48.1321C307.99 48.1321 307.434 47.9943 306.968 47.7188C306.505 47.4403 306.147 47.0497 305.895 46.5469C305.645 46.0412 305.52 45.4489 305.52 44.7699C305.52 44.0994 305.645 43.5085 305.895 42.9972C306.147 42.4858 306.5 42.0866 306.951 41.7997C307.406 41.5128 307.937 41.3693 308.545 41.3693C308.914 41.3693 309.272 41.4304 309.619 41.5526C309.966 41.6747 310.277 41.8665 310.552 42.1278C310.828 42.3892 311.045 42.7287 311.204 43.1463C311.363 43.5611 311.443 44.0653 311.443 44.6591V45.1108H306.24V44.1562H310.194C310.194 43.821 310.126 43.5241 309.99 43.2656C309.853 43.0043 309.662 42.7983 309.414 42.6477C309.17 42.4972 308.883 42.4219 308.554 42.4219C308.196 42.4219 307.883 42.5099 307.616 42.6861C307.352 42.8594 307.147 43.0866 307.002 43.3679C306.86 43.6463 306.789 43.9489 306.789 44.2756V45.0213C306.789 45.4588 306.866 45.831 307.02 46.1378C307.176 46.4446 307.393 46.679 307.672 46.8409C307.95 47 308.275 47.0795 308.647 47.0795C308.889 47.0795 309.109 47.0455 309.308 46.9773C309.507 46.9062 309.679 46.8011 309.824 46.6619C309.968 46.5227 310.079 46.3509 310.156 46.1463L311.362 46.3636C311.265 46.7187 311.092 47.0298 310.842 47.2969C310.595 47.5611 310.284 47.767 309.909 47.9148C309.537 48.0597 309.112 48.1321 308.635 48.1321Z" fill="#64748B"/>
<defs>
<clipPath id="clip0_4771_4896">
<rect width="20" height="20" fill="white" transform="translate(22 22)"/>
</clipPath>
</defs>
</svg>
