<svg width="328" height="64" viewBox="0 0 328 64" fill="none" xmlns="http://www.w3.org/2000/svg">
<rect width="328" height="64" rx="16" fill="white"/>
<rect x="15.5" y="15.5" width="33" height="33" rx="16.5" fill="#F7F7F7"/>
<rect x="15.5" y="15.5" width="33" height="33" rx="16.5" stroke="white"/>
<g clip-path="url(#clip0_4771_4895)">
<path d="M42 32C42 26.4771 37.5229 22 32 22C26.4771 22 22 26.4771 22 32C22 36.9912 25.6568 41.1283 30.4375 41.8785V34.8906H27.8984V32H30.4375V29.7969C30.4375 27.2906 31.9305 25.9063 34.2146 25.9063C35.3084 25.9063 36.4531 26.1016 36.4531 26.1016V28.5625H35.1922C33.95 28.5625 33.5625 29.3334 33.5625 30.125V32H36.3359L35.8926 34.8906H33.5625V41.8785C38.3432 41.1283 42 36.9912 42 32Z" fill="#1877F2"/>
<path d="M35.8926 34.8906L36.3359 32H33.5625V30.125C33.5625 29.3342 33.95 28.5625 35.1922 28.5625H36.4531V26.1016C36.4531 26.1016 35.3088 25.9062 34.2146 25.9062C31.9305 25.9062 30.4375 27.2906 30.4375 29.7969V32H27.8984V34.8906H30.4375V41.8785C31.4729 42.0405 32.5271 42.0405 33.5625 41.8785V34.8906H35.8926Z" fill="white"/>
</g>
<path d="M57.1186 29V18.8182H63.4325V20.1406H58.6548V23.2429H62.9801V24.5604H58.6548V29H57.1186ZM67.3974 29.169C66.9135 29.169 66.476 29.0795 66.0849 28.9006C65.6938 28.7183 65.3839 28.4548 65.1552 28.1101C64.9298 27.7654 64.8171 27.3428 64.8171 26.8423C64.8171 26.4115 64.9 26.0568 65.0657 25.7784C65.2314 25.5 65.4551 25.2796 65.7369 25.1172C66.0186 24.9548 66.3335 24.8321 66.6815 24.7493C67.0295 24.6664 67.3841 24.6035 67.7454 24.5604C68.2028 24.5073 68.574 24.4643 68.859 24.4311C69.1441 24.3946 69.3512 24.3366 69.4805 24.2571C69.6097 24.1776 69.6744 24.0483 69.6744 23.8693V23.8345C69.6744 23.4003 69.5517 23.0639 69.3065 22.8253C69.0645 22.5866 68.7032 22.4673 68.2227 22.4673C67.7222 22.4673 67.3278 22.5784 67.0394 22.8004C66.7544 23.0192 66.5572 23.2628 66.4478 23.5312L65.0508 23.2131C65.2165 22.7491 65.4585 22.3745 65.7766 22.0895C66.0981 21.8011 66.4677 21.5923 66.8853 21.4631C67.3029 21.3305 67.7421 21.2642 68.2028 21.2642C68.5077 21.2642 68.8308 21.3007 69.1722 21.3736C69.5169 21.4432 69.8384 21.5724 70.1367 21.7614C70.4383 21.9503 70.6853 22.2204 70.8775 22.5717C71.0697 22.9197 71.1658 23.3722 71.1658 23.929V29H69.7141V27.956H69.6545C69.5584 28.1482 69.4142 28.3371 69.2219 28.5227C69.0297 28.7083 68.7828 28.8625 68.4812 28.9851C68.1796 29.1077 67.8183 29.169 67.3974 29.169ZM67.7205 27.9759C68.1315 27.9759 68.4828 27.8946 68.7745 27.7322C69.0695 27.5698 69.2932 27.3577 69.4457 27.0959C69.6014 26.8307 69.6793 26.5473 69.6793 26.2457V25.2614C69.6263 25.3144 69.5236 25.3641 69.3711 25.4105C69.2219 25.4536 69.0513 25.4917 68.859 25.5249C68.6668 25.5547 68.4795 25.5829 68.2972 25.6094C68.1149 25.6326 67.9625 25.6525 67.8398 25.669C67.5515 25.7055 67.288 25.7668 67.0494 25.853C66.814 25.9392 66.6251 26.0634 66.4826 26.2259C66.3434 26.3849 66.2738 26.5971 66.2738 26.8622C66.2738 27.2301 66.4097 27.5085 66.6815 27.6974C66.9532 27.883 67.2996 27.9759 67.7205 27.9759ZM76.3624 29.1541C75.6233 29.1541 74.9869 28.9867 74.4533 28.652C73.923 28.3139 73.5153 27.8482 73.2303 27.255C72.9453 26.6617 72.8027 25.9822 72.8027 25.2166C72.8027 24.4411 72.9486 23.7566 73.2402 23.1634C73.5319 22.5668 73.9429 22.1011 74.4732 21.7663C75.0035 21.4316 75.6283 21.2642 76.3475 21.2642C76.9275 21.2642 77.4445 21.3719 77.8986 21.5874C78.3527 21.7995 78.7189 22.0978 78.9973 22.4822C79.2791 22.8667 79.4464 23.3158 79.4995 23.8295H78.0527C77.9732 23.4716 77.7909 23.1634 77.5059 22.9048C77.2241 22.6463 76.8463 22.517 76.3723 22.517C75.958 22.517 75.5951 22.6264 75.2836 22.8452C74.9753 23.0606 74.735 23.3688 74.5627 23.7699C74.3903 24.1676 74.3042 24.6383 74.3042 25.1818C74.3042 25.7386 74.3887 26.2192 74.5577 26.6236C74.7267 27.0279 74.9654 27.3411 75.2736 27.5632C75.5852 27.7853 75.9514 27.8963 76.3723 27.8963C76.6541 27.8963 76.9093 27.8449 77.138 27.7422C77.37 27.6361 77.5639 27.4853 77.7196 27.2898C77.8787 27.0942 77.9898 26.8589 78.0527 26.5838H79.4995C79.4464 27.0777 79.2857 27.5185 79.0172 27.9062C78.7488 28.294 78.3891 28.599 77.9384 28.821C77.4909 29.0431 76.9656 29.1541 76.3624 29.1541ZM84.3803 29.1541C83.628 29.1541 82.98 28.9934 82.4364 28.6719C81.8962 28.3471 81.4786 27.8913 81.1836 27.3047C80.8919 26.7147 80.7461 26.0237 80.7461 25.2315C80.7461 24.4493 80.8919 23.7599 81.1836 23.1634C81.4786 22.5668 81.8896 22.1011 82.4165 21.7663C82.9469 21.4316 83.5666 21.2642 84.2759 21.2642C84.7068 21.2642 85.1244 21.3355 85.5288 21.478C85.9331 21.6205 86.296 21.8442 86.6175 22.1491C86.939 22.4541 87.1926 22.8501 87.3782 23.3374C87.5638 23.8213 87.6566 24.4096 87.6566 25.1023V25.6293H81.5863V24.5156H86.1999C86.1999 24.1245 86.1204 23.7782 85.9613 23.4766C85.8022 23.1716 85.5785 22.9313 85.2901 22.7557C85.0051 22.58 84.6703 22.4922 84.2859 22.4922C83.8683 22.4922 83.5037 22.5949 83.1921 22.8004C82.8839 23.0026 82.6452 23.2678 82.4762 23.5959C82.3105 23.9207 82.2276 24.2737 82.2276 24.6548V25.5249C82.2276 26.0353 82.3171 26.4695 82.4961 26.8274C82.6784 27.1854 82.9319 27.4588 83.2567 27.6477C83.5816 27.8333 83.9611 27.9261 84.3952 27.9261C84.677 27.9261 84.9338 27.8864 85.1658 27.8068C85.3978 27.724 85.5984 27.6013 85.7674 27.4389C85.9364 27.2765 86.0657 27.076 86.1552 26.8374L87.5621 27.0909C87.4495 27.5052 87.2473 27.8681 86.9556 28.1797C86.6673 28.4879 86.3043 28.7282 85.8668 28.9006C85.4326 29.0696 84.9371 29.1541 84.3803 29.1541ZM89.4252 29V18.8182H90.9118V22.6016H91.0012C91.0874 22.4425 91.2117 22.2585 91.3741 22.0497C91.5365 21.8409 91.7619 21.6586 92.0502 21.5028C92.3386 21.3438 92.7198 21.2642 93.1937 21.2642C93.8102 21.2642 94.3604 21.42 94.8443 21.7315C95.3282 22.0431 95.7077 22.4922 95.9828 23.0788C96.2612 23.6655 96.4004 24.3714 96.4004 25.1967C96.4004 26.022 96.2628 26.7296 95.9877 27.3196C95.7127 27.9062 95.3348 28.3587 94.8542 28.6768C94.3736 28.9917 93.8251 29.1491 93.2086 29.1491C92.7446 29.1491 92.3651 29.0713 92.0701 28.9155C91.7785 28.7597 91.5498 28.5774 91.3841 28.3686C91.2183 28.1598 91.0907 27.9742 91.0012 27.8118H90.877V29H89.4252ZM90.8819 25.1818C90.8819 25.7187 90.9598 26.1894 91.1156 26.5938C91.2714 26.9981 91.4967 27.3146 91.7917 27.5433C92.0867 27.7687 92.448 27.8814 92.8755 27.8814C93.3197 27.8814 93.6909 27.7637 93.9892 27.5284C94.2875 27.2898 94.5128 26.9666 94.6653 26.5589C94.8211 26.1513 94.899 25.6922 94.899 25.1818C94.899 24.678 94.8227 24.2256 94.6703 23.8246C94.5211 23.4235 94.2958 23.107 93.9941 22.875C93.6958 22.643 93.323 22.527 92.8755 22.527C92.4447 22.527 92.0801 22.638 91.7818 22.8601C91.4868 23.0821 91.2631 23.392 91.1106 23.7898C90.9582 24.1875 90.8819 24.6515 90.8819 25.1818ZM101.286 29.1541C100.57 29.1541 99.9455 28.9901 99.4119 28.6619C98.8783 28.3338 98.464 27.8748 98.169 27.2848C97.8741 26.6948 97.7266 26.0054 97.7266 25.2166C97.7266 24.4245 97.8741 23.7318 98.169 23.1385C98.464 22.5452 98.8783 22.0845 99.4119 21.7564C99.9455 21.4283 100.57 21.2642 101.286 21.2642C102.002 21.2642 102.627 21.4283 103.161 21.7564C103.694 22.0845 104.108 22.5452 104.403 23.1385C104.698 23.7318 104.846 24.4245 104.846 25.2166C104.846 26.0054 104.698 26.6948 104.403 27.2848C104.108 27.8748 103.694 28.3338 103.161 28.6619C102.627 28.9901 102.002 29.1541 101.286 29.1541ZM101.291 27.9062C101.755 27.9062 102.14 27.7836 102.445 27.5384C102.75 27.2931 102.975 26.9666 103.121 26.5589C103.27 26.1513 103.344 25.7022 103.344 25.2116C103.344 24.7244 103.27 24.277 103.121 23.8693C102.975 23.4583 102.75 23.1286 102.445 22.88C102.14 22.6314 101.755 22.5071 101.291 22.5071C100.824 22.5071 100.436 22.6314 100.128 22.88C99.8229 23.1286 99.5959 23.4583 99.4467 23.8693C99.3009 24.277 99.228 24.7244 99.228 25.2116C99.228 25.7022 99.3009 26.1513 99.4467 26.5589C99.5959 26.9666 99.8229 27.2931 100.128 27.5384C100.436 27.7836 100.824 27.9062 101.291 27.9062ZM109.722 29.1541C109.006 29.1541 108.381 28.9901 107.847 28.6619C107.314 28.3338 106.9 27.8748 106.605 27.2848C106.31 26.6948 106.162 26.0054 106.162 25.2166C106.162 24.4245 106.31 23.7318 106.605 23.1385C106.9 22.5452 107.314 22.0845 107.847 21.7564C108.381 21.4283 109.006 21.2642 109.722 21.2642C110.438 21.2642 111.062 21.4283 111.596 21.7564C112.13 22.0845 112.544 22.5452 112.839 23.1385C113.134 23.7318 113.281 24.4245 113.281 25.2166C113.281 26.0054 113.134 26.6948 112.839 27.2848C112.544 27.8748 112.13 28.3338 111.596 28.6619C111.062 28.9901 110.438 29.1541 109.722 29.1541ZM109.727 27.9062C110.191 27.9062 110.575 27.7836 110.88 27.5384C111.185 27.2931 111.41 26.9666 111.556 26.5589C111.705 26.1513 111.78 25.7022 111.78 25.2116C111.78 24.7244 111.705 24.277 111.556 23.8693C111.41 23.4583 111.185 23.1286 110.88 22.88C110.575 22.6314 110.191 22.5071 109.727 22.5071C109.259 22.5071 108.872 22.6314 108.563 22.88C108.258 23.1286 108.031 23.4583 107.882 23.8693C107.736 24.277 107.664 24.7244 107.664 25.2116C107.664 25.7022 107.736 26.1513 107.882 26.5589C108.031 26.9666 108.258 27.2931 108.563 27.5384C108.872 27.7836 109.259 27.9062 109.727 27.9062ZM116.308 26.4098L116.298 24.5952H116.556L119.599 21.3636H121.379L117.909 25.0426H117.675L116.308 26.4098ZM114.941 29V18.8182H116.427V29H114.941ZM119.763 29L117.029 25.3707L118.053 24.3317L121.588 29H119.763Z" fill="#111313"/>
<path d="M59.8778 48.1449C59.2045 48.142 58.6293 47.9645 58.152 47.6122C57.6747 47.2599 57.3097 46.7472 57.0568 46.0739C56.804 45.4006 56.6776 44.5895 56.6776 43.6406C56.6776 42.6946 56.804 41.8864 57.0568 41.2159C57.3125 40.5455 57.679 40.0341 58.1562 39.6818C58.6364 39.3295 59.2102 39.1534 59.8778 39.1534C60.5455 39.1534 61.1179 39.331 61.5952 39.6861C62.0724 40.0384 62.4375 40.5497 62.6903 41.2202C62.946 41.8878 63.0739 42.6946 63.0739 43.6406C63.0739 44.5923 62.9474 45.4048 62.6946 46.0781C62.4418 46.7486 62.0767 47.2614 61.5994 47.6165C61.1222 47.9688 60.5483 48.1449 59.8778 48.1449ZM59.8778 47.0071C60.4688 47.0071 60.9304 46.7188 61.2628 46.142C61.598 45.5653 61.7656 44.7315 61.7656 43.6406C61.7656 42.9162 61.6889 42.304 61.5355 41.804C61.3849 41.3011 61.1676 40.9205 60.8835 40.6619C60.6023 40.4006 60.267 40.2699 59.8778 40.2699C59.2898 40.2699 58.8281 40.5597 58.4929 41.1392C58.1577 41.7187 57.9886 42.5526 57.9858 43.6406C57.9858 44.3679 58.0611 44.983 58.2116 45.4858C58.3651 45.9858 58.5824 46.3651 58.8636 46.6236C59.1449 46.8793 59.483 47.0071 59.8778 47.0071ZM65.1257 48.081C64.8928 48.081 64.6925 47.9986 64.5249 47.8338C64.3572 47.6662 64.2734 47.4645 64.2734 47.2287C64.2734 46.9957 64.3572 46.7969 64.5249 46.6321C64.6925 46.4645 64.8928 46.3807 65.1257 46.3807C65.3587 46.3807 65.5589 46.4645 65.7266 46.6321C65.8942 46.7969 65.978 46.9957 65.978 47.2287C65.978 47.3849 65.9382 47.5284 65.8587 47.6591C65.782 47.7869 65.6797 47.8892 65.5518 47.9659C65.424 48.0426 65.282 48.081 65.1257 48.081ZM70.3896 48.1449C69.7163 48.142 69.141 47.9645 68.6637 47.6122C68.1864 47.2599 67.8214 46.7472 67.5685 46.0739C67.3157 45.4006 67.1893 44.5895 67.1893 43.6406C67.1893 42.6946 67.3157 41.8864 67.5685 41.2159C67.8242 40.5455 68.1907 40.0341 68.668 39.6818C69.1481 39.3295 69.7219 39.1534 70.3896 39.1534C71.0572 39.1534 71.6296 39.331 72.1069 39.6861C72.5842 40.0384 72.9492 40.5497 73.2021 41.2202C73.4577 41.8878 73.5856 42.6946 73.5856 43.6406C73.5856 44.5923 73.4592 45.4048 73.2063 46.0781C72.9535 46.7486 72.5884 47.2614 72.1112 47.6165C71.6339 47.9688 71.06 48.1449 70.3896 48.1449ZM70.3896 47.0071C70.9805 47.0071 71.4421 46.7188 71.7745 46.142C72.1097 45.5653 72.2773 44.7315 72.2773 43.6406C72.2773 42.9162 72.2006 42.304 72.0472 41.804C71.8967 41.3011 71.6793 40.9205 71.3952 40.6619C71.114 40.4006 70.7788 40.2699 70.3896 40.2699C69.8015 40.2699 69.3398 40.5597 69.0046 41.1392C68.6694 41.7187 68.5004 42.5526 68.4975 43.6406C68.4975 44.3679 68.5728 44.983 68.7234 45.4858C68.8768 45.9858 69.0941 46.3651 69.3754 46.6236C69.6566 46.8793 69.9947 47.0071 70.3896 47.0071ZM75.0973 48V47.0455L78.0504 43.9858C78.3658 43.6534 78.6257 43.3622 78.8303 43.1122C79.0376 42.8594 79.1925 42.6193 79.2947 42.392C79.397 42.1648 79.4482 41.9233 79.4482 41.6676C79.4482 41.3778 79.38 41.1278 79.2436 40.9176C79.1072 40.7045 78.9212 40.5412 78.6854 40.4276C78.4496 40.3111 78.1839 40.2528 77.8885 40.2528C77.576 40.2528 77.3033 40.3168 77.0703 40.4446C76.8374 40.5724 76.6584 40.7528 76.5334 40.9858C76.4084 41.2187 76.3459 41.4915 76.3459 41.804H75.0888C75.0888 41.2727 75.2109 40.8082 75.4553 40.4105C75.6996 40.0128 76.0348 39.7045 76.4609 39.4858C76.8871 39.2642 77.3714 39.1534 77.9141 39.1534C78.4624 39.1534 78.9453 39.2628 79.3629 39.4815C79.7834 39.6974 80.1115 39.9929 80.3473 40.3679C80.5831 40.7401 80.701 41.1605 80.701 41.6293C80.701 41.9531 80.6399 42.2699 80.5178 42.5795C80.3984 42.8892 80.1896 43.2344 79.8913 43.6151C79.593 43.9929 79.1783 44.4517 78.647 44.9915L76.9126 46.8068V46.8707H80.8416V48H75.0973ZM90.5543 43.0526L89.3995 43.2571C89.3512 43.1094 89.2745 42.9687 89.1694 42.8352C89.0671 42.7017 88.9279 42.5923 88.7518 42.5071C88.5756 42.4219 88.3555 42.3793 88.0913 42.3793C87.7305 42.3793 87.4293 42.4602 87.1879 42.6222C86.9464 42.7812 86.8256 42.9872 86.8256 43.2401C86.8256 43.4588 86.9066 43.6349 87.0685 43.7685C87.2305 43.902 87.4918 44.0114 87.8526 44.0966L88.8924 44.3352C89.4947 44.4744 89.9435 44.6889 90.239 44.9787C90.5344 45.2685 90.6822 45.6449 90.6822 46.108C90.6822 46.5 90.5685 46.8494 90.3413 47.1562C90.1168 47.4602 89.8029 47.6989 89.3995 47.8722C88.9989 48.0455 88.5344 48.1321 88.006 48.1321C87.2731 48.1321 86.6751 47.9759 86.212 47.6634C85.7489 47.348 85.4648 46.9006 85.3597 46.321L86.5913 46.1335C86.668 46.4545 86.8256 46.6974 87.0643 46.8622C87.3029 47.0241 87.614 47.1051 87.9975 47.1051C88.4151 47.1051 88.7489 47.0185 88.9989 46.8452C89.2489 46.669 89.3739 46.4545 89.3739 46.2017C89.3739 45.9972 89.2972 45.8253 89.1438 45.6861C88.9933 45.5469 88.7617 45.4418 88.4492 45.3707L87.3413 45.1278C86.7305 44.9886 86.2788 44.767 85.9862 44.4631C85.6964 44.1591 85.5515 43.7741 85.5515 43.3082C85.5515 42.9219 85.6594 42.5838 85.8754 42.294C86.0913 42.0043 86.3896 41.7784 86.7702 41.6165C87.1509 41.4517 87.587 41.3693 88.0785 41.3693C88.7859 41.3693 89.3427 41.5227 89.7489 41.8295C90.1552 42.1335 90.4237 42.5412 90.5543 43.0526ZM93.3572 44.1136V48H92.0831V39.2727H93.3402V42.5199H93.4212C93.5746 42.1676 93.8089 41.8878 94.1243 41.6804C94.4396 41.473 94.8516 41.3693 95.3601 41.3693C95.8089 41.3693 96.201 41.4616 96.5362 41.6463C96.8743 41.831 97.1357 42.1065 97.3203 42.473C97.5078 42.8366 97.6016 43.2912 97.6016 43.8366V48H96.3274V43.9901C96.3274 43.5099 96.2038 43.1378 95.9567 42.8736C95.7095 42.6065 95.3658 42.473 94.9254 42.473C94.6243 42.473 94.3544 42.5369 94.1158 42.6648C93.88 42.7926 93.6939 42.9801 93.5575 43.2273C93.424 43.4716 93.3572 43.767 93.3572 44.1136ZM101.207 48.1449C100.792 48.1449 100.417 48.0682 100.082 47.9148C99.7464 47.7585 99.4808 47.5327 99.2848 47.2372C99.0916 46.9418 98.995 46.5795 98.995 46.1506C98.995 45.7812 99.0661 45.4773 99.2081 45.2386C99.3501 45 99.5419 44.8111 99.7834 44.6719C100.025 44.5327 100.295 44.4276 100.593 44.3565C100.891 44.2855 101.195 44.2315 101.505 44.1946C101.897 44.1491 102.215 44.1122 102.46 44.0838C102.704 44.0526 102.881 44.0028 102.992 43.9347C103.103 43.8665 103.158 43.7557 103.158 43.6023V43.5724C103.158 43.2003 103.053 42.9119 102.843 42.7074C102.636 42.5028 102.326 42.4006 101.914 42.4006C101.485 42.4006 101.147 42.4957 100.9 42.6861C100.656 42.8736 100.487 43.0824 100.393 43.3125L99.1953 43.0398C99.3374 42.642 99.5447 42.321 99.8175 42.0767C100.093 41.8295 100.41 41.6506 100.768 41.5398C101.126 41.4261 101.502 41.3693 101.897 41.3693C102.158 41.3693 102.435 41.4006 102.728 41.4631C103.023 41.5227 103.299 41.6335 103.555 41.7955C103.813 41.9574 104.025 42.1889 104.19 42.4901C104.354 42.7884 104.437 43.1761 104.437 43.6534V48H103.192V47.1051H103.141C103.059 47.2699 102.935 47.4318 102.771 47.5909C102.606 47.75 102.394 47.8821 102.136 47.9872C101.877 48.0923 101.567 48.1449 101.207 48.1449ZM101.484 47.1222C101.836 47.1222 102.137 47.0526 102.387 46.9134C102.64 46.7741 102.832 46.5923 102.962 46.3679C103.096 46.1406 103.163 45.8977 103.163 45.6392V44.7955C103.117 44.8409 103.029 44.8835 102.898 44.9233C102.771 44.9602 102.624 44.9929 102.46 45.0213C102.295 45.0469 102.134 45.071 101.978 45.0938C101.822 45.1136 101.691 45.1307 101.586 45.1449C101.339 45.1761 101.113 45.2287 100.908 45.3026C100.707 45.3764 100.545 45.483 100.423 45.6222C100.303 45.7585 100.244 45.9403 100.244 46.1676C100.244 46.483 100.36 46.7216 100.593 46.8835C100.826 47.0426 101.123 47.1222 101.484 47.1222ZM106.134 48V41.4545H107.365V42.4943H107.434C107.553 42.142 107.763 41.8651 108.064 41.6634C108.368 41.4588 108.712 41.3565 109.096 41.3565C109.175 41.3565 109.269 41.3594 109.377 41.3651C109.488 41.3707 109.574 41.3778 109.637 41.3864V42.6051C109.586 42.5909 109.495 42.5753 109.364 42.5582C109.233 42.5384 109.103 42.5284 108.972 42.5284C108.671 42.5284 108.402 42.5923 108.167 42.7202C107.934 42.8452 107.749 43.0199 107.613 43.2443C107.476 43.4659 107.408 43.7187 107.408 44.0028V48H106.134ZM113.326 48.1321C112.681 48.1321 112.126 47.9943 111.66 47.7188C111.197 47.4403 110.839 47.0497 110.586 46.5469C110.336 46.0412 110.211 45.4489 110.211 44.7699C110.211 44.0994 110.336 43.5085 110.586 42.9972C110.839 42.4858 111.191 42.0866 111.643 41.7997C112.097 41.5128 112.629 41.3693 113.237 41.3693C113.606 41.3693 113.964 41.4304 114.31 41.5526C114.657 41.6747 114.968 41.8665 115.244 42.1278C115.519 42.3892 115.737 42.7287 115.896 43.1463C116.055 43.5611 116.134 44.0653 116.134 44.6591V45.1108H110.931V44.1562H114.886C114.886 43.821 114.817 43.5241 114.681 43.2656C114.545 43.0043 114.353 42.7983 114.106 42.6477C113.862 42.4972 113.575 42.4219 113.245 42.4219C112.887 42.4219 112.575 42.5099 112.308 42.6861C112.043 42.8594 111.839 43.0866 111.694 43.3679C111.552 43.6463 111.481 43.9489 111.481 44.2756V45.0213C111.481 45.4588 111.558 45.831 111.711 46.1378C111.867 46.4446 112.085 46.679 112.363 46.8409C112.641 47 112.967 47.0795 113.339 47.0795C113.58 47.0795 113.8 47.0455 113.999 46.9773C114.198 46.9062 114.37 46.8011 114.515 46.6619C114.66 46.5227 114.771 46.3509 114.847 46.1463L116.053 46.3636C115.957 46.7187 115.783 47.0298 115.533 47.2969C115.286 47.5611 114.975 47.767 114.6 47.9148C114.228 48.0597 113.803 48.1321 113.326 48.1321ZM122.453 43.0526L121.298 43.2571C121.25 43.1094 121.173 42.9687 121.068 42.8352C120.966 42.7017 120.826 42.5923 120.65 42.5071C120.474 42.4219 120.254 42.3793 119.99 42.3793C119.629 42.3793 119.328 42.4602 119.086 42.6222C118.845 42.7812 118.724 42.9872 118.724 43.2401C118.724 43.4588 118.805 43.6349 118.967 43.7685C119.129 43.902 119.39 44.0114 119.751 44.0966L120.791 44.3352C121.393 44.4744 121.842 44.6889 122.137 44.9787C122.433 45.2685 122.581 45.6449 122.581 46.108C122.581 46.5 122.467 46.8494 122.24 47.1562C122.015 47.4602 121.701 47.6989 121.298 47.8722C120.897 48.0455 120.433 48.1321 119.904 48.1321C119.172 48.1321 118.574 47.9759 118.11 47.6634C117.647 47.348 117.363 46.9006 117.258 46.321L118.49 46.1335C118.566 46.4545 118.724 46.6974 118.963 46.8622C119.201 47.0241 119.512 47.1051 119.896 47.1051C120.314 47.1051 120.647 47.0185 120.897 46.8452C121.147 46.669 121.272 46.4545 121.272 46.2017C121.272 45.9972 121.196 45.8253 121.042 45.6861C120.892 45.5469 120.66 45.4418 120.348 45.3707L119.24 45.1278C118.629 44.9886 118.177 44.767 117.885 44.4631C117.595 44.1591 117.45 43.7741 117.45 43.3082C117.45 42.9219 117.558 42.5838 117.774 42.294C117.99 42.0043 118.288 41.7784 118.669 41.6165C119.049 41.4517 119.485 41.3693 119.977 41.3693C120.684 41.3693 121.241 41.5227 121.647 41.8295C122.054 42.1335 122.322 42.5412 122.453 43.0526Z" fill="#A0ABBB"/>
<path d="M280.547 30.2727V17.5455H281.363V30.2727H280.547ZM283.098 21.4929C283.045 21.0223 282.826 20.6577 282.441 20.3991C282.057 20.1373 281.573 20.0064 280.99 20.0064C280.572 20.0064 280.211 20.0727 279.906 20.2053C279.601 20.3345 279.364 20.5135 279.195 20.7422C279.029 20.9676 278.946 21.2244 278.946 21.5128C278.946 21.7547 279.003 21.9635 279.115 22.1392C279.231 22.3149 279.382 22.4624 279.568 22.5817C279.757 22.6977 279.959 22.7955 280.174 22.875C280.39 22.9512 280.597 23.0142 280.796 23.0639L281.79 23.3224C282.115 23.402 282.448 23.5097 282.789 23.6456C283.131 23.7815 283.447 23.9605 283.739 24.1825C284.031 24.4046 284.266 24.6797 284.445 25.0078C284.627 25.3359 284.718 25.7287 284.718 26.1861C284.718 26.7628 284.569 27.2749 284.271 27.7223C283.976 28.1697 283.547 28.5227 282.983 28.7812C282.423 29.0398 281.745 29.169 280.95 29.169C280.188 29.169 279.528 29.0481 278.971 28.8061C278.414 28.5642 277.979 28.2211 277.664 27.777C277.349 27.3295 277.175 26.7992 277.142 26.1861H278.683C278.713 26.554 278.832 26.8606 279.041 27.1058C279.253 27.3478 279.523 27.5284 279.851 27.6477C280.183 27.7637 280.546 27.8217 280.94 27.8217C281.374 27.8217 281.76 27.7538 282.098 27.6179C282.44 27.4787 282.708 27.2865 282.904 27.0412C283.099 26.7926 283.197 26.5026 283.197 26.1712C283.197 25.8696 283.111 25.6226 282.939 25.4304C282.77 25.2382 282.539 25.0791 282.248 24.9531C281.959 24.8272 281.633 24.7161 281.268 24.62L280.065 24.2919C279.25 24.0698 278.603 23.7434 278.126 23.3125C277.652 22.8816 277.415 22.3116 277.415 21.6023C277.415 21.0156 277.574 20.5036 277.892 20.0661C278.211 19.6286 278.641 19.2888 279.185 19.0469C279.729 18.8016 280.342 18.679 281.025 18.679C281.714 18.679 282.322 18.8 282.849 19.0419C283.379 19.2839 283.797 19.617 284.102 20.0412C284.407 20.4621 284.566 20.946 284.579 21.4929H283.098ZM289.776 29.1392C289.153 29.1392 288.593 29.0199 288.095 28.7812C287.602 28.5393 287.207 28.2079 286.912 27.7869C286.617 27.366 286.46 26.8854 286.44 26.3452H287.931C287.968 26.7827 288.162 27.1423 288.513 27.424C288.864 27.7057 289.285 27.8466 289.776 27.8466C290.167 27.8466 290.513 27.7571 290.815 27.5781C291.12 27.3958 291.358 27.1456 291.531 26.8274C291.706 26.5092 291.794 26.1463 291.794 25.7386C291.794 25.3243 291.705 24.9548 291.526 24.63C291.347 24.3052 291.1 24.05 290.785 23.8643C290.473 23.6787 290.115 23.5843 289.711 23.581C289.403 23.581 289.093 23.634 288.781 23.7401C288.47 23.8461 288.218 23.9853 288.026 24.1577L286.619 23.9489L287.191 18.8182H292.789V20.1357H288.468L288.145 22.9844H288.205C288.404 22.7921 288.667 22.6314 288.995 22.5021C289.327 22.3729 289.681 22.3082 290.059 22.3082C290.679 22.3082 291.231 22.4557 291.715 22.7507C292.202 23.0457 292.585 23.4484 292.863 23.9588C293.145 24.4659 293.284 25.0492 293.281 25.7088C293.284 26.3684 293.135 26.9567 292.833 27.4737C292.535 27.9908 292.121 28.3984 291.59 28.6967C291.063 28.9917 290.459 29.1392 289.776 29.1392ZM295.727 29.0945C295.455 29.0945 295.221 28.9983 295.026 28.8061C294.83 28.6106 294.732 28.3752 294.732 28.1001C294.732 27.8284 294.83 27.5964 295.026 27.4041C295.221 27.2086 295.455 27.1108 295.727 27.1108C295.999 27.1108 296.232 27.2086 296.428 27.4041C296.623 27.5964 296.721 27.8284 296.721 28.1001C296.721 28.2824 296.675 28.4498 296.582 28.6023C296.492 28.7514 296.373 28.8707 296.224 28.9602C296.075 29.0497 295.909 29.0945 295.727 29.0945ZM301.325 18.8182V29H299.784V20.3594H299.724L297.288 21.9503V20.4787L299.828 18.8182H301.325ZM307.634 29.1392C307.18 29.1326 306.732 29.0497 306.291 28.8906C305.854 28.7315 305.456 28.4664 305.098 28.0952C304.74 27.724 304.454 27.2251 304.238 26.5987C304.026 25.9723 303.92 25.1901 303.92 24.2521C303.92 23.3639 304.008 22.575 304.183 21.8857C304.362 21.1963 304.619 20.6146 304.954 20.1406C305.289 19.6634 305.693 19.3004 306.167 19.0518C306.641 18.8033 307.173 18.679 307.763 18.679C308.369 18.679 308.908 18.7983 309.379 19.0369C309.849 19.2756 310.231 19.6054 310.522 20.0263C310.817 20.4472 311.004 20.9261 311.084 21.4631H309.568C309.465 21.0388 309.261 20.6925 308.956 20.424C308.651 20.1555 308.253 20.0213 307.763 20.0213C307.017 20.0213 306.436 20.3461 306.018 20.9957C305.604 21.6454 305.395 22.5485 305.392 23.7053H305.466C305.642 23.4169 305.857 23.1716 306.112 22.9695C306.371 22.764 306.659 22.6065 306.977 22.4972C307.299 22.3845 307.637 22.3281 307.992 22.3281C308.582 22.3281 309.115 22.4723 309.593 22.7607C310.073 23.0457 310.456 23.4401 310.741 23.9439C311.026 24.4477 311.169 25.0244 311.169 25.674C311.169 26.3236 311.021 26.9119 310.726 27.4389C310.434 27.9659 310.023 28.3835 309.493 28.6918C308.963 28.9967 308.343 29.1458 307.634 29.1392ZM307.629 27.8466C308.02 27.8466 308.369 27.7505 308.678 27.5582C308.986 27.366 309.23 27.1075 309.409 26.7827C309.588 26.4579 309.677 26.0949 309.677 25.6939C309.677 25.3028 309.589 24.9465 309.414 24.625C309.241 24.3035 309.003 24.0483 308.698 23.8594C308.396 23.6705 308.051 23.576 307.664 23.576C307.369 23.576 307.095 23.6323 306.843 23.745C306.595 23.8577 306.376 24.0135 306.187 24.2124C305.998 24.4112 305.849 24.6399 305.74 24.8984C305.633 25.1536 305.58 25.4238 305.58 25.7088C305.58 26.09 305.668 26.4429 305.844 26.7678C306.023 27.0926 306.267 27.3544 306.575 27.5533C306.886 27.7488 307.238 27.8466 307.629 27.8466Z" fill="#111313"/>
<path d="M285.679 48H282.853V39.2727H285.768C286.623 39.2727 287.358 39.4474 287.971 39.7969C288.585 40.1435 289.055 40.642 289.382 41.2926C289.711 41.9403 289.876 42.7173 289.876 43.6236C289.876 44.5327 289.71 45.3139 289.377 45.9673C289.048 46.6207 288.571 47.1236 287.946 47.4759C287.321 47.8253 286.565 48 285.679 48ZM284.17 46.8494H285.606C286.271 46.8494 286.824 46.7244 287.264 46.4744C287.704 46.2216 288.034 45.8565 288.252 45.3793C288.471 44.8991 288.581 44.3139 288.581 43.6236C288.581 42.9389 288.471 42.358 288.252 41.8807C288.037 41.4034 287.714 41.0412 287.285 40.794C286.856 40.5469 286.324 40.4233 285.687 40.4233H284.17V46.8494ZM294.168 48.1321C293.555 48.1321 293.019 47.9915 292.562 47.7102C292.104 47.429 291.749 47.0355 291.496 46.5298C291.244 46.0241 291.117 45.4332 291.117 44.7571C291.117 44.0781 291.244 43.4844 291.496 42.9759C291.749 42.4673 292.104 42.0724 292.562 41.7912C293.019 41.5099 293.555 41.3693 294.168 41.3693C294.782 41.3693 295.317 41.5099 295.775 41.7912C296.232 42.0724 296.587 42.4673 296.84 42.9759C297.093 43.4844 297.219 44.0781 297.219 44.7571C297.219 45.4332 297.093 46.0241 296.84 46.5298C296.587 47.0355 296.232 47.429 295.775 47.7102C295.317 47.9915 294.782 48.1321 294.168 48.1321ZM294.173 47.0625C294.57 47.0625 294.9 46.9574 295.161 46.7472C295.423 46.5369 295.616 46.2571 295.741 45.9077C295.869 45.5582 295.933 45.1733 295.933 44.7528C295.933 44.3352 295.869 43.9517 295.741 43.6023C295.616 43.25 295.423 42.9673 295.161 42.7543C294.9 42.5412 294.57 42.4347 294.173 42.4347C293.772 42.4347 293.44 42.5412 293.175 42.7543C292.914 42.9673 292.719 43.25 292.592 43.6023C292.467 43.9517 292.404 44.3352 292.404 44.7528C292.404 45.1733 292.467 45.5582 292.592 45.9077C292.719 46.2571 292.914 46.5369 293.175 46.7472C293.44 46.9574 293.772 47.0625 294.173 47.0625ZM299.916 44.1136V48H298.642V41.4545H299.865V42.5199H299.946C300.096 42.1733 300.332 41.8949 300.653 41.6847C300.977 41.4744 301.385 41.3693 301.876 41.3693C302.322 41.3693 302.713 41.4631 303.048 41.6506C303.383 41.8352 303.643 42.1108 303.828 42.4773C304.012 42.8437 304.105 43.2969 304.105 43.8366V48H302.831V43.9901C302.831 43.5156 302.707 43.1449 302.46 42.8778C302.213 42.608 301.873 42.473 301.441 42.473C301.146 42.473 300.883 42.5369 300.653 42.6648C300.426 42.7926 300.245 42.9801 300.112 43.2273C299.981 43.4716 299.916 43.767 299.916 44.1136ZM308.635 48.1321C307.99 48.1321 307.434 47.9943 306.968 47.7188C306.505 47.4403 306.147 47.0497 305.895 46.5469C305.645 46.0412 305.52 45.4489 305.52 44.7699C305.52 44.0994 305.645 43.5085 305.895 42.9972C306.147 42.4858 306.5 42.0866 306.951 41.7997C307.406 41.5128 307.937 41.3693 308.545 41.3693C308.914 41.3693 309.272 41.4304 309.619 41.5526C309.966 41.6747 310.277 41.8665 310.552 42.1278C310.828 42.3892 311.045 42.7287 311.204 43.1463C311.363 43.5611 311.443 44.0653 311.443 44.6591V45.1108H306.24V44.1562H310.194C310.194 43.821 310.126 43.5241 309.99 43.2656C309.853 43.0043 309.662 42.7983 309.414 42.6477C309.17 42.4972 308.883 42.4219 308.554 42.4219C308.196 42.4219 307.883 42.5099 307.616 42.6861C307.352 42.8594 307.147 43.0866 307.002 43.3679C306.86 43.6463 306.789 43.9489 306.789 44.2756V45.0213C306.789 45.4588 306.866 45.831 307.02 46.1378C307.176 46.4446 307.393 46.679 307.672 46.8409C307.95 47 308.275 47.0795 308.647 47.0795C308.889 47.0795 309.109 47.0455 309.308 46.9773C309.507 46.9062 309.679 46.8011 309.824 46.6619C309.968 46.5227 310.079 46.3509 310.156 46.1463L311.362 46.3636C311.265 46.7187 311.092 47.0298 310.842 47.2969C310.595 47.5611 310.284 47.767 309.909 47.9148C309.537 48.0597 309.112 48.1321 308.635 48.1321Z" fill="#A0ABBB"/>
<defs>
<clipPath id="clip0_4771_4895">
<rect width="20" height="20" fill="white" transform="translate(22 22)"/>
</clipPath>
</defs>
</svg>
