<svg width="328" height="64" viewBox="0 0 328 64" fill="none" xmlns="http://www.w3.org/2000/svg">
<rect width="328" height="64" rx="16" fill="white"/>
<rect x="15.3333" y="15.3333" width="33.3333" height="33.3333" rx="16.6667" fill="#F7F7F7"/>
<rect x="15.3333" y="15.3333" width="33.3333" height="33.3333" rx="16.6667" stroke="white" stroke-width="1.33333"/>
<g clip-path="url(#clip0_4936_24202)">
<path d="M24.6957 24.6958H31.6522V31.6523H24.6957V24.6958Z" fill="#F35325"/>
<path d="M32.3478 24.6958H39.3043V31.6523H32.3478V24.6958Z" fill="#81BC06"/>
<path d="M24.6957 32.3477H31.6522V39.3042H24.6957V32.3477Z" fill="#05A6F0"/>
<path d="M32.3478 32.3477H39.3043V39.3042H32.3478V32.3477Z" fill="#FFBA08"/>
</g>
<path d="M57.1186 18.8182H58.983L62.2244 26.733H62.3438L65.5852 18.8182H67.4496V29H65.9879V21.6321H65.8935L62.8906 28.9851H61.6776L58.6747 21.6271H58.5803V29H57.1186V18.8182ZM75.2363 21.4929C75.1833 21.0223 74.9645 20.6577 74.5801 20.3991C74.1956 20.1373 73.7117 20.0064 73.1284 20.0064C72.7108 20.0064 72.3495 20.0727 72.0446 20.2053C71.7396 20.3345 71.5027 20.5135 71.3336 20.7422C71.1679 20.9676 71.085 21.2244 71.085 21.5128C71.085 21.7547 71.1414 21.9635 71.2541 22.1392C71.3701 22.3149 71.5209 22.4624 71.7065 22.5817C71.8954 22.6977 72.0976 22.7955 72.313 22.875C72.5285 22.9512 72.7356 23.0142 72.9345 23.0639L73.9288 23.3224C74.2536 23.402 74.5867 23.5097 74.9281 23.6456C75.2695 23.7815 75.586 23.9605 75.8777 24.1825C76.1693 24.4046 76.4047 24.6797 76.5836 25.0078C76.7659 25.3359 76.8571 25.7287 76.8571 26.1861C76.8571 26.7628 76.7079 27.2749 76.4096 27.7223C76.1146 28.1697 75.6854 28.5227 75.122 28.7812C74.5618 29.0398 73.8841 29.169 73.0886 29.169C72.3263 29.169 71.6667 29.0481 71.1099 28.8061C70.5531 28.5642 70.1172 28.2211 69.8024 27.777C69.4875 27.3295 69.3135 26.7992 69.2804 26.1861H70.8216C70.8514 26.554 70.9707 26.8606 71.1795 27.1058C71.3916 27.3478 71.6618 27.5284 71.9899 27.6477C72.3213 27.7637 72.6842 27.8217 73.0787 27.8217C73.5128 27.8217 73.899 27.7538 74.237 27.6179C74.5784 27.4787 74.8469 27.2865 75.0424 27.0412C75.238 26.7926 75.3358 26.5026 75.3358 26.1712C75.3358 25.8696 75.2496 25.6226 75.0772 25.4304C74.9082 25.2382 74.6779 25.0791 74.3862 24.9531C74.0978 24.8272 73.7714 24.7161 73.4068 24.62L72.2037 24.2919C71.3883 24.0698 70.742 23.7434 70.2647 23.3125C69.7908 22.8816 69.5538 22.3116 69.5538 21.6023C69.5538 21.0156 69.7129 20.5036 70.0311 20.0661C70.3493 19.6286 70.7801 19.2888 71.3237 19.0469C71.8672 18.8016 72.4804 18.679 73.1632 18.679C73.8526 18.679 74.4608 18.8 74.9877 19.0419C75.5181 19.2839 75.9357 19.617 76.2406 20.0412C76.5455 20.4621 76.7046 20.946 76.7179 21.4929H75.2363ZM78.6928 29V18.8182H85.0067V20.1406H80.229V23.2429H84.5543V24.5604H80.229V29H78.6928ZM86.3938 20.1406V18.8182H94.2738V20.1406H91.0969V29H89.5657V20.1406H86.3938Z" fill="#111313"/>
<path d="M59.8778 48.1449C59.2045 48.142 58.6293 47.9645 58.152 47.6122C57.6747 47.2599 57.3097 46.7472 57.0568 46.0739C56.804 45.4006 56.6776 44.5895 56.6776 43.6406C56.6776 42.6946 56.804 41.8864 57.0568 41.2159C57.3125 40.5455 57.679 40.0341 58.1562 39.6818C58.6364 39.3295 59.2102 39.1534 59.8778 39.1534C60.5455 39.1534 61.1179 39.331 61.5952 39.6861C62.0724 40.0384 62.4375 40.5497 62.6903 41.2202C62.946 41.8878 63.0739 42.6946 63.0739 43.6406C63.0739 44.5923 62.9474 45.4048 62.6946 46.0781C62.4418 46.7486 62.0767 47.2614 61.5994 47.6165C61.1222 47.9688 60.5483 48.1449 59.8778 48.1449ZM59.8778 47.0071C60.4688 47.0071 60.9304 46.7188 61.2628 46.142C61.598 45.5653 61.7656 44.7315 61.7656 43.6406C61.7656 42.9162 61.6889 42.304 61.5355 41.804C61.3849 41.3011 61.1676 40.9205 60.8835 40.6619C60.6023 40.4006 60.267 40.2699 59.8778 40.2699C59.2898 40.2699 58.8281 40.5597 58.4929 41.1392C58.1577 41.7187 57.9886 42.5526 57.9858 43.6406C57.9858 44.3679 58.0611 44.983 58.2116 45.4858C58.3651 45.9858 58.5824 46.3651 58.8636 46.6236C59.1449 46.8793 59.483 47.0071 59.8778 47.0071ZM65.1257 48.081C64.8928 48.081 64.6925 47.9986 64.5249 47.8338C64.3572 47.6662 64.2734 47.4645 64.2734 47.2287C64.2734 46.9957 64.3572 46.7969 64.5249 46.6321C64.6925 46.4645 64.8928 46.3807 65.1257 46.3807C65.3587 46.3807 65.5589 46.4645 65.7266 46.6321C65.8942 46.7969 65.978 46.9957 65.978 47.2287C65.978 47.3849 65.9382 47.5284 65.8587 47.6591C65.782 47.7869 65.6797 47.8892 65.5518 47.9659C65.424 48.0426 65.282 48.081 65.1257 48.081ZM70.3896 48.1449C69.7163 48.142 69.141 47.9645 68.6637 47.6122C68.1864 47.2599 67.8214 46.7472 67.5685 46.0739C67.3157 45.4006 67.1893 44.5895 67.1893 43.6406C67.1893 42.6946 67.3157 41.8864 67.5685 41.2159C67.8242 40.5455 68.1907 40.0341 68.668 39.6818C69.1481 39.3295 69.7219 39.1534 70.3896 39.1534C71.0572 39.1534 71.6296 39.331 72.1069 39.6861C72.5842 40.0384 72.9492 40.5497 73.2021 41.2202C73.4577 41.8878 73.5856 42.6946 73.5856 43.6406C73.5856 44.5923 73.4592 45.4048 73.2063 46.0781C72.9535 46.7486 72.5884 47.2614 72.1112 47.6165C71.6339 47.9688 71.06 48.1449 70.3896 48.1449ZM70.3896 47.0071C70.9805 47.0071 71.4421 46.7188 71.7745 46.142C72.1097 45.5653 72.2773 44.7315 72.2773 43.6406C72.2773 42.9162 72.2006 42.304 72.0472 41.804C71.8967 41.3011 71.6793 40.9205 71.3952 40.6619C71.114 40.4006 70.7788 40.2699 70.3896 40.2699C69.8015 40.2699 69.3398 40.5597 69.0046 41.1392C68.6694 41.7187 68.5004 42.5526 68.4975 43.6406C68.4975 44.3679 68.5728 44.983 68.7234 45.4858C68.8768 45.9858 69.0941 46.3651 69.3754 46.6236C69.6566 46.8793 69.9947 47.0071 70.3896 47.0071ZM75.0973 48V47.0455L78.0504 43.9858C78.3658 43.6534 78.6257 43.3622 78.8303 43.1122C79.0376 42.8594 79.1925 42.6193 79.2947 42.392C79.397 42.1648 79.4482 41.9233 79.4482 41.6676C79.4482 41.3778 79.38 41.1278 79.2436 40.9176C79.1072 40.7045 78.9212 40.5412 78.6854 40.4276C78.4496 40.3111 78.1839 40.2528 77.8885 40.2528C77.576 40.2528 77.3033 40.3168 77.0703 40.4446C76.8374 40.5724 76.6584 40.7528 76.5334 40.9858C76.4084 41.2187 76.3459 41.4915 76.3459 41.804H75.0888C75.0888 41.2727 75.2109 40.8082 75.4553 40.4105C75.6996 40.0128 76.0348 39.7045 76.4609 39.4858C76.8871 39.2642 77.3714 39.1534 77.9141 39.1534C78.4624 39.1534 78.9453 39.2628 79.3629 39.4815C79.7834 39.6974 80.1115 39.9929 80.3473 40.3679C80.5831 40.7401 80.701 41.1605 80.701 41.6293C80.701 41.9531 80.6399 42.2699 80.5178 42.5795C80.3984 42.8892 80.1896 43.2344 79.8913 43.6151C79.593 43.9929 79.1783 44.4517 78.647 44.9915L76.9126 46.8068V46.8707H80.8416V48H75.0973ZM90.5543 43.0526L89.3995 43.2571C89.3512 43.1094 89.2745 42.9687 89.1694 42.8352C89.0671 42.7017 88.9279 42.5923 88.7518 42.5071C88.5756 42.4219 88.3555 42.3793 88.0913 42.3793C87.7305 42.3793 87.4293 42.4602 87.1879 42.6222C86.9464 42.7812 86.8256 42.9872 86.8256 43.2401C86.8256 43.4588 86.9066 43.6349 87.0685 43.7685C87.2305 43.902 87.4918 44.0114 87.8526 44.0966L88.8924 44.3352C89.4947 44.4744 89.9435 44.6889 90.239 44.9787C90.5344 45.2685 90.6822 45.6449 90.6822 46.108C90.6822 46.5 90.5685 46.8494 90.3413 47.1562C90.1168 47.4602 89.8029 47.6989 89.3995 47.8722C88.9989 48.0455 88.5344 48.1321 88.006 48.1321C87.2731 48.1321 86.6751 47.9759 86.212 47.6634C85.7489 47.348 85.4648 46.9006 85.3597 46.321L86.5913 46.1335C86.668 46.4545 86.8256 46.6974 87.0643 46.8622C87.3029 47.0241 87.614 47.1051 87.9975 47.1051C88.4151 47.1051 88.7489 47.0185 88.9989 46.8452C89.2489 46.669 89.3739 46.4545 89.3739 46.2017C89.3739 45.9972 89.2972 45.8253 89.1438 45.6861C88.9933 45.5469 88.7617 45.4418 88.4492 45.3707L87.3413 45.1278C86.7305 44.9886 86.2788 44.767 85.9862 44.4631C85.6964 44.1591 85.5515 43.7741 85.5515 43.3082C85.5515 42.9219 85.6594 42.5838 85.8754 42.294C86.0913 42.0043 86.3896 41.7784 86.7702 41.6165C87.1509 41.4517 87.587 41.3693 88.0785 41.3693C88.7859 41.3693 89.3427 41.5227 89.7489 41.8295C90.1552 42.1335 90.4237 42.5412 90.5543 43.0526ZM93.3572 44.1136V48H92.0831V39.2727H93.3402V42.5199H93.4212C93.5746 42.1676 93.8089 41.8878 94.1243 41.6804C94.4396 41.473 94.8516 41.3693 95.3601 41.3693C95.8089 41.3693 96.201 41.4616 96.5362 41.6463C96.8743 41.831 97.1357 42.1065 97.3203 42.473C97.5078 42.8366 97.6016 43.2912 97.6016 43.8366V48H96.3274V43.9901C96.3274 43.5099 96.2038 43.1378 95.9567 42.8736C95.7095 42.6065 95.3658 42.473 94.9254 42.473C94.6243 42.473 94.3544 42.5369 94.1158 42.6648C93.88 42.7926 93.6939 42.9801 93.5575 43.2273C93.424 43.4716 93.3572 43.767 93.3572 44.1136ZM101.207 48.1449C100.792 48.1449 100.417 48.0682 100.082 47.9148C99.7464 47.7585 99.4808 47.5327 99.2848 47.2372C99.0916 46.9418 98.995 46.5795 98.995 46.1506C98.995 45.7812 99.0661 45.4773 99.2081 45.2386C99.3501 45 99.5419 44.8111 99.7834 44.6719C100.025 44.5327 100.295 44.4276 100.593 44.3565C100.891 44.2855 101.195 44.2315 101.505 44.1946C101.897 44.1491 102.215 44.1122 102.46 44.0838C102.704 44.0526 102.881 44.0028 102.992 43.9347C103.103 43.8665 103.158 43.7557 103.158 43.6023V43.5724C103.158 43.2003 103.053 42.9119 102.843 42.7074C102.636 42.5028 102.326 42.4006 101.914 42.4006C101.485 42.4006 101.147 42.4957 100.9 42.6861C100.656 42.8736 100.487 43.0824 100.393 43.3125L99.1953 43.0398C99.3374 42.642 99.5447 42.321 99.8175 42.0767C100.093 41.8295 100.41 41.6506 100.768 41.5398C101.126 41.4261 101.502 41.3693 101.897 41.3693C102.158 41.3693 102.435 41.4006 102.728 41.4631C103.023 41.5227 103.299 41.6335 103.555 41.7955C103.813 41.9574 104.025 42.1889 104.19 42.4901C104.354 42.7884 104.437 43.1761 104.437 43.6534V48H103.192V47.1051H103.141C103.059 47.2699 102.935 47.4318 102.771 47.5909C102.606 47.75 102.394 47.8821 102.136 47.9872C101.877 48.0923 101.567 48.1449 101.207 48.1449ZM101.484 47.1222C101.836 47.1222 102.137 47.0526 102.387 46.9134C102.64 46.7741 102.832 46.5923 102.962 46.3679C103.096 46.1406 103.163 45.8977 103.163 45.6392V44.7955C103.117 44.8409 103.029 44.8835 102.898 44.9233C102.771 44.9602 102.624 44.9929 102.46 45.0213C102.295 45.0469 102.134 45.071 101.978 45.0938C101.822 45.1136 101.691 45.1307 101.586 45.1449C101.339 45.1761 101.113 45.2287 100.908 45.3026C100.707 45.3764 100.545 45.483 100.423 45.6222C100.303 45.7585 100.244 45.9403 100.244 46.1676C100.244 46.483 100.36 46.7216 100.593 46.8835C100.826 47.0426 101.123 47.1222 101.484 47.1222ZM106.134 48V41.4545H107.365V42.4943H107.434C107.553 42.142 107.763 41.8651 108.064 41.6634C108.368 41.4588 108.712 41.3565 109.096 41.3565C109.175 41.3565 109.269 41.3594 109.377 41.3651C109.488 41.3707 109.574 41.3778 109.637 41.3864V42.6051C109.586 42.5909 109.495 42.5753 109.364 42.5582C109.233 42.5384 109.103 42.5284 108.972 42.5284C108.671 42.5284 108.402 42.5923 108.167 42.7202C107.934 42.8452 107.749 43.0199 107.613 43.2443C107.476 43.4659 107.408 43.7187 107.408 44.0028V48H106.134ZM113.326 48.1321C112.681 48.1321 112.126 47.9943 111.66 47.7188C111.197 47.4403 110.839 47.0497 110.586 46.5469C110.336 46.0412 110.211 45.4489 110.211 44.7699C110.211 44.0994 110.336 43.5085 110.586 42.9972C110.839 42.4858 111.191 42.0866 111.643 41.7997C112.097 41.5128 112.629 41.3693 113.237 41.3693C113.606 41.3693 113.964 41.4304 114.31 41.5526C114.657 41.6747 114.968 41.8665 115.244 42.1278C115.519 42.3892 115.737 42.7287 115.896 43.1463C116.055 43.5611 116.134 44.0653 116.134 44.6591V45.1108H110.931V44.1562H114.886C114.886 43.821 114.817 43.5241 114.681 43.2656C114.545 43.0043 114.353 42.7983 114.106 42.6477C113.862 42.4972 113.575 42.4219 113.245 42.4219C112.887 42.4219 112.575 42.5099 112.308 42.6861C112.043 42.8594 111.839 43.0866 111.694 43.3679C111.552 43.6463 111.481 43.9489 111.481 44.2756V45.0213C111.481 45.4588 111.558 45.831 111.711 46.1378C111.867 46.4446 112.085 46.679 112.363 46.8409C112.641 47 112.967 47.0795 113.339 47.0795C113.58 47.0795 113.8 47.0455 113.999 46.9773C114.198 46.9062 114.37 46.8011 114.515 46.6619C114.66 46.5227 114.771 46.3509 114.847 46.1463L116.053 46.3636C115.957 46.7187 115.783 47.0298 115.533 47.2969C115.286 47.5611 114.975 47.767 114.6 47.9148C114.228 48.0597 113.803 48.1321 113.326 48.1321ZM122.453 43.0526L121.298 43.2571C121.25 43.1094 121.173 42.9687 121.068 42.8352C120.966 42.7017 120.826 42.5923 120.65 42.5071C120.474 42.4219 120.254 42.3793 119.99 42.3793C119.629 42.3793 119.328 42.4602 119.086 42.6222C118.845 42.7812 118.724 42.9872 118.724 43.2401C118.724 43.4588 118.805 43.6349 118.967 43.7685C119.129 43.902 119.39 44.0114 119.751 44.0966L120.791 44.3352C121.393 44.4744 121.842 44.6889 122.137 44.9787C122.433 45.2685 122.581 45.6449 122.581 46.108C122.581 46.5 122.467 46.8494 122.24 47.1562C122.015 47.4602 121.701 47.6989 121.298 47.8722C120.897 48.0455 120.433 48.1321 119.904 48.1321C119.172 48.1321 118.574 47.9759 118.11 47.6634C117.647 47.348 117.363 46.9006 117.258 46.321L118.49 46.1335C118.566 46.4545 118.724 46.6974 118.963 46.8622C119.201 47.0241 119.512 47.1051 119.896 47.1051C120.314 47.1051 120.647 47.0185 120.897 46.8452C121.147 46.669 121.272 46.4545 121.272 46.2017C121.272 45.9972 121.196 45.8253 121.042 45.6861C120.892 45.5469 120.66 45.4418 120.348 45.3707L119.24 45.1278C118.629 44.9886 118.177 44.767 117.885 44.4631C117.595 44.1591 117.45 43.7741 117.45 43.3082C117.45 42.9219 117.558 42.5838 117.774 42.294C117.99 42.0043 118.288 41.7784 118.669 41.6165C119.049 41.4517 119.485 41.3693 119.977 41.3693C120.684 41.3693 121.241 41.5227 121.647 41.8295C122.054 42.1335 122.322 42.5412 122.453 43.0526Z" fill="#64748B"/>
<path d="M276.514 30.2727V17.5455H277.329V30.2727H276.514ZM279.064 21.4929C279.011 21.0223 278.793 20.6577 278.408 20.3991C278.024 20.1373 277.54 20.0064 276.956 20.0064C276.539 20.0064 276.178 20.0727 275.873 20.2053C275.568 20.3345 275.331 20.5135 275.162 20.7422C274.996 20.9676 274.913 21.2244 274.913 21.5128C274.913 21.7547 274.97 21.9635 275.082 22.1392C275.198 22.3149 275.349 22.4624 275.535 22.5817C275.724 22.6977 275.926 22.7955 276.141 22.875C276.357 22.9512 276.564 23.0142 276.763 23.0639L277.757 23.3224C278.082 23.402 278.415 23.5097 278.756 23.6456C279.098 23.7815 279.414 23.9605 279.706 24.1825C279.997 24.4046 280.233 24.6797 280.412 25.0078C280.594 25.3359 280.685 25.7287 280.685 26.1861C280.685 26.7628 280.536 27.2749 280.238 27.7223C279.943 28.1697 279.514 28.5227 278.95 28.7812C278.39 29.0398 277.712 29.169 276.917 29.169C276.154 29.169 275.495 29.0481 274.938 28.8061C274.381 28.5642 273.945 28.2211 273.631 27.777C273.316 27.3295 273.142 26.7992 273.108 26.1861H274.65C274.68 26.554 274.799 26.8606 275.008 27.1058C275.22 27.3478 275.49 27.5284 275.818 27.6477C276.149 27.7637 276.512 27.8217 276.907 27.8217C277.341 27.8217 277.727 27.7538 278.065 27.6179C278.407 27.4787 278.675 27.2865 278.871 27.0412C279.066 26.7926 279.164 26.5026 279.164 26.1712C279.164 25.8696 279.078 25.6226 278.905 25.4304C278.736 25.2382 278.506 25.0791 278.214 24.9531C277.926 24.8272 277.599 24.7161 277.235 24.62L276.032 24.2919C275.216 24.0698 274.57 23.7434 274.093 23.3125C273.619 22.8816 273.382 22.3116 273.382 21.6023C273.382 21.0156 273.541 20.5036 273.859 20.0661C274.177 19.6286 274.608 19.2888 275.152 19.0469C275.695 18.8016 276.309 18.679 276.991 18.679C277.681 18.679 278.289 18.8 278.816 19.0419C279.346 19.2839 279.764 19.617 280.069 20.0412C280.374 20.4621 280.533 20.946 280.546 21.4929H279.064ZM285.936 29.1392C285.482 29.1326 285.035 29.0497 284.594 28.8906C284.157 28.7315 283.759 28.4664 283.401 28.0952C283.043 27.724 282.756 27.2251 282.541 26.5987C282.329 25.9723 282.223 25.1901 282.223 24.2521C282.223 23.3639 282.31 22.575 282.486 21.8857C282.665 21.1963 282.922 20.6146 283.257 20.1406C283.592 19.6634 283.996 19.3004 284.47 19.0518C284.944 18.8033 285.476 18.679 286.066 18.679C286.672 18.679 287.211 18.7983 287.681 19.0369C288.152 19.2756 288.533 19.6054 288.825 20.0263C289.12 20.4472 289.307 20.9261 289.387 21.4631H287.87C287.768 21.0388 287.564 20.6925 287.259 20.424C286.954 20.1555 286.556 20.0213 286.066 20.0213C285.32 20.0213 284.738 20.3461 284.321 20.9957C283.906 21.6454 283.698 22.5485 283.694 23.7053H283.769C283.944 23.4169 284.16 23.1716 284.415 22.9695C284.674 22.764 284.962 22.6065 285.28 22.4972C285.602 22.3845 285.94 22.3281 286.294 22.3281C286.884 22.3281 287.418 22.4723 287.895 22.7607C288.376 23.0457 288.759 23.4401 289.044 23.9439C289.329 24.4477 289.471 25.0244 289.471 25.674C289.471 26.3236 289.324 26.9119 289.029 27.4389C288.737 27.9659 288.326 28.3835 287.796 28.6918C287.266 28.9967 286.646 29.1458 285.936 29.1392ZM285.931 27.8466C286.323 27.8466 286.672 27.7505 286.98 27.5582C287.289 27.366 287.532 27.1075 287.711 26.7827C287.89 26.4579 287.98 26.0949 287.98 25.6939C287.98 25.3028 287.892 24.9465 287.716 24.625C287.544 24.3035 287.305 24.0483 287 23.8594C286.699 23.6705 286.354 23.576 285.966 23.576C285.671 23.576 285.398 23.6323 285.146 23.745C284.897 23.8577 284.679 24.0135 284.49 24.2124C284.301 24.4112 284.152 24.6399 284.042 24.8984C283.936 25.1536 283.883 25.4238 283.883 25.7088C283.883 26.09 283.971 26.4429 284.147 26.7678C284.326 27.0926 284.569 27.3544 284.877 27.5533C285.189 27.7488 285.54 27.8466 285.931 27.8466ZM291.817 29.0945C291.545 29.0945 291.311 28.9983 291.116 28.8061C290.92 28.6106 290.822 28.3752 290.822 28.1001C290.822 27.8284 290.92 27.5964 291.116 27.4041C291.311 27.2086 291.545 27.1108 291.817 27.1108C292.088 27.1108 292.322 27.2086 292.518 27.4041C292.713 27.5964 292.811 27.8284 292.811 28.1001C292.811 28.2824 292.765 28.4498 292.672 28.6023C292.582 28.7514 292.463 28.8707 292.314 28.9602C292.165 29.0497 291.999 29.0945 291.817 29.0945ZM294.568 27.0114V25.7685L298.968 18.8182H299.948V20.6477H299.326L296.179 25.6293V25.7088H302.21V27.0114H294.568ZM299.396 29V26.6335L299.406 26.0668V18.8182H300.862V29H299.396ZM307.487 29.169C306.702 29.1657 306.03 28.9586 305.474 28.5476C304.917 28.1366 304.491 27.5384 304.196 26.7528C303.901 25.9673 303.753 25.0211 303.753 23.9141C303.753 22.8104 303.901 21.8674 304.196 21.0852C304.494 20.303 304.922 19.7064 305.479 19.2955C306.039 18.8845 306.708 18.679 307.487 18.679C308.266 18.679 308.934 18.8861 309.491 19.3004C310.047 19.7114 310.473 20.308 310.768 21.0902C311.067 21.8691 311.216 22.8104 311.216 23.9141C311.216 25.0244 311.068 25.9723 310.773 26.7578C310.478 27.54 310.052 28.1383 309.496 28.5526C308.939 28.9635 308.269 29.169 307.487 29.169ZM307.487 27.8416C308.176 27.8416 308.715 27.5052 309.103 26.8324C309.494 26.1596 309.689 25.1868 309.689 23.9141C309.689 23.0689 309.6 22.3546 309.421 21.7713C309.245 21.1847 308.992 20.7405 308.66 20.4389C308.332 20.134 307.941 19.9815 307.487 19.9815C306.801 19.9815 306.262 20.3196 305.871 20.9957C305.48 21.6719 305.283 22.6446 305.28 23.9141C305.28 24.7625 305.367 25.4801 305.543 26.0668C305.722 26.6501 305.976 27.0926 306.304 27.3942C306.632 27.6925 307.026 27.8416 307.487 27.8416Z" fill="#111313"/>
<path d="M285.679 48H282.853V39.2727H285.768C286.623 39.2727 287.358 39.4474 287.971 39.7969C288.585 40.1435 289.055 40.642 289.382 41.2926C289.711 41.9403 289.876 42.7173 289.876 43.6236C289.876 44.5327 289.71 45.3139 289.377 45.9673C289.048 46.6207 288.571 47.1236 287.946 47.4759C287.321 47.8253 286.565 48 285.679 48ZM284.17 46.8494H285.606C286.271 46.8494 286.824 46.7244 287.264 46.4744C287.704 46.2216 288.034 45.8565 288.252 45.3793C288.471 44.8991 288.581 44.3139 288.581 43.6236C288.581 42.9389 288.471 42.358 288.252 41.8807C288.037 41.4034 287.714 41.0412 287.285 40.794C286.856 40.5469 286.324 40.4233 285.687 40.4233H284.17V46.8494ZM294.168 48.1321C293.555 48.1321 293.019 47.9915 292.562 47.7102C292.104 47.429 291.749 47.0355 291.496 46.5298C291.244 46.0241 291.117 45.4332 291.117 44.7571C291.117 44.0781 291.244 43.4844 291.496 42.9759C291.749 42.4673 292.104 42.0724 292.562 41.7912C293.019 41.5099 293.555 41.3693 294.168 41.3693C294.782 41.3693 295.317 41.5099 295.775 41.7912C296.232 42.0724 296.587 42.4673 296.84 42.9759C297.093 43.4844 297.219 44.0781 297.219 44.7571C297.219 45.4332 297.093 46.0241 296.84 46.5298C296.587 47.0355 296.232 47.429 295.775 47.7102C295.317 47.9915 294.782 48.1321 294.168 48.1321ZM294.173 47.0625C294.57 47.0625 294.9 46.9574 295.161 46.7472C295.423 46.5369 295.616 46.2571 295.741 45.9077C295.869 45.5582 295.933 45.1733 295.933 44.7528C295.933 44.3352 295.869 43.9517 295.741 43.6023C295.616 43.25 295.423 42.9673 295.161 42.7543C294.9 42.5412 294.57 42.4347 294.173 42.4347C293.772 42.4347 293.44 42.5412 293.175 42.7543C292.914 42.9673 292.719 43.25 292.592 43.6023C292.467 43.9517 292.404 44.3352 292.404 44.7528C292.404 45.1733 292.467 45.5582 292.592 45.9077C292.719 46.2571 292.914 46.5369 293.175 46.7472C293.44 46.9574 293.772 47.0625 294.173 47.0625ZM299.916 44.1136V48H298.642V41.4545H299.865V42.5199H299.946C300.096 42.1733 300.332 41.8949 300.653 41.6847C300.977 41.4744 301.385 41.3693 301.876 41.3693C302.322 41.3693 302.713 41.4631 303.048 41.6506C303.383 41.8352 303.643 42.1108 303.828 42.4773C304.012 42.8437 304.105 43.2969 304.105 43.8366V48H302.831V43.9901C302.831 43.5156 302.707 43.1449 302.46 42.8778C302.213 42.608 301.873 42.473 301.441 42.473C301.146 42.473 300.883 42.5369 300.653 42.6648C300.426 42.7926 300.245 42.9801 300.112 43.2273C299.981 43.4716 299.916 43.767 299.916 44.1136ZM308.635 48.1321C307.99 48.1321 307.434 47.9943 306.968 47.7188C306.505 47.4403 306.147 47.0497 305.895 46.5469C305.645 46.0412 305.52 45.4489 305.52 44.7699C305.52 44.0994 305.645 43.5085 305.895 42.9972C306.147 42.4858 306.5 42.0866 306.951 41.7997C307.406 41.5128 307.937 41.3693 308.545 41.3693C308.914 41.3693 309.272 41.4304 309.619 41.5526C309.966 41.6747 310.277 41.8665 310.552 42.1278C310.828 42.3892 311.045 42.7287 311.204 43.1463C311.363 43.5611 311.443 44.0653 311.443 44.6591V45.1108H306.24V44.1562H310.194C310.194 43.821 310.126 43.5241 309.99 43.2656C309.853 43.0043 309.662 42.7983 309.414 42.6477C309.17 42.4972 308.883 42.4219 308.554 42.4219C308.196 42.4219 307.883 42.5099 307.616 42.6861C307.352 42.8594 307.147 43.0866 307.002 43.3679C306.86 43.6463 306.789 43.9489 306.789 44.2756V45.0213C306.789 45.4588 306.866 45.831 307.02 46.1378C307.176 46.4446 307.393 46.679 307.672 46.8409C307.95 47 308.275 47.0795 308.647 47.0795C308.889 47.0795 309.109 47.0455 309.308 46.9773C309.507 46.9062 309.679 46.8011 309.824 46.6619C309.968 46.5227 310.079 46.3509 310.156 46.1463L311.362 46.3636C311.265 46.7187 311.092 47.0298 310.842 47.2969C310.595 47.5611 310.284 47.767 309.909 47.9148C309.537 48.0597 309.112 48.1321 308.635 48.1321Z" fill="#64748B"/>
<defs>
<clipPath id="clip0_4936_24202">
<rect width="16" height="16" fill="white" transform="translate(24 24)"/>
</clipPath>
</defs>
</svg>
