<svg width="328" height="64" viewBox="0 0 328 64" fill="none" xmlns="http://www.w3.org/2000/svg">
<rect width="328" height="64" rx="16" fill="white"/>
<rect x="15.3333" y="15.3333" width="33.3333" height="33.3333" rx="16.6667" fill="#F7F7F7"/>
<rect x="15.3333" y="15.3333" width="33.3333" height="33.3333" rx="16.6667" stroke="white" stroke-width="1.33333"/>
<g clip-path="url(#clip0_4936_24218)">
<path d="M39.2176 38.1469C31.1216 41.9999 26.0972 38.7762 22.8809 36.8182C22.6819 36.6948 22.3436 36.8471 22.6371 37.1842C23.7086 38.4834 27.2202 41.6149 31.8038 41.6149C36.3906 41.6149 39.1193 39.1122 39.4606 38.6756C39.7997 38.2427 39.5602 38.0039 39.2175 38.1469H39.2176ZM41.4913 36.8912C41.2739 36.6081 40.1693 36.5553 39.4742 36.6407C38.7779 36.7237 37.7329 37.1492 37.8237 37.4047C37.8704 37.5004 37.9655 37.4574 38.4438 37.4144C38.9234 37.3666 40.267 37.197 40.5469 37.563C40.8282 37.9315 40.1184 39.6869 39.9888 39.97C39.8635 40.2532 40.0366 40.3262 40.2719 40.1376C40.5039 39.9491 40.924 39.461 41.2058 38.7702C41.4858 38.0757 41.6566 37.1068 41.4913 36.8912Z" fill="#FF9900"/>
<path fill-rule="evenodd" clip-rule="evenodd" d="M33.774 30.285C33.774 31.296 33.7995 32.1391 33.2885 33.0369C32.8761 33.7669 32.2228 34.2158 31.4929 34.2158C30.4964 34.2158 29.9161 33.4566 29.9161 32.3362C29.9161 30.1244 31.8979 29.7229 33.774 29.7229V30.285ZM36.3908 36.61C36.2193 36.7633 35.9711 36.7743 35.7777 36.6721C34.9163 35.9567 34.763 35.6246 34.2886 34.9421C32.8652 36.3947 31.8578 36.829 30.0111 36.829C27.8285 36.829 26.1277 35.4822 26.1277 32.7851C26.1277 30.6792 27.2701 29.2448 28.8942 28.5441C30.303 27.9236 32.2703 27.8141 33.774 27.6426V27.3068C33.774 26.6899 33.8214 25.96 33.4601 25.4272C33.1425 24.949 32.5367 24.7519 32.0038 24.7519C31.0147 24.7519 30.1315 25.2592 29.9161 26.3104C29.8723 26.544 29.7008 26.774 29.4672 26.7849L26.9489 26.5148C26.7372 26.4673 26.5037 26.2958 26.562 25.9709C27.1423 22.9198 29.8978 22 32.365 22C33.6279 22 35.2775 22.3358 36.274 23.2921C37.5368 24.4709 37.4163 26.0439 37.4163 27.7557V31.7996C37.4163 33.015 37.92 33.5478 38.3945 34.2048C38.5623 34.4384 38.5989 34.7195 38.3871 34.8946C37.8579 35.3362 36.9163 36.1575 36.3981 36.6174L36.3908 36.61" fill="black"/>
<path d="M39.2176 38.1469C31.1216 41.9999 26.0972 38.7762 22.8809 36.8182C22.6819 36.6948 22.3436 36.8471 22.6371 37.1842C23.7086 38.4834 27.2202 41.6149 31.8038 41.6149C36.3906 41.6149 39.1193 39.1122 39.4606 38.6756C39.7997 38.2427 39.5602 38.0039 39.2175 38.1469H39.2176ZM41.4913 36.8912C41.2739 36.6081 40.1693 36.5553 39.4742 36.6407C38.7779 36.7237 37.7329 37.1492 37.8237 37.4047C37.8704 37.5004 37.9655 37.4574 38.4438 37.4144C38.9234 37.3666 40.267 37.197 40.5469 37.563C40.8282 37.9315 40.1184 39.6869 39.9888 39.97C39.8635 40.2532 40.0366 40.3262 40.2719 40.1376C40.5039 39.9491 40.924 39.461 41.2058 38.7702C41.4858 38.0757 41.6566 37.1068 41.4913 36.8912Z" fill="#FF9900"/>
<path fill-rule="evenodd" clip-rule="evenodd" d="M33.774 30.285C33.774 31.296 33.7995 32.1391 33.2885 33.0369C32.8761 33.7669 32.2228 34.2158 31.4929 34.2158C30.4964 34.2158 29.9161 33.4566 29.9161 32.3362C29.9161 30.1244 31.8979 29.7229 33.774 29.7229V30.285ZM36.3908 36.61C36.2193 36.7633 35.9711 36.7743 35.7777 36.6721C34.9163 35.9567 34.763 35.6246 34.2886 34.9421C32.8652 36.3947 31.8578 36.829 30.0111 36.829C27.8285 36.829 26.1277 35.4822 26.1277 32.7851C26.1277 30.6792 27.2701 29.2448 28.8942 28.5441C30.303 27.9236 32.2703 27.8141 33.774 27.6426V27.3068C33.774 26.6899 33.8214 25.96 33.4601 25.4272C33.1425 24.949 32.5367 24.7519 32.0038 24.7519C31.0147 24.7519 30.1315 25.2592 29.9161 26.3104C29.8723 26.544 29.7008 26.774 29.4672 26.7849L26.9489 26.5148C26.7372 26.4673 26.5037 26.2958 26.562 25.9709C27.1423 22.9198 29.8978 22 32.365 22C33.6279 22 35.2775 22.3358 36.274 23.2921C37.5368 24.4709 37.4163 26.0439 37.4163 27.7557V31.7996C37.4163 33.015 37.92 33.5478 38.3945 34.2048C38.5623 34.4384 38.5989 34.7195 38.3871 34.8946C37.8579 35.3362 36.9163 36.1575 36.3981 36.6174L36.3908 36.61" fill="black"/>
</g>
<path d="M57.9787 29H56.348L60.0121 18.8182H61.7869L65.451 29H63.8203L60.9418 20.6676H60.8622L57.9787 29ZM58.2521 25.0128H63.5419V26.3054H58.2521V25.0128ZM66.9213 18.8182H68.7857L72.0272 26.733H72.1465L75.388 18.8182H77.2523V29H75.7907V21.6321H75.6962L72.6934 28.9851H71.4803L68.4775 21.6271H68.383V29H66.9213V18.8182ZM79.2223 29V27.9759L84.5767 20.1406H79.1776V18.8182H86.456V19.8423L81.1016 27.6776H86.5007V29H79.2223ZM96.6452 18.8182V29H95.2333L90.0579 21.5327H89.9634V29H88.4272V18.8182H89.8491L95.0295 26.2955H95.1239V18.8182H96.6452Z" fill="#111313"/>
<path d="M59.8778 48.1449C59.2045 48.142 58.6293 47.9645 58.152 47.6122C57.6747 47.2599 57.3097 46.7472 57.0568 46.0739C56.804 45.4006 56.6776 44.5895 56.6776 43.6406C56.6776 42.6946 56.804 41.8864 57.0568 41.2159C57.3125 40.5455 57.679 40.0341 58.1562 39.6818C58.6364 39.3295 59.2102 39.1534 59.8778 39.1534C60.5455 39.1534 61.1179 39.331 61.5952 39.6861C62.0724 40.0384 62.4375 40.5497 62.6903 41.2202C62.946 41.8878 63.0739 42.6946 63.0739 43.6406C63.0739 44.5923 62.9474 45.4048 62.6946 46.0781C62.4418 46.7486 62.0767 47.2614 61.5994 47.6165C61.1222 47.9688 60.5483 48.1449 59.8778 48.1449ZM59.8778 47.0071C60.4688 47.0071 60.9304 46.7188 61.2628 46.142C61.598 45.5653 61.7656 44.7315 61.7656 43.6406C61.7656 42.9162 61.6889 42.304 61.5355 41.804C61.3849 41.3011 61.1676 40.9205 60.8835 40.6619C60.6023 40.4006 60.267 40.2699 59.8778 40.2699C59.2898 40.2699 58.8281 40.5597 58.4929 41.1392C58.1577 41.7187 57.9886 42.5526 57.9858 43.6406C57.9858 44.3679 58.0611 44.983 58.2116 45.4858C58.3651 45.9858 58.5824 46.3651 58.8636 46.6236C59.1449 46.8793 59.483 47.0071 59.8778 47.0071ZM65.1257 48.081C64.8928 48.081 64.6925 47.9986 64.5249 47.8338C64.3572 47.6662 64.2734 47.4645 64.2734 47.2287C64.2734 46.9957 64.3572 46.7969 64.5249 46.6321C64.6925 46.4645 64.8928 46.3807 65.1257 46.3807C65.3587 46.3807 65.5589 46.4645 65.7266 46.6321C65.8942 46.7969 65.978 46.9957 65.978 47.2287C65.978 47.3849 65.9382 47.5284 65.8587 47.6591C65.782 47.7869 65.6797 47.8892 65.5518 47.9659C65.424 48.0426 65.282 48.081 65.1257 48.081ZM70.3896 48.1449C69.7163 48.142 69.141 47.9645 68.6637 47.6122C68.1864 47.2599 67.8214 46.7472 67.5685 46.0739C67.3157 45.4006 67.1893 44.5895 67.1893 43.6406C67.1893 42.6946 67.3157 41.8864 67.5685 41.2159C67.8242 40.5455 68.1907 40.0341 68.668 39.6818C69.1481 39.3295 69.7219 39.1534 70.3896 39.1534C71.0572 39.1534 71.6296 39.331 72.1069 39.6861C72.5842 40.0384 72.9492 40.5497 73.2021 41.2202C73.4577 41.8878 73.5856 42.6946 73.5856 43.6406C73.5856 44.5923 73.4592 45.4048 73.2063 46.0781C72.9535 46.7486 72.5884 47.2614 72.1112 47.6165C71.6339 47.9688 71.06 48.1449 70.3896 48.1449ZM70.3896 47.0071C70.9805 47.0071 71.4421 46.7188 71.7745 46.142C72.1097 45.5653 72.2773 44.7315 72.2773 43.6406C72.2773 42.9162 72.2006 42.304 72.0472 41.804C71.8967 41.3011 71.6793 40.9205 71.3952 40.6619C71.114 40.4006 70.7788 40.2699 70.3896 40.2699C69.8015 40.2699 69.3398 40.5597 69.0046 41.1392C68.6694 41.7187 68.5004 42.5526 68.4975 43.6406C68.4975 44.3679 68.5728 44.983 68.7234 45.4858C68.8768 45.9858 69.0941 46.3651 69.3754 46.6236C69.6566 46.8793 69.9947 47.0071 70.3896 47.0071ZM75.0973 48V47.0455L78.0504 43.9858C78.3658 43.6534 78.6257 43.3622 78.8303 43.1122C79.0376 42.8594 79.1925 42.6193 79.2947 42.392C79.397 42.1648 79.4482 41.9233 79.4482 41.6676C79.4482 41.3778 79.38 41.1278 79.2436 40.9176C79.1072 40.7045 78.9212 40.5412 78.6854 40.4276C78.4496 40.3111 78.1839 40.2528 77.8885 40.2528C77.576 40.2528 77.3033 40.3168 77.0703 40.4446C76.8374 40.5724 76.6584 40.7528 76.5334 40.9858C76.4084 41.2187 76.3459 41.4915 76.3459 41.804H75.0888C75.0888 41.2727 75.2109 40.8082 75.4553 40.4105C75.6996 40.0128 76.0348 39.7045 76.4609 39.4858C76.8871 39.2642 77.3714 39.1534 77.9141 39.1534C78.4624 39.1534 78.9453 39.2628 79.3629 39.4815C79.7834 39.6974 80.1115 39.9929 80.3473 40.3679C80.5831 40.7401 80.701 41.1605 80.701 41.6293C80.701 41.9531 80.6399 42.2699 80.5178 42.5795C80.3984 42.8892 80.1896 43.2344 79.8913 43.6151C79.593 43.9929 79.1783 44.4517 78.647 44.9915L76.9126 46.8068V46.8707H80.8416V48H75.0973ZM90.5543 43.0526L89.3995 43.2571C89.3512 43.1094 89.2745 42.9687 89.1694 42.8352C89.0671 42.7017 88.9279 42.5923 88.7518 42.5071C88.5756 42.4219 88.3555 42.3793 88.0913 42.3793C87.7305 42.3793 87.4293 42.4602 87.1879 42.6222C86.9464 42.7812 86.8256 42.9872 86.8256 43.2401C86.8256 43.4588 86.9066 43.6349 87.0685 43.7685C87.2305 43.902 87.4918 44.0114 87.8526 44.0966L88.8924 44.3352C89.4947 44.4744 89.9435 44.6889 90.239 44.9787C90.5344 45.2685 90.6822 45.6449 90.6822 46.108C90.6822 46.5 90.5685 46.8494 90.3413 47.1562C90.1168 47.4602 89.8029 47.6989 89.3995 47.8722C88.9989 48.0455 88.5344 48.1321 88.006 48.1321C87.2731 48.1321 86.6751 47.9759 86.212 47.6634C85.7489 47.348 85.4648 46.9006 85.3597 46.321L86.5913 46.1335C86.668 46.4545 86.8256 46.6974 87.0643 46.8622C87.3029 47.0241 87.614 47.1051 87.9975 47.1051C88.4151 47.1051 88.7489 47.0185 88.9989 46.8452C89.2489 46.669 89.3739 46.4545 89.3739 46.2017C89.3739 45.9972 89.2972 45.8253 89.1438 45.6861C88.9933 45.5469 88.7617 45.4418 88.4492 45.3707L87.3413 45.1278C86.7305 44.9886 86.2788 44.767 85.9862 44.4631C85.6964 44.1591 85.5515 43.7741 85.5515 43.3082C85.5515 42.9219 85.6594 42.5838 85.8754 42.294C86.0913 42.0043 86.3896 41.7784 86.7702 41.6165C87.1509 41.4517 87.587 41.3693 88.0785 41.3693C88.7859 41.3693 89.3427 41.5227 89.7489 41.8295C90.1552 42.1335 90.4237 42.5412 90.5543 43.0526ZM93.3572 44.1136V48H92.0831V39.2727H93.3402V42.5199H93.4212C93.5746 42.1676 93.8089 41.8878 94.1243 41.6804C94.4396 41.473 94.8516 41.3693 95.3601 41.3693C95.8089 41.3693 96.201 41.4616 96.5362 41.6463C96.8743 41.831 97.1357 42.1065 97.3203 42.473C97.5078 42.8366 97.6016 43.2912 97.6016 43.8366V48H96.3274V43.9901C96.3274 43.5099 96.2038 43.1378 95.9567 42.8736C95.7095 42.6065 95.3658 42.473 94.9254 42.473C94.6243 42.473 94.3544 42.5369 94.1158 42.6648C93.88 42.7926 93.6939 42.9801 93.5575 43.2273C93.424 43.4716 93.3572 43.767 93.3572 44.1136ZM101.207 48.1449C100.792 48.1449 100.417 48.0682 100.082 47.9148C99.7464 47.7585 99.4808 47.5327 99.2848 47.2372C99.0916 46.9418 98.995 46.5795 98.995 46.1506C98.995 45.7812 99.0661 45.4773 99.2081 45.2386C99.3501 45 99.5419 44.8111 99.7834 44.6719C100.025 44.5327 100.295 44.4276 100.593 44.3565C100.891 44.2855 101.195 44.2315 101.505 44.1946C101.897 44.1491 102.215 44.1122 102.46 44.0838C102.704 44.0526 102.881 44.0028 102.992 43.9347C103.103 43.8665 103.158 43.7557 103.158 43.6023V43.5724C103.158 43.2003 103.053 42.9119 102.843 42.7074C102.636 42.5028 102.326 42.4006 101.914 42.4006C101.485 42.4006 101.147 42.4957 100.9 42.6861C100.656 42.8736 100.487 43.0824 100.393 43.3125L99.1953 43.0398C99.3374 42.642 99.5447 42.321 99.8175 42.0767C100.093 41.8295 100.41 41.6506 100.768 41.5398C101.126 41.4261 101.502 41.3693 101.897 41.3693C102.158 41.3693 102.435 41.4006 102.728 41.4631C103.023 41.5227 103.299 41.6335 103.555 41.7955C103.813 41.9574 104.025 42.1889 104.19 42.4901C104.354 42.7884 104.437 43.1761 104.437 43.6534V48H103.192V47.1051H103.141C103.059 47.2699 102.935 47.4318 102.771 47.5909C102.606 47.75 102.394 47.8821 102.136 47.9872C101.877 48.0923 101.567 48.1449 101.207 48.1449ZM101.484 47.1222C101.836 47.1222 102.137 47.0526 102.387 46.9134C102.64 46.7741 102.832 46.5923 102.962 46.3679C103.096 46.1406 103.163 45.8977 103.163 45.6392V44.7955C103.117 44.8409 103.029 44.8835 102.898 44.9233C102.771 44.9602 102.624 44.9929 102.46 45.0213C102.295 45.0469 102.134 45.071 101.978 45.0938C101.822 45.1136 101.691 45.1307 101.586 45.1449C101.339 45.1761 101.113 45.2287 100.908 45.3026C100.707 45.3764 100.545 45.483 100.423 45.6222C100.303 45.7585 100.244 45.9403 100.244 46.1676C100.244 46.483 100.36 46.7216 100.593 46.8835C100.826 47.0426 101.123 47.1222 101.484 47.1222ZM106.134 48V41.4545H107.365V42.4943H107.434C107.553 42.142 107.763 41.8651 108.064 41.6634C108.368 41.4588 108.712 41.3565 109.096 41.3565C109.175 41.3565 109.269 41.3594 109.377 41.3651C109.488 41.3707 109.574 41.3778 109.637 41.3864V42.6051C109.586 42.5909 109.495 42.5753 109.364 42.5582C109.233 42.5384 109.103 42.5284 108.972 42.5284C108.671 42.5284 108.402 42.5923 108.167 42.7202C107.934 42.8452 107.749 43.0199 107.613 43.2443C107.476 43.4659 107.408 43.7187 107.408 44.0028V48H106.134ZM113.326 48.1321C112.681 48.1321 112.126 47.9943 111.66 47.7188C111.197 47.4403 110.839 47.0497 110.586 46.5469C110.336 46.0412 110.211 45.4489 110.211 44.7699C110.211 44.0994 110.336 43.5085 110.586 42.9972C110.839 42.4858 111.191 42.0866 111.643 41.7997C112.097 41.5128 112.629 41.3693 113.237 41.3693C113.606 41.3693 113.964 41.4304 114.31 41.5526C114.657 41.6747 114.968 41.8665 115.244 42.1278C115.519 42.3892 115.737 42.7287 115.896 43.1463C116.055 43.5611 116.134 44.0653 116.134 44.6591V45.1108H110.931V44.1562H114.886C114.886 43.821 114.817 43.5241 114.681 43.2656C114.545 43.0043 114.353 42.7983 114.106 42.6477C113.862 42.4972 113.575 42.4219 113.245 42.4219C112.887 42.4219 112.575 42.5099 112.308 42.6861C112.043 42.8594 111.839 43.0866 111.694 43.3679C111.552 43.6463 111.481 43.9489 111.481 44.2756V45.0213C111.481 45.4588 111.558 45.831 111.711 46.1378C111.867 46.4446 112.085 46.679 112.363 46.8409C112.641 47 112.967 47.0795 113.339 47.0795C113.58 47.0795 113.8 47.0455 113.999 46.9773C114.198 46.9062 114.37 46.8011 114.515 46.6619C114.66 46.5227 114.771 46.3509 114.847 46.1463L116.053 46.3636C115.957 46.7187 115.783 47.0298 115.533 47.2969C115.286 47.5611 114.975 47.767 114.6 47.9148C114.228 48.0597 113.803 48.1321 113.326 48.1321ZM122.453 43.0526L121.298 43.2571C121.25 43.1094 121.173 42.9687 121.068 42.8352C120.966 42.7017 120.826 42.5923 120.65 42.5071C120.474 42.4219 120.254 42.3793 119.99 42.3793C119.629 42.3793 119.328 42.4602 119.086 42.6222C118.845 42.7812 118.724 42.9872 118.724 43.2401C118.724 43.4588 118.805 43.6349 118.967 43.7685C119.129 43.902 119.39 44.0114 119.751 44.0966L120.791 44.3352C121.393 44.4744 121.842 44.6889 122.137 44.9787C122.433 45.2685 122.581 45.6449 122.581 46.108C122.581 46.5 122.467 46.8494 122.24 47.1562C122.015 47.4602 121.701 47.6989 121.298 47.8722C120.897 48.0455 120.433 48.1321 119.904 48.1321C119.172 48.1321 118.574 47.9759 118.11 47.6634C117.647 47.348 117.363 46.9006 117.258 46.321L118.49 46.1335C118.566 46.4545 118.724 46.6974 118.963 46.8622C119.201 47.0241 119.512 47.1051 119.896 47.1051C120.314 47.1051 120.647 47.0185 120.897 46.8452C121.147 46.669 121.272 46.4545 121.272 46.2017C121.272 45.9972 121.196 45.8253 121.042 45.6861C120.892 45.5469 120.66 45.4418 120.348 45.3707L119.24 45.1278C118.629 44.9886 118.177 44.767 117.885 44.4631C117.595 44.1591 117.45 43.7741 117.45 43.3082C117.45 42.9219 117.558 42.5838 117.774 42.294C117.99 42.0043 118.288 41.7784 118.669 41.6165C119.049 41.4517 119.485 41.3693 119.977 41.3693C120.684 41.3693 121.241 41.5227 121.647 41.8295C122.054 42.1335 122.322 42.5412 122.453 43.0526Z" fill="#64748B"/>
<path d="M276.965 30.2727V17.5455H277.781V30.2727H276.965ZM279.516 21.4929C279.463 21.0223 279.244 20.6577 278.859 20.3991C278.475 20.1373 277.991 20.0064 277.408 20.0064C276.99 20.0064 276.629 20.0727 276.324 20.2053C276.019 20.3345 275.782 20.5135 275.613 20.7422C275.447 20.9676 275.364 21.2244 275.364 21.5128C275.364 21.7547 275.421 21.9635 275.533 22.1392C275.649 22.3149 275.8 22.4624 275.986 22.5817C276.175 22.6977 276.377 22.7955 276.592 22.875C276.808 22.9512 277.015 23.0142 277.214 23.0639L278.208 23.3224C278.533 23.402 278.866 23.5097 279.207 23.6456C279.549 23.7815 279.865 23.9605 280.157 24.1825C280.449 24.4046 280.684 24.6797 280.863 25.0078C281.045 25.3359 281.136 25.7287 281.136 26.1861C281.136 26.7628 280.987 27.2749 280.689 27.7223C280.394 28.1697 279.965 28.5227 279.401 28.7812C278.841 29.0398 278.163 29.169 277.368 29.169C276.606 29.169 275.946 29.0481 275.389 28.8061C274.832 28.5642 274.397 28.2211 274.082 27.777C273.767 27.3295 273.593 26.7992 273.56 26.1861H275.101C275.131 26.554 275.25 26.8606 275.459 27.1058C275.671 27.3478 275.941 27.5284 276.269 27.6477C276.601 27.7637 276.964 27.8217 277.358 27.8217C277.792 27.8217 278.178 27.7538 278.516 27.6179C278.858 27.4787 279.126 27.2865 279.322 27.0412C279.517 26.7926 279.615 26.5026 279.615 26.1712C279.615 25.8696 279.529 25.6226 279.357 25.4304C279.188 25.2382 278.957 25.0791 278.665 24.9531C278.377 24.8272 278.051 24.7161 277.686 24.62L276.483 24.2919C275.668 24.0698 275.021 23.7434 274.544 23.3125C274.07 22.8816 273.833 22.3116 273.833 21.6023C273.833 21.0156 273.992 20.5036 274.31 20.0661C274.629 19.6286 275.059 19.2888 275.603 19.0469C276.147 18.8016 276.76 18.679 277.442 18.679C278.132 18.679 278.74 18.8 279.267 19.0419C279.797 19.2839 280.215 19.617 280.52 20.0412C280.825 20.4621 280.984 20.946 280.997 21.4929H279.516ZM286.378 29.1392C285.695 29.1392 285.085 29.0215 284.548 28.7862C284.015 28.5509 283.592 28.2244 283.28 27.8068C282.972 27.3859 282.806 26.8987 282.783 26.3452H284.344C284.364 26.6468 284.465 26.9086 284.648 27.1307C284.833 27.3494 285.075 27.5185 285.373 27.6378C285.672 27.7571 286.003 27.8168 286.368 27.8168C286.769 27.8168 287.123 27.7472 287.432 27.608C287.743 27.4687 287.987 27.2749 288.162 27.0263C288.338 26.7744 288.426 26.4844 288.426 26.1562C288.426 25.8149 288.338 25.5149 288.162 25.2564C287.99 24.9946 287.737 24.7891 287.402 24.6399C287.07 24.4908 286.669 24.4162 286.199 24.4162H285.339V23.1634H286.199C286.577 23.1634 286.908 23.0954 287.193 22.9595C287.481 22.8236 287.707 22.6347 287.869 22.3928C288.032 22.1475 288.113 21.8608 288.113 21.5327C288.113 21.2178 288.041 20.9444 287.899 20.7124C287.76 20.477 287.561 20.2931 287.302 20.1605C287.047 20.0279 286.746 19.9616 286.398 19.9616C286.066 19.9616 285.756 20.023 285.468 20.1456C285.183 20.2649 284.951 20.4373 284.772 20.6626C284.593 20.8847 284.497 21.1515 284.483 21.4631H282.997C283.014 20.9129 283.176 20.429 283.484 20.0114C283.796 19.5937 284.207 19.2673 284.717 19.032C285.228 18.7966 285.794 18.679 286.417 18.679C287.07 18.679 287.634 18.8066 288.108 19.0618C288.585 19.3137 288.953 19.6501 289.211 20.071C289.473 20.492 289.603 20.9527 289.599 21.4531C289.603 22.0232 289.443 22.5071 289.122 22.9048C288.804 23.3026 288.38 23.5694 287.849 23.7053V23.7848C288.525 23.8875 289.049 24.156 289.42 24.5902C289.795 25.0244 289.98 25.563 289.977 26.206C289.98 26.7661 289.825 27.2682 289.51 27.7124C289.198 28.1565 288.772 28.5062 288.232 28.7614C287.692 29.0133 287.074 29.1392 286.378 29.1392ZM292.555 29.0945C292.283 29.0945 292.049 28.9983 291.854 28.8061C291.658 28.6106 291.561 28.3752 291.561 28.1001C291.561 27.8284 291.658 27.5964 291.854 27.4041C292.049 27.2086 292.283 27.1108 292.555 27.1108C292.827 27.1108 293.06 27.2086 293.256 27.4041C293.451 27.5964 293.549 27.8284 293.549 28.1001C293.549 28.2824 293.503 28.4498 293.41 28.6023C293.32 28.7514 293.201 28.8707 293.052 28.9602C292.903 29.0497 292.737 29.0945 292.555 29.0945ZM298.783 18.679C299.237 18.6823 299.685 18.7652 300.125 18.9276C300.566 19.09 300.964 19.3551 301.319 19.723C301.676 20.0909 301.962 20.5881 302.174 21.2145C302.389 21.8376 302.498 22.6132 302.502 23.5412C302.502 24.4328 302.412 25.2266 302.233 25.9226C302.054 26.6153 301.797 27.2003 301.463 27.6776C301.131 28.1548 300.729 28.5178 300.255 28.7663C299.781 29.0149 299.247 29.1392 298.654 29.1392C298.047 29.1392 297.509 29.0199 297.038 28.7812C296.567 28.5426 296.185 28.2128 295.89 27.7919C295.595 27.3677 295.411 26.8804 295.338 26.3303H296.854C296.953 26.7678 297.156 27.1224 297.461 27.3942C297.769 27.6626 298.167 27.7969 298.654 27.7969C299.4 27.7969 299.981 27.4721 300.399 26.8224C300.816 26.1695 301.027 25.258 301.03 24.0881H300.951C300.778 24.3731 300.563 24.6184 300.304 24.8239C300.049 25.0294 299.762 25.1884 299.444 25.3011C299.126 25.4138 298.786 25.4702 298.425 25.4702C297.838 25.4702 297.305 25.326 296.824 25.0376C296.344 24.7493 295.961 24.3532 295.676 23.8494C295.391 23.3456 295.248 22.7706 295.248 22.1243C295.248 21.4813 295.394 20.898 295.686 20.3743C295.981 19.8506 296.392 19.4363 296.919 19.1314C297.449 18.8232 298.07 18.6723 298.783 18.679ZM298.788 19.9716C298.4 19.9716 298.051 20.0677 297.739 20.2599C297.431 20.4489 297.187 20.7057 297.008 21.0305C296.829 21.352 296.74 21.71 296.74 22.1044C296.74 22.4988 296.826 22.8568 296.998 23.1783C297.174 23.4964 297.413 23.75 297.714 23.9389C298.019 24.1245 298.367 24.2173 298.758 24.2173C299.05 24.2173 299.322 24.161 299.574 24.0483C299.825 23.9356 300.046 23.7798 300.235 23.581C300.424 23.3788 300.571 23.1501 300.677 22.8949C300.783 22.6397 300.836 22.3712 300.836 22.0895C300.836 21.715 300.747 21.367 300.568 21.0455C300.392 20.724 300.15 20.4654 299.842 20.2699C299.534 20.071 299.182 19.9716 298.788 19.9716ZM307.659 29.1392C307.035 29.1392 306.475 29.0199 305.978 28.7812C305.484 28.5393 305.09 28.2079 304.795 27.7869C304.5 27.366 304.343 26.8854 304.323 26.3452H305.814C305.851 26.7827 306.044 27.1423 306.396 27.424C306.747 27.7057 307.168 27.8466 307.659 27.8466C308.05 27.8466 308.396 27.7571 308.698 27.5781C309.003 27.3958 309.241 27.1456 309.414 26.8274C309.589 26.5092 309.677 26.1463 309.677 25.7386C309.677 25.3243 309.588 24.9548 309.409 24.63C309.23 24.3052 308.983 24.05 308.668 23.8643C308.356 23.6787 307.998 23.5843 307.594 23.581C307.286 23.581 306.976 23.634 306.664 23.7401C306.353 23.8461 306.101 23.9853 305.909 24.1577L304.502 23.9489L305.073 18.8182H310.671V20.1357H306.351L306.028 22.9844H306.088C306.286 22.7921 306.55 22.6314 306.878 22.5021C307.209 22.3729 307.564 22.3082 307.942 22.3082C308.562 22.3082 309.114 22.4557 309.597 22.7507C310.085 23.0457 310.468 23.4484 310.746 23.9588C311.028 24.4659 311.167 25.0492 311.164 25.7088C311.167 26.3684 311.018 26.9567 310.716 27.4737C310.418 27.9908 310.003 28.3984 309.473 28.6967C308.946 28.9917 308.341 29.1392 307.659 29.1392Z" fill="#111313"/>
<path d="M285.679 48H282.853V39.2727H285.768C286.623 39.2727 287.358 39.4474 287.971 39.7969C288.585 40.1435 289.055 40.642 289.382 41.2926C289.711 41.9403 289.876 42.7173 289.876 43.6236C289.876 44.5327 289.71 45.3139 289.377 45.9673C289.048 46.6207 288.571 47.1236 287.946 47.4759C287.321 47.8253 286.565 48 285.679 48ZM284.17 46.8494H285.606C286.271 46.8494 286.824 46.7244 287.264 46.4744C287.704 46.2216 288.034 45.8565 288.252 45.3793C288.471 44.8991 288.581 44.3139 288.581 43.6236C288.581 42.9389 288.471 42.358 288.252 41.8807C288.037 41.4034 287.714 41.0412 287.285 40.794C286.856 40.5469 286.324 40.4233 285.687 40.4233H284.17V46.8494ZM294.168 48.1321C293.555 48.1321 293.019 47.9915 292.562 47.7102C292.104 47.429 291.749 47.0355 291.496 46.5298C291.244 46.0241 291.117 45.4332 291.117 44.7571C291.117 44.0781 291.244 43.4844 291.496 42.9759C291.749 42.4673 292.104 42.0724 292.562 41.7912C293.019 41.5099 293.555 41.3693 294.168 41.3693C294.782 41.3693 295.317 41.5099 295.775 41.7912C296.232 42.0724 296.587 42.4673 296.84 42.9759C297.093 43.4844 297.219 44.0781 297.219 44.7571C297.219 45.4332 297.093 46.0241 296.84 46.5298C296.587 47.0355 296.232 47.429 295.775 47.7102C295.317 47.9915 294.782 48.1321 294.168 48.1321ZM294.173 47.0625C294.57 47.0625 294.9 46.9574 295.161 46.7472C295.423 46.5369 295.616 46.2571 295.741 45.9077C295.869 45.5582 295.933 45.1733 295.933 44.7528C295.933 44.3352 295.869 43.9517 295.741 43.6023C295.616 43.25 295.423 42.9673 295.161 42.7543C294.9 42.5412 294.57 42.4347 294.173 42.4347C293.772 42.4347 293.44 42.5412 293.175 42.7543C292.914 42.9673 292.719 43.25 292.592 43.6023C292.467 43.9517 292.404 44.3352 292.404 44.7528C292.404 45.1733 292.467 45.5582 292.592 45.9077C292.719 46.2571 292.914 46.5369 293.175 46.7472C293.44 46.9574 293.772 47.0625 294.173 47.0625ZM299.916 44.1136V48H298.642V41.4545H299.865V42.5199H299.946C300.096 42.1733 300.332 41.8949 300.653 41.6847C300.977 41.4744 301.385 41.3693 301.876 41.3693C302.322 41.3693 302.713 41.4631 303.048 41.6506C303.383 41.8352 303.643 42.1108 303.828 42.4773C304.012 42.8437 304.105 43.2969 304.105 43.8366V48H302.831V43.9901C302.831 43.5156 302.707 43.1449 302.46 42.8778C302.213 42.608 301.873 42.473 301.441 42.473C301.146 42.473 300.883 42.5369 300.653 42.6648C300.426 42.7926 300.245 42.9801 300.112 43.2273C299.981 43.4716 299.916 43.767 299.916 44.1136ZM308.635 48.1321C307.99 48.1321 307.434 47.9943 306.968 47.7188C306.505 47.4403 306.147 47.0497 305.895 46.5469C305.645 46.0412 305.52 45.4489 305.52 44.7699C305.52 44.0994 305.645 43.5085 305.895 42.9972C306.147 42.4858 306.5 42.0866 306.951 41.7997C307.406 41.5128 307.937 41.3693 308.545 41.3693C308.914 41.3693 309.272 41.4304 309.619 41.5526C309.966 41.6747 310.277 41.8665 310.552 42.1278C310.828 42.3892 311.045 42.7287 311.204 43.1463C311.363 43.5611 311.443 44.0653 311.443 44.6591V45.1108H306.24V44.1562H310.194C310.194 43.821 310.126 43.5241 309.99 43.2656C309.853 43.0043 309.662 42.7983 309.414 42.6477C309.17 42.4972 308.883 42.4219 308.554 42.4219C308.196 42.4219 307.883 42.5099 307.616 42.6861C307.352 42.8594 307.147 43.0866 307.002 43.3679C306.86 43.6463 306.789 43.9489 306.789 44.2756V45.0213C306.789 45.4588 306.866 45.831 307.02 46.1378C307.176 46.4446 307.393 46.679 307.672 46.8409C307.95 47 308.275 47.0795 308.647 47.0795C308.889 47.0795 309.109 47.0455 309.308 46.9773C309.507 46.9062 309.679 46.8011 309.824 46.6619C309.968 46.5227 310.079 46.3509 310.156 46.1463L311.362 46.3636C311.265 46.7187 311.092 47.0298 310.842 47.2969C310.595 47.5611 310.284 47.767 309.909 47.9148C309.537 48.0597 309.112 48.1321 308.635 48.1321Z" fill="#64748B"/>
<defs>
<clipPath id="clip0_4936_24218">
<rect width="20" height="20" fill="white" transform="translate(22 22)"/>
</clipPath>
</defs>
</svg>
