<svg width="74" height="75" viewBox="0 0 74 75" fill="none" xmlns="http://www.w3.org/2000/svg">
<rect x="7.79341" y="-0.881615" width="67" height="67" rx="17.5" transform="rotate(8.46056 7.79341 -0.881615)" stroke="white" stroke-width="3"/>
<g clip-path="url(#clip0_3868_35446)">
<path d="M41.2306 46.5374C40.8946 46.757 40.48 46.7122 40.1773 46.4818C38.8916 45.0436 38.7112 44.4439 38.0775 43.1533C35.2863 45.2656 33.4615 45.7524 30.3129 45.2841C26.6037 44.7324 24.0431 42.0093 24.7248 37.4264C25.2594 33.8326 27.5462 31.7127 30.5137 30.9072C33.0774 30.2101 36.4533 30.5101 39.0502 30.6099L39.1312 30.0659C39.293 28.9779 39.5593 27.7537 39.0678 26.7539C38.6604 25.8676 37.6733 25.3669 36.7666 25.2321C35.0851 24.982 33.4551 25.6325 32.8275 27.359C32.6863 27.7424 32.2977 28.089 31.9326 28.0515L27.7151 26.9524C27.3646 26.816 27.0107 26.4769 27.193 25.9311C28.9545 20.8854 33.8858 20.0181 38.0895 20.6434C40.2326 20.9622 42.9492 21.9561 44.4069 23.8242C46.2508 26.1542 45.6698 28.8143 45.2358 31.7322L44.2132 38.6066C43.9067 40.6672 44.5937 41.713 45.2536 42.9401C45.4726 43.3939 45.4674 43.8818 45.0795 44.1106L41.2471 46.5398L41.2306 46.5374ZM38.3808 35.1104L38.5181 34.1872C35.32 33.7115 31.8449 33.8518 31.2858 37.6104C31.0014 39.5227 31.8133 40.9746 33.4947 41.2247C34.7476 41.4111 35.9674 40.8006 36.8601 39.6696C37.9454 38.264 38.1258 36.8249 38.3808 35.1104ZM47.6031 51.6135C43.6499 53.7215 38.1967 54.3595 33.7127 53.6925C27.4319 52.7582 22.1067 49.5903 18.3968 45.0787C18.1112 44.7329 18.4692 44.3649 18.88 44.6619C23.0632 48.0307 28.5433 50.4971 34.445 51.375C38.4179 51.966 42.9256 51.794 47.2006 50.6943C47.8498 50.5213 48.2298 51.2518 47.6031 51.6135ZM49.3583 50.1222C48.985 49.4601 46.3502 49.3883 45.1412 49.3601C44.823 49.3465 44.8177 49.0424 45.1653 48.8582C47.4252 47.7116 50.741 48.6429 51.0655 49.1798C51.3876 49.7332 50.3739 53.0367 48.2072 54.3488C47.8713 54.5685 47.6131 54.3784 47.8056 54.1038C48.3985 53.063 49.7316 50.7843 49.3583 50.1222Z" fill="#73F460"/>
</g>
<defs>
<clipPath id="clip0_3868_35446">
<rect width="40" height="40" fill="white" transform="translate(19.1602 14.4575) rotate(8.46056)"/>
</clipPath>
</defs>
</svg>
