<svg width="65" height="65" viewBox="0 0 65 65" fill="none" xmlns="http://www.w3.org/2000/svg">
<rect x="-0.500493" y="6.69058" width="59" height="59" rx="17.5" transform="rotate(-7.00053 -0.500493 6.69058)" stroke="white" stroke-width="3"/>
<g clip-path="url(#clip0_3868_35450)">
<path fill-rule="evenodd" clip-rule="evenodd" d="M19.3894 41.1947C18.0443 39.191 17.1274 36.8562 16.8119 34.2865C16.4963 31.7167 16.821 29.2295 17.6415 26.9598C19.6163 21.4417 24.5346 17.218 30.7425 16.4557C35.0303 15.9292 38.8039 17.0632 41.877 19.2944L37.8877 24.4005C36.036 23.0451 33.8578 22.4919 31.519 22.7791C27.39 23.2861 24.224 26.5033 23.4289 30.4111C23.2283 31.403 23.1646 32.4365 23.2941 33.4905C23.4235 34.5444 23.7353 35.532 24.1699 36.4458L24.1529 36.4625L24.1717 36.4602C25.8886 40.0596 29.739 42.4152 33.8679 41.9082C36.0046 41.6458 37.7383 40.8467 39.0361 39.7201C40.587 38.3866 41.5074 36.5737 41.6399 34.5497L33.0932 35.5992L32.338 29.449L47.2948 27.6124C47.6101 28.6289 47.8441 29.6992 47.9823 30.8253C48.5762 35.6617 47.3437 39.9456 44.6812 43.0863C42.3515 45.8343 38.9304 47.6906 34.6426 48.2171C28.4347 48.9794 22.6407 46.0712 19.3912 41.2092L19.3894 41.1947Z" fill="#73F460"/>
</g>
<defs>
<clipPath id="clip0_3868_35450">
<rect width="32" height="32" fill="white" transform="translate(14.5442 18.4448) rotate(-7.00053)"/>
</clipPath>
</defs>
</svg>
