<svg width="74" height="74" viewBox="0 0 74 74" fill="none" xmlns="http://www.w3.org/2000/svg">
<rect x="8.03795" y="-0.610267" width="67" height="67" rx="17.5" transform="rotate(7.41626 8.03795 -0.610267)" stroke="white" stroke-width="3"/>
<g clip-path="url(#clip0_3868_35448)">
<path d="M22.7338 39.4974C23.476 33.7955 27.1014 28.2168 30.4482 28.6524C32.3075 28.8944 33.6497 30.2036 35.5692 33.8569C32.8863 37.0372 31.2485 38.967 31.2485 38.967C27.6605 43.29 26.5397 44.1526 24.9283 43.9428C23.3008 43.857 22.3788 42.2244 22.7338 39.4974ZM42.4689 39.9233L40.8134 36.1783C40.4306 35.2461 39.9237 34.2977 39.5247 33.4894C41.7551 30.8805 43.4362 29.5867 45.2955 29.8287C49.0142 30.3127 51.263 36.2779 50.3595 43.2193C50.0206 45.8224 48.9593 47.1969 47.224 46.971C45.4886 46.7451 45.0141 45.5489 42.4689 39.9233ZM38.236 30.8006C35.9769 26.851 33.7993 25.1809 31.0723 24.8259C25.3704 24.0838 20.0478 31.0803 19.0152 39.0133C18.3698 43.9715 20.3215 47.3769 24.2881 47.8932C27.139 48.2643 29.2998 47.159 33.8574 41.1974C33.8574 41.1974 35.6998 38.664 37.0574 36.9499C37.3486 37.6181 37.6398 38.2863 37.9149 39.0784L39.263 42.2792C41.8676 48.4167 43.4849 50.5181 46.8316 50.9537C50.6742 51.4539 53.2009 48.5053 53.8625 43.4232C54.8357 34.9782 51.2768 27.4559 45.9468 26.7621C43.0959 26.391 40.5743 28.3318 38.236 30.8006Z" fill="#73F460"/>
</g>
<defs>
<clipPath id="clip0_3868_35448">
<rect width="40" height="40" fill="white" transform="translate(19.6824 14.5195) rotate(7.41626)"/>
</clipPath>
</defs>
</svg>
