<svg width="56" height="56" viewBox="0 0 56 56" fill="none" xmlns="http://www.w3.org/2000/svg">
<rect x="1" y="1" width="54" height="54" rx="27" stroke="#111313" stroke-width="2"/>
<path d="M23.4503 17.1666H32.5503C36.017 17.1666 38.8337 19.9833 38.8337 23.45V32.55C38.8337 34.2164 38.1717 35.8146 36.9933 36.9929C35.815 38.1713 34.2168 38.8333 32.5503 38.8333H23.4503C19.9837 38.8333 17.167 36.0166 17.167 32.55V23.45C17.167 21.7835 17.829 20.1853 19.0073 19.007C20.1857 17.8286 21.7839 17.1666 23.4503 17.1666ZM23.2337 19.3333C22.1993 19.3333 21.2073 19.7442 20.4759 20.4756C19.7446 21.207 19.3337 22.1989 19.3337 23.2333V32.7666C19.3337 34.9225 21.0778 36.6666 23.2337 36.6666H32.767C33.8013 36.6666 34.7933 36.2557 35.5247 35.5243C36.2561 34.793 36.667 33.801 36.667 32.7666V23.2333C36.667 21.0775 34.9228 19.3333 32.767 19.3333H23.2337ZM33.6878 20.9583C34.047 20.9583 34.3914 21.101 34.6454 21.3549C34.8993 21.6089 35.042 21.9533 35.042 22.3125C35.042 22.6716 34.8993 23.016 34.6454 23.27C34.3914 23.524 34.047 23.6666 33.6878 23.6666C33.3287 23.6666 32.9842 23.524 32.7303 23.27C32.4763 23.016 32.3337 22.6716 32.3337 22.3125C32.3337 21.9533 32.4763 21.6089 32.7303 21.3549C32.9842 21.101 33.3287 20.9583 33.6878 20.9583ZM28.0003 22.5833C29.4369 22.5833 30.8147 23.154 31.8305 24.1698C32.8463 25.1856 33.417 26.5634 33.417 28C33.417 29.4365 32.8463 30.8143 31.8305 31.8301C30.8147 32.8459 29.4369 33.4166 28.0003 33.4166C26.5637 33.4166 25.186 32.8459 24.1702 31.8301C23.1543 30.8143 22.5837 29.4365 22.5837 28C22.5837 26.5634 23.1543 25.1856 24.1702 24.1698C25.186 23.154 26.5637 22.5833 28.0003 22.5833ZM28.0003 24.75C27.1384 24.75 26.3117 25.0924 25.7022 25.7019C25.0927 26.3114 24.7503 27.138 24.7503 28C24.7503 28.8619 25.0927 29.6886 25.7022 30.2981C26.3117 30.9076 27.1384 31.25 28.0003 31.25C28.8623 31.25 29.6889 30.9076 30.2984 30.2981C30.9079 29.6886 31.2503 28.8619 31.2503 28C31.2503 27.138 30.9079 26.3114 30.2984 25.7019C29.6889 25.0924 28.8623 24.75 28.0003 24.75Z" fill="#111313"/>
</svg>
