<svg width="53" height="79" viewBox="0 0 53 79" fill="none" xmlns="http://www.w3.org/2000/svg">
<rect width="52.2667" height="52.2667" rx="26.1333" fill="#111313"/>
<path d="M33.7555 18.5111L18.511 33.7555M32.1221 34.8444C33.9369 34.8444 34.8443 33.9111 34.8443 31.5777C34.8443 29.2444 33.9369 28.3111 32.1221 28.3111C30.3073 28.3111 29.3999 29.2444 29.3999 31.5777C29.3999 33.9111 30.3073 34.8444 32.1221 34.8444ZM20.1443 23.9555C21.9592 23.9555 22.8666 23.0222 22.8666 20.6888C22.8666 18.3555 21.9592 17.4222 20.1443 17.4222C18.3295 17.4222 17.4221 18.3555 17.4221 20.6888C17.4221 23.0222 18.3295 23.9555 20.1443 23.9555Z" stroke="#B8FFAC" stroke-width="1.63333" stroke-linecap="round" stroke-linejoin="round"/>
<path d="M6.28045 65.4748V74.9778H4.84664V65.4748H6.28045ZM9.64455 70.746V74.9778H8.25715V67.8505H9.58887V69.0105H9.67704C9.84099 68.6331 10.0977 68.33 10.4473 68.1011C10.8 67.8722 11.2439 67.7577 11.779 67.7577C12.2647 67.7577 12.69 67.8598 13.0551 68.064C13.4201 68.265 13.7031 68.5651 13.9042 68.9641C14.1053 69.3632 14.2058 69.8566 14.2058 70.4444V74.9778H12.8184V70.6114C12.8184 70.0948 12.6839 69.6911 12.4147 69.4003C12.1456 69.1064 11.7759 68.9595 11.3057 68.9595C10.984 68.9595 10.6979 69.0291 10.4473 69.1683C10.1998 69.3075 10.0034 69.5117 9.858 69.7808C9.7157 70.0468 9.64455 70.3686 9.64455 70.746ZM21.9085 67.8505L19.3239 74.9778H17.8391L15.2499 67.8505H16.7393L18.5444 73.3352H18.6186L20.419 67.8505H21.9085ZM26.0417 75.1216C25.3395 75.1216 24.7347 74.9716 24.2274 74.6715C23.7232 74.3684 23.3334 73.943 23.0581 73.3955C22.7859 72.8449 22.6497 72.1999 22.6497 71.4605C22.6497 70.7305 22.7859 70.0871 23.0581 69.5302C23.3334 68.9734 23.717 68.5388 24.2088 68.2264C24.7038 67.9139 25.2823 67.7577 25.9442 67.7577C26.3464 67.7577 26.7362 67.8242 27.1136 67.9572C27.491 68.0903 27.8297 68.2991 28.1298 68.5837C28.4298 68.8683 28.6665 69.2379 28.8397 69.6927C29.0129 70.1443 29.0995 70.6934 29.0995 71.3399V71.8318H23.4339V70.7924H27.74C27.74 70.4273 27.6657 70.1041 27.5173 69.8226C27.3688 69.538 27.16 69.3137 26.8908 69.1498C26.6248 68.9858 26.3124 68.9038 25.9535 68.9038C25.5638 68.9038 25.2235 68.9997 24.9327 69.1915C24.645 69.3802 24.4223 69.6277 24.2645 69.9339C24.1098 70.2371 24.0325 70.5665 24.0325 70.9223V71.7343C24.0325 72.2107 24.116 72.6159 24.2831 72.95C24.4532 73.2841 24.6899 73.5393 24.993 73.7157C25.2962 73.8889 25.6504 73.9755 26.0556 73.9755C26.3186 73.9755 26.5583 73.9384 26.7748 73.8641C26.9914 73.7868 27.1785 73.6724 27.3363 73.5208C27.4941 73.3692 27.6147 73.182 27.6982 72.9593L29.0114 73.196C28.9062 73.5826 28.7175 73.9214 28.4453 74.2122C28.1762 74.4998 27.8374 74.7241 27.4291 74.885C27.0239 75.0427 26.5614 75.1216 26.0417 75.1216ZM35.9797 69.5906L34.7223 69.8133C34.6697 69.6524 34.5861 69.4993 34.4717 69.3539C34.3603 69.2085 34.2087 69.0894 34.0169 68.9966C33.8252 68.9038 33.5854 68.8574 33.2977 68.8574C32.9049 68.8574 32.577 68.9456 32.314 69.1219C32.0511 69.2951 31.9196 69.5194 31.9196 69.7947C31.9196 70.0329 32.0078 70.2247 32.1841 70.3701C32.3604 70.5155 32.645 70.6346 33.0379 70.7274L34.1701 70.9873C34.8259 71.1388 35.3146 71.3724 35.6364 71.6879C35.9581 72.0034 36.1189 72.4133 36.1189 72.9176C36.1189 73.3444 35.9952 73.7249 35.7477 74.059C35.5033 74.39 35.1615 74.6499 34.7223 74.8386C34.2861 75.0273 33.7803 75.1216 33.2049 75.1216C32.4068 75.1216 31.7556 74.9515 31.2514 74.6112C30.7472 74.2678 30.4378 73.7806 30.3234 73.1496L31.6644 72.9454C31.7479 73.295 31.9196 73.5594 32.1794 73.7389C32.4393 73.9152 32.778 74.0034 33.1956 74.0034C33.6504 74.0034 34.0139 73.909 34.2861 73.7203C34.5583 73.5285 34.6944 73.295 34.6944 73.0196C34.6944 72.7969 34.6109 72.6098 34.4438 72.4582C34.2799 72.3066 34.0278 72.1921 33.6875 72.1148L32.4811 71.8503C31.816 71.6987 31.3241 71.4575 31.0055 71.1265C30.69 70.7955 30.5322 70.3763 30.5322 69.869C30.5322 69.4483 30.6497 69.0802 30.8848 68.7646C31.1199 68.4491 31.4448 68.2032 31.8593 68.0268C32.2738 67.8474 32.7486 67.7577 33.2838 67.7577C34.0541 67.7577 34.6604 67.9248 35.1027 68.2588C35.5451 68.5898 35.8374 69.0337 35.9797 69.5906ZM40.9714 67.8505V68.9641H37.0783V67.8505H40.9714ZM38.1223 66.1429H39.5097V72.8851C39.5097 73.1542 39.5499 73.3568 39.6304 73.4929C39.7108 73.626 39.8144 73.7172 39.9413 73.7667C40.0712 73.8131 40.2119 73.8363 40.3635 73.8363C40.4749 73.8363 40.5723 73.8286 40.6558 73.8131C40.7394 73.7976 40.8043 73.7853 40.8507 73.776L41.1013 74.9221C41.0209 74.953 40.9064 74.984 40.7579 75.0149C40.6094 75.0489 40.4238 75.0675 40.2011 75.0706C39.8361 75.0768 39.4958 75.0118 39.1803 74.8757C38.8647 74.7396 38.6095 74.5292 38.4147 74.2446C38.2198 73.96 38.1223 73.6028 38.1223 73.1728V66.1429ZM47.7321 69.5906L46.4746 69.8133C46.422 69.6524 46.3385 69.4993 46.224 69.3539C46.1127 69.2085 45.9611 69.0894 45.7693 68.9966C45.5775 68.9038 45.3378 68.8574 45.0501 68.8574C44.6572 68.8574 44.3293 68.9456 44.0664 69.1219C43.8034 69.2951 43.6719 69.5194 43.6719 69.7947C43.6719 70.0329 43.7601 70.2247 43.9364 70.3701C44.1128 70.5155 44.3974 70.6346 44.7902 70.7274L45.9224 70.9873C46.5782 71.1388 47.067 71.3724 47.3887 71.6879C47.7104 72.0034 47.8713 72.4133 47.8713 72.9176C47.8713 73.3444 47.7475 73.7249 47.5001 74.059C47.2557 74.39 46.9139 74.6499 46.4746 74.8386C46.0384 75.0273 45.5326 75.1216 44.9573 75.1216C44.1592 75.1216 43.508 74.9515 43.0038 74.6112C42.4995 74.2678 42.1902 73.7806 42.0757 73.1496L43.4167 72.9454C43.5003 73.295 43.6719 73.5594 43.9318 73.7389C44.1916 73.9152 44.5304 74.0034 44.948 74.0034C45.4027 74.0034 45.7662 73.909 46.0384 73.7203C46.3106 73.5285 46.4468 73.295 46.4468 73.0196C46.4468 72.7969 46.3632 72.6098 46.1962 72.4582C46.0322 72.3066 45.7801 72.1921 45.4398 72.1148L44.2334 71.8503C43.5683 71.6987 43.0765 71.4575 42.7578 71.1265C42.4423 70.7955 42.2845 70.3763 42.2845 69.869C42.2845 69.4483 42.4021 69.0802 42.6372 68.7646C42.8723 68.4491 43.1971 68.2032 43.6116 68.0268C44.0261 67.8474 44.501 67.7577 45.0361 67.7577C45.8064 67.7577 46.4127 67.9248 46.8551 68.2588C47.2974 68.5898 47.5898 69.0337 47.7321 69.5906Z" fill="#282E38"/>
</svg>
