<svg width="56" height="56" viewBox="0 0 56 56" fill="none" xmlns="http://www.w3.org/2000/svg">
<rect x="1" y="1" width="54" height="54" rx="27" stroke="#111313" stroke-width="2"/>
<path d="M22.5179 20.4167C22.5176 20.9913 22.2891 21.5423 21.8825 21.9484C21.476 22.3545 20.9248 22.5825 20.3502 22.5822C19.7755 22.5819 19.2245 22.3534 18.8184 21.9469C18.4123 21.5403 18.1843 20.9891 18.1846 20.4145C18.1849 19.8398 18.4134 19.2889 18.8199 18.8827C19.2265 18.4766 19.7777 18.2486 20.3523 18.2489C20.927 18.2492 21.4779 18.4777 21.8841 18.8843C22.2902 19.2908 22.5182 19.842 22.5179 20.4167ZM22.5829 24.1867H18.2496V37.75H22.5829V24.1867ZM29.4296 24.1867H25.1179V37.75H29.3862V30.6325C29.3862 26.6675 34.5537 26.2992 34.5537 30.6325V37.75H38.8329V29.1592C38.8329 22.475 31.1846 22.7242 29.3862 26.0067L29.4296 24.1867Z" fill="#111313"/>
</svg>
