<svg width="53" height="79" viewBox="0 0 53 79" fill="none" xmlns="http://www.w3.org/2000/svg">
<rect width="52.2667" height="52.2667" rx="26.1333" fill="#111313"/>
<path d="M26.1333 35.9333V26.1333" stroke="#B8FFAC" stroke-width="1.63333" stroke-linecap="round" stroke-linejoin="round"/>
<path d="M26.1332 20.6889H21.7232C18.7068 20.6889 18.5221 16.3333 21.7232 16.3333C25.1532 16.3333 26.1332 20.6889 26.1332 20.6889Z" stroke="#B8FFAC" stroke-width="1.63333" stroke-linecap="round" stroke-linejoin="round"/>
<path d="M26.1333 20.6889H30.5433C33.6966 20.6889 33.6966 16.3333 30.5433 16.3333C27.1133 16.3333 26.1333 20.6889 26.1333 20.6889Z" stroke="#B8FFAC" stroke-width="1.63333" stroke-linecap="round" stroke-linejoin="round"/>
<path d="M34.8444 26.1333V33.7556C34.8444 34.9583 33.8693 35.9333 32.6666 35.9333H19.5999C18.3972 35.9333 17.4221 34.9583 17.4221 33.7556V26.1333M35.9333 26.1333V22.8667C35.9333 21.6639 34.9582 20.6889 33.7555 20.6889H18.511C17.3083 20.6889 16.3333 21.6639 16.3333 22.8667V26.1333H35.9333Z" stroke="#B8FFAC" stroke-width="1.63333" stroke-linecap="round" stroke-linejoin="round"/>
<path d="M10.5633 74.9778V65.4748H13.9506C14.6869 65.4748 15.2978 65.6016 15.7835 65.8552C16.2722 66.1089 16.6373 66.46 16.8785 66.9086C17.1198 67.354 17.2405 67.8691 17.2405 68.4537C17.2405 69.0353 17.1183 69.5473 16.8739 69.9896C16.6326 70.4289 16.2676 70.7707 15.7788 71.0151C15.2932 71.2595 14.6822 71.3817 13.946 71.3817H11.38V70.1474H13.8161C14.2801 70.1474 14.6575 70.0809 14.9482 69.9479C15.2421 69.8148 15.4571 69.6215 15.5932 69.3678C15.7293 69.1142 15.7974 68.8095 15.7974 68.4537C15.7974 68.0949 15.7278 67.784 15.5886 67.5211C15.4525 67.2581 15.2375 67.057 14.9436 66.9178C14.6528 66.7755 14.2708 66.7044 13.7975 66.7044H11.9971V74.9778H10.5633ZM15.2545 70.6903L17.6024 74.9778H15.9691L13.6676 70.6903H15.2545ZM21.8563 75.1216C21.1541 75.1216 20.5493 74.9716 20.042 74.6715C19.5377 74.3684 19.148 73.943 18.8727 73.3955C18.6004 72.8449 18.4643 72.1999 18.4643 71.4605C18.4643 70.7305 18.6004 70.0871 18.8727 69.5302C19.148 68.9734 19.5316 68.5388 20.0234 68.2264C20.5184 67.9139 21.0968 67.7577 21.7588 67.7577C22.161 67.7577 22.5507 67.8242 22.9281 67.9572C23.3055 68.0903 23.6443 68.2991 23.9443 68.5837C24.2444 68.8683 24.4811 69.2379 24.6543 69.6927C24.8275 70.1443 24.9141 70.6934 24.9141 71.3399V71.8318H19.2485V70.7924H23.5546C23.5546 70.4273 23.4803 70.1041 23.3318 69.8226C23.1834 69.538 22.9745 69.3137 22.7054 69.1498C22.4394 68.9858 22.1269 68.9038 21.7681 68.9038C21.3783 68.9038 21.0381 68.9997 20.7473 69.1915C20.4596 69.3802 20.2369 69.6277 20.0791 69.9339C19.9244 70.2371 19.8471 70.5665 19.8471 70.9223V71.7343C19.8471 72.2107 19.9306 72.6159 20.0977 72.95C20.2678 73.2841 20.5044 73.5393 20.8076 73.7157C21.1108 73.8889 21.465 73.9755 21.8702 73.9755C22.1331 73.9755 22.3729 73.9384 22.5894 73.8641C22.806 73.7868 22.9931 73.6724 23.1509 73.5208C23.3086 73.3692 23.4293 73.182 23.5128 72.9593L24.826 73.196C24.7208 73.5826 24.5321 73.9214 24.2599 74.2122C23.9907 74.4998 23.652 74.7241 23.2437 74.885C22.8384 75.0427 22.376 75.1216 21.8563 75.1216ZM29.8455 67.8505V68.9641H25.8178V67.8505H29.8455ZM26.9222 74.9778V67.0246C26.9222 66.5791 27.0196 66.2094 27.2145 65.9156C27.4094 65.6186 27.6677 65.3974 27.9894 65.252C28.3111 65.1035 28.6607 65.0293 29.0381 65.0293C29.3165 65.0293 29.5547 65.0525 29.7526 65.0989C29.9506 65.1422 30.0976 65.1824 30.1935 65.2195L29.8687 66.3425C29.8037 66.3239 29.7202 66.3022 29.6181 66.2775C29.516 66.2497 29.3923 66.2357 29.2469 66.2357C28.9097 66.2357 28.6684 66.3193 28.523 66.4863C28.3807 66.6534 28.3096 66.8946 28.3096 67.2102V74.9778H26.9222ZM34.068 75.1216C33.3658 75.1216 32.761 74.9716 32.2537 74.6715C31.7495 74.3684 31.3597 73.943 31.0844 73.3955C30.8122 72.8449 30.676 72.1999 30.676 71.4605C30.676 70.7305 30.8122 70.0871 31.0844 69.5302C31.3597 68.9734 31.7433 68.5388 32.2351 68.2264C32.7301 67.9139 33.3086 67.7577 33.9705 67.7577C34.3727 67.7577 34.7625 67.8242 35.1399 67.9572C35.5173 68.0903 35.856 68.2991 36.1561 68.5837C36.4561 68.8683 36.6928 69.2379 36.866 69.6927C37.0392 70.1443 37.1259 70.6934 37.1259 71.3399V71.8318H31.4602V70.7924H35.7663C35.7663 70.4273 35.692 70.1041 35.5436 69.8226C35.3951 69.538 35.1863 69.3137 34.9171 69.1498C34.6511 68.9858 34.3387 68.9038 33.9798 68.9038C33.5901 68.9038 33.2498 68.9997 32.959 69.1915C32.6713 69.3802 32.4486 69.6277 32.2908 69.9339C32.1361 70.2371 32.0588 70.5665 32.0588 70.9223V71.7343C32.0588 72.2107 32.1423 72.6159 32.3094 72.95C32.4795 73.2841 32.7162 73.5393 33.0193 73.7157C33.3225 73.8889 33.6767 73.9755 34.0819 73.9755C34.3449 73.9755 34.5846 73.9384 34.8011 73.8641C35.0177 73.7868 35.2048 73.6724 35.3626 73.5208C35.5204 73.3692 35.641 73.182 35.7245 72.9593L37.0377 73.196C36.9325 73.5826 36.7438 73.9214 36.4716 74.2122C36.2025 74.4998 35.8637 74.7241 35.4554 74.885C35.0502 75.0427 34.5877 75.1216 34.068 75.1216ZM38.6652 74.9778V67.8505H40.0062V68.9827H40.0805C40.2104 68.5991 40.4393 68.2975 40.7672 68.0779C41.0982 67.8552 41.4725 67.7438 41.8901 67.7438C41.9767 67.7438 42.0788 67.7469 42.1964 67.7531C42.317 67.7593 42.4114 67.767 42.4794 67.7763V69.1034C42.4237 69.0879 42.3248 69.0709 42.1825 69.0523C42.0402 69.0307 41.8979 69.0198 41.7556 69.0198C41.4277 69.0198 41.1353 69.0894 40.8786 69.2286C40.6249 69.3647 40.4238 69.555 40.2754 69.7994C40.1269 70.0407 40.0526 70.316 40.0526 70.6253V74.9778H38.6652Z" fill="#282E38"/>
</svg>
