<svg width="27" height="27" viewBox="0 0 27 27" fill="none" xmlns="http://www.w3.org/2000/svg">
<path d="M16.3538 18.5778H9.77803M16.3538 18.5778C16.3538 18.5778 18.2461 18.5778 20.2889 18.5778C22.3317 18.5778 21.9866 16.552 20.9528 15.5248C17.2313 11.8272 22.5177 3.33329 13.0659 3.33331C3.6142 3.33334 8.90049 11.8273 5.17889 15.5248C4.18403 16.5133 3.76136 18.5778 5.84303 18.5778C7.9247 18.5778 9.77803 18.5778 9.77803 18.5778M16.3538 18.5778C16.3538 20.6744 15.6483 22.9333 13.0659 22.9333C10.4835 22.9333 9.77803 20.6744 9.77803 18.5778" stroke="#111313" stroke-width="1.63333" stroke-linecap="round" stroke-linejoin="round"/>
<rect x="19.5334" width="6.53333" height="6.53333" rx="3.26667" fill="#9CFD8C"/>
</svg>
