<svg width="126" height="126" viewBox="0 0 126 126" fill="none" xmlns="http://www.w3.org/2000/svg">
<rect y="36.6408" width="96" height="96" rx="20" transform="rotate(-22.4375 0 36.6408)" fill="white"/>
<path d="M55.2524 62.1502L53.9802 59.0692C52.2236 54.8152 52.7076 50.5788 56.9615 48.8222C61.2155 47.0656 64.5475 49.7262 66.3041 53.9802L67.5764 57.0612" stroke="#64748B" stroke-width="3" stroke-linecap="round" stroke-linejoin="round"/>
<path d="M53.2821 77.0293L50.3559 69.943C49.6434 68.2175 49.2871 67.3547 49.3508 66.557C49.4068 65.8553 49.6835 65.1893 50.1412 64.6546C50.6616 64.0466 51.5244 63.6904 53.2499 62.9778L69.5791 56.2349C71.3047 55.5224 72.1674 55.1661 72.9651 55.2298C73.6668 55.2858 74.3328 55.5625 74.8676 56.0202C75.4755 56.5406 75.8318 57.4034 76.5443 59.1289L79.4705 66.2152C80.183 67.9407 80.5393 68.8034 80.4756 69.6012C80.4196 70.3029 80.1429 70.9688 79.6852 71.5036C79.1648 72.1116 78.302 72.4678 76.5765 73.1803L60.2473 79.9233C58.5218 80.6358 57.659 80.9921 56.8613 80.9284C56.1596 80.8724 55.4936 80.5957 54.9588 80.138C54.3509 79.6176 53.9946 78.7548 53.2821 77.0293Z" stroke="#64748B" stroke-width="3" stroke-linecap="round" stroke-linejoin="round"/>
</svg>
