<svg width="53" height="79" viewBox="0 0 53 79" fill="none" xmlns="http://www.w3.org/2000/svg">
<rect width="52.2667" height="52.2667" rx="26.1333" fill="#111313"/>
<path d="M19.6001 26.1333H32.6668" stroke="#B8FFAC" stroke-width="1.63333" stroke-linecap="round" stroke-linejoin="round"/>
<path d="M21.0674 67.9712C21.018 67.5319 20.8138 67.1916 20.4549 66.9503C20.0961 66.7059 19.6445 66.5837 19.1 66.5837C18.7102 66.5837 18.3731 66.6456 18.0885 66.7694C17.8039 66.89 17.5827 67.057 17.4249 67.2705C17.2703 67.4808 17.1929 67.7206 17.1929 67.9897C17.1929 68.2155 17.2455 68.4104 17.3507 68.5744C17.459 68.7383 17.5997 68.876 17.7729 68.9873C17.9493 69.0956 18.138 69.1869 18.339 69.2611C18.5401 69.3323 18.7335 69.391 18.9191 69.4374L19.8471 69.6787C20.1502 69.753 20.4611 69.8535 20.7798 69.9803C21.0984 70.1072 21.3938 70.2742 21.666 70.4815C21.9382 70.6887 22.1579 70.9455 22.3249 71.2517C22.4951 71.558 22.5801 71.9246 22.5801 72.3515C22.5801 72.8897 22.4409 73.3677 22.1625 73.7853C21.8872 74.2029 21.4866 74.5323 20.9607 74.7736C20.4379 75.0149 19.8053 75.1355 19.0629 75.1355C18.3514 75.1355 17.7358 75.0226 17.2161 74.7968C16.6964 74.571 16.2896 74.2508 15.9958 73.8363C15.7019 73.4187 15.5395 72.9237 15.5085 72.3515H16.947C16.9748 72.6948 17.0862 72.981 17.2811 73.2099C17.4791 73.4357 17.7312 73.6043 18.0374 73.7157C18.3468 73.8239 18.6855 73.8781 19.0536 73.8781C19.4589 73.8781 19.8192 73.8147 20.1348 73.6878C20.4534 73.5579 20.704 73.3785 20.8865 73.1496C21.069 72.9176 21.1602 72.6469 21.1602 72.3375C21.1602 72.056 21.0798 71.8256 20.919 71.6462C20.7612 71.4667 20.5462 71.3183 20.274 71.2007C20.0049 71.0831 19.7001 70.9795 19.3599 70.8898L18.237 70.5836C17.476 70.3763 16.8727 70.0716 16.4273 69.6695C15.9849 69.2673 15.7638 68.7352 15.7638 68.0732C15.7638 67.5257 15.9122 67.0478 16.2092 66.6394C16.5062 66.2311 16.9083 65.914 17.4156 65.6882C17.923 65.4593 18.4953 65.3448 19.1325 65.3448C19.7759 65.3448 20.3436 65.4577 20.8354 65.6836C21.3304 65.9094 21.7202 66.2203 22.0048 66.6162C22.2894 67.0091 22.4378 67.4607 22.4502 67.9712H21.0674ZM27.2539 75.1216C26.5517 75.1216 25.947 74.9716 25.4396 74.6715C24.9354 74.3684 24.5456 73.943 24.2703 73.3955C23.9981 72.8449 23.862 72.1999 23.862 71.4605C23.862 70.7305 23.9981 70.0871 24.2703 69.5302C24.5456 68.9734 24.9292 68.5388 25.4211 68.2264C25.916 67.9139 26.4945 67.7577 27.1565 67.7577C27.5586 67.7577 27.9484 67.8242 28.3258 67.9572C28.7032 68.0903 29.0419 68.2991 29.342 68.5837C29.6421 68.8683 29.8787 69.2379 30.0519 69.6927C30.2252 70.1443 30.3118 70.6934 30.3118 71.3399V71.8318H24.6462V70.7924H28.9522C28.9522 70.4273 28.878 70.1041 28.7295 69.8226C28.581 69.538 28.3722 69.3137 28.1031 69.1498C27.837 68.9858 27.5246 68.9038 27.1658 68.9038C26.776 68.9038 26.4357 68.9997 26.1449 69.1915C25.8572 69.3802 25.6345 69.6277 25.4767 69.9339C25.3221 70.2371 25.2447 70.5665 25.2447 70.9223V71.7343C25.2447 72.2107 25.3283 72.6159 25.4953 72.95C25.6654 73.2841 25.9021 73.5393 26.2053 73.7157C26.5084 73.8889 26.8626 73.9755 27.2678 73.9755C27.5308 73.9755 27.7705 73.9384 27.9871 73.8641C28.2036 73.7868 28.3908 73.6724 28.5485 73.5208C28.7063 73.3692 28.8269 73.182 28.9105 72.9593L30.2236 73.196C30.1184 73.5826 29.9297 73.9214 29.6575 74.2122C29.3884 74.4998 29.0497 74.7241 28.6413 74.885C28.2361 75.0427 27.7736 75.1216 27.2539 75.1216ZM33.2386 65.4748V74.9778H31.8512V65.4748H33.2386ZM36.4925 65.4748V74.9778H35.1051V65.4748H36.4925Z" fill="#282E38"/>
</svg>
