<svg width="106" height="22" viewBox="0 0 106 22" fill="none" xmlns="http://www.w3.org/2000/svg">
<path d="M40.2401 5.73002C40.8661 5.73002 41.4596 5.84604 42.0208 6.07807C42.582 6.30471 43.0785 6.66086 43.5102 7.14652C43.9473 7.62678 44.2899 8.24464 44.5382 9.00011C44.7864 9.75018 44.9105 10.654 44.9105 11.7117V11.7279C44.9105 13.0392 44.7216 14.1616 44.3439 15.0951C43.9662 16.0287 43.4238 16.7464 42.7169 17.2482C42.0154 17.7446 41.1763 17.9929 40.1996 17.9929C39.4819 17.9929 38.8344 17.8634 38.257 17.6043C37.685 17.3399 37.2101 16.9784 36.8324 16.5197C36.4601 16.0556 36.2091 15.5268 36.0796 14.9332L36.0634 14.8442H38.1113L38.1437 14.9251C38.2462 15.1949 38.3919 15.4324 38.5808 15.6374C38.775 15.8425 39.0071 16.0017 39.2769 16.115C39.5521 16.2229 39.8597 16.2769 40.1996 16.2769C40.8148 16.2769 41.3166 16.0961 41.7052 15.7346C42.0991 15.3676 42.3932 14.8793 42.5874 14.2695C42.7871 13.6543 42.9004 12.9744 42.9274 12.2297C42.9328 12.1488 42.9355 12.0705 42.9355 11.995C42.9355 11.9141 42.9355 11.8358 42.9355 11.7603L42.5712 9.80954C42.5712 9.36705 42.4687 8.96504 42.2637 8.60349C42.0586 8.24195 41.7807 7.95595 41.43 7.7455C41.0846 7.53504 40.6934 7.42982 40.2563 7.42982C39.8354 7.42982 39.4495 7.53235 39.0988 7.7374C38.748 7.94246 38.4674 8.22306 38.257 8.57921C38.0465 8.92996 37.9413 9.32388 37.9413 9.76098V9.77716C37.9413 10.2304 38.0411 10.6325 38.2408 10.9832C38.4405 11.3286 38.713 11.6011 39.0583 11.8007C39.4037 12.0004 39.7976 12.1002 40.2401 12.1002C40.6826 12.1002 41.0792 12.0031 41.43 11.8088C41.7807 11.6146 42.0586 11.3448 42.2637 10.9994C42.4687 10.654 42.5712 10.2628 42.5712 9.82573V9.80954H43.0569V11.9626H42.7736C42.6333 12.2702 42.4256 12.5562 42.1503 12.8206C41.8751 13.085 41.5352 13.2982 41.1305 13.4601C40.7311 13.622 40.2617 13.7029 39.7221 13.7029C38.9774 13.7029 38.319 13.5356 37.747 13.2011C37.1751 12.8665 36.7245 12.4078 36.3953 11.825C36.0715 11.2422 35.9096 10.5839 35.9096 9.85001V9.83382C35.9096 9.04058 36.0931 8.33638 36.4601 7.72121C36.8324 7.10065 37.345 6.61499 37.998 6.26424C38.6563 5.90809 39.4037 5.73002 40.2401 5.73002ZM48.5853 16.1312C48.2184 16.1312 47.9108 16.0098 47.6626 15.7669C47.4197 15.5187 47.2983 15.2165 47.2983 14.8604C47.2983 14.4988 47.4197 14.1966 47.6626 13.9538C47.9108 13.7056 48.2184 13.5815 48.5853 13.5815C48.9576 13.5815 49.2652 13.7056 49.5081 13.9538C49.7509 14.1966 49.8723 14.4988 49.8723 14.8604C49.8723 15.2165 49.7509 15.5187 49.5081 15.7669C49.2652 16.0098 48.9576 16.1312 48.5853 16.1312ZM48.5853 10.1252C48.2184 10.1252 47.9108 10.0038 47.6626 9.76098C47.4197 9.51275 47.2983 9.21056 47.2983 8.85441C47.2983 8.49287 47.4197 8.19068 47.6626 7.94785C47.9108 7.69963 48.2184 7.57552 48.5853 7.57552C48.9576 7.57552 49.2652 7.69963 49.5081 7.94785C49.7509 8.19068 49.8723 8.49287 49.8723 8.85441C49.8723 9.21056 49.7509 9.51275 49.5081 9.76098C49.2652 10.0038 48.9576 10.1252 48.5853 10.1252ZM57.9261 17.7015V15.4594H52.2116V13.7515C52.5191 13.228 52.8267 12.7019 53.1343 12.1731C53.4473 11.6442 53.763 11.1181 54.0813 10.5947C54.4051 10.0659 54.7262 9.54513 55.0446 9.03249C55.3683 8.51445 55.6894 8.00451 56.0078 7.50267C56.3315 6.99543 56.6553 6.50167 56.9791 6.02141H59.9173V13.7353H61.4957V15.4594H59.9173V17.7015H57.9261ZM54.1542 13.7838H57.9585V7.68884H57.8371C57.5997 8.05578 57.3541 8.43351 57.1005 8.82204C56.8523 9.21056 56.6014 9.60718 56.3477 10.0119C56.0941 10.4166 55.8432 10.824 55.595 11.2341C55.3467 11.6389 55.1012 12.0463 54.8584 12.4564C54.6156 12.8611 54.3808 13.2631 54.1542 13.6624V13.7838ZM66.328 17.7015V8.07736H66.1823L63.2765 10.1252V8.1664L66.328 6.02141H68.4082V17.7015H66.328Z" fill="black"/>
</svg>
