<svg width="140" height="139" viewBox="0 0 140 139" fill="none" xmlns="http://www.w3.org/2000/svg">
<path d="M64.6328 56.6323C64.5576 56.7613 64.3921 56.8058 64.2621 56.7319L33.1897 38.9945C33.0594 38.9202 33.0139 38.7538 33.0889 38.6232L41.2073 24.5005L41.207 24.4995C41.2705 24.3892 41.4 24.3399 41.5179 24.3739L41.5678 24.3936L57.4519 32.562L57.9116 32.7985L58.1719 32.3516L76.6049 0.680453C76.679 0.552938 76.841 0.507118 76.9705 0.577249L92.1983 8.83024C92.3333 8.90356 92.3822 9.07436 92.3049 9.20809L92.3037 9.20741L64.6328 56.6323ZM39.2381 103.662C39.1735 103.773 39.0414 103.822 38.9217 103.786L38.8713 103.764L23.6022 95.4565C23.4849 95.3927 23.4336 95.2553 23.4732 95.1334L23.4964 95.0815L32.6894 79.0048L32.9659 78.521L32.4752 78.2565L0.687603 61.0614C0.554208 60.9892 0.505775 60.8231 0.578142 60.6914L0.577884 60.6905L8.79253 45.781C8.86512 45.649 9.0313 45.6006 9.16301 45.6734L9.16327 45.6743L57.2209 72.1917C57.3547 72.2655 57.4015 72.4352 57.3248 72.5672L39.2381 103.662ZM130.647 92.894C130.574 93.0259 130.408 93.0743 130.276 93.0015L82.2182 66.4832C82.0844 66.4093 82.0375 66.2397 82.1143 66.1077L100.201 35.0134C100.276 34.8854 100.439 34.8408 100.568 34.9109L115.836 43.2196C115.97 43.2926 116.019 43.4609 115.943 43.5934L106.75 59.6701L106.473 60.1539L106.963 60.4196L138.752 77.6135C138.884 77.6854 138.934 77.852 138.861 77.9845L130.647 92.894ZM62.8345 137.995C62.7701 138.106 62.6376 138.155 62.5189 138.118L62.4696 138.097L47.2408 129.845L47.2406 129.844C47.106 129.771 47.0577 129.601 47.1355 129.468L74.8063 82.0426C74.8816 81.9137 75.0473 81.8698 75.1773 81.944L106.249 99.6804L106.25 99.6801C106.381 99.7551 106.425 99.9214 106.35 100.052L98.2321 114.175C98.1595 114.301 98.0008 114.348 97.8713 114.281L81.9872 106.113L81.5275 105.876L81.2672 106.323L62.8343 137.994L62.8345 137.995Z" stroke="url(#paint0_linear_3938_26044)" stroke-width="1.08889"/>
<defs>
<linearGradient id="paint0_linear_3938_26044" x1="86.6488" y1="131.129" x2="-7.05313" y2="-100.059" gradientUnits="userSpaceOnUse">
<stop stop-color="#FCFCFC"/>
<stop offset="1" stop-color="#C2C9CD" stop-opacity="0"/>
</linearGradient>
</defs>
</svg>
