<svg width="17" height="13" viewBox="0 0 17 13" fill="none" xmlns="http://www.w3.org/2000/svg">
<path fill-rule="evenodd" clip-rule="evenodd" d="M8.35809 2.40493C10.7833 2.40503 13.1158 3.30418 14.8735 4.91653C15.0059 5.04101 15.2174 5.03944 15.3478 4.91301L16.613 3.68097C16.679 3.61685 16.7158 3.52998 16.7153 3.43961C16.7147 3.34923 16.6769 3.26279 16.6101 3.19942C11.9967 -1.06647 4.71869 -1.06647 0.105368 3.19942C0.0385408 3.26275 0.000623852 3.34916 7.62936e-06 3.43954C-0.000608593 3.52991 0.0361267 3.6168 0.102085 3.68097L1.36766 4.91301C1.49794 5.03963 1.70966 5.0412 1.84194 4.91653C3.59983 3.30407 5.93261 2.40493 8.35809 2.40493ZM8.35481 6.52023C9.67837 6.52014 10.9547 7.01915 11.9358 7.92029C12.0685 8.04818 12.2775 8.04541 12.4069 7.91404L13.6621 6.62755C13.7282 6.56007 13.7649 6.46853 13.764 6.37341C13.763 6.27828 13.7245 6.18752 13.6571 6.12141C10.6694 3.30248 6.04273 3.30248 3.05511 6.12141C2.98762 6.18751 2.94912 6.27833 2.94824 6.37348C2.94735 6.46864 2.98416 6.56017 3.0504 6.62755L4.3053 7.91404C4.43465 8.04541 4.64368 8.04818 4.77638 7.92029C5.75682 7.01975 7.03213 6.52078 8.35481 6.52023ZM10.8164 9.24428C10.8183 9.34701 10.7822 9.44606 10.7166 9.51803L8.59403 11.9117C8.53181 11.982 8.44699 12.0216 8.35847 12.0216C8.26996 12.0216 8.18513 11.982 8.12291 11.9117L6.00004 9.51803C5.93446 9.446 5.89839 9.34693 5.90033 9.2442C5.90228 9.14147 5.94207 9.04419 6.01031 8.97533C7.36583 7.69412 9.35112 7.69412 10.7066 8.97533C10.7748 9.04424 10.8146 9.14155 10.8164 9.24428Z" fill="black"/>
</svg>
