<svg width="360" height="72" viewBox="0 0 360 72" fill="none" xmlns="http://www.w3.org/2000/svg">
<rect width="360" height="71.3415" rx="17.561" fill="white"/>
<rect x="17.561" y="18.1097" width="35.122" height="35.122" rx="8.78049" fill="#111313"/>
<path d="M35.1221 40.2439V27.439" stroke="#B8FFAC" stroke-width="1.64634" stroke-linecap="round" stroke-linejoin="round"/>
<path d="M29.6343 34.7561L35.1221 40.2439L40.6099 34.7561" stroke="#B8FFAC" stroke-width="1.64634" stroke-linecap="round" stroke-linejoin="round"/>
<path d="M41.5246 43.9025H28.7197" stroke="#B8FFAC" stroke-width="1.64634" stroke-linecap="round" stroke-linejoin="round"/>
<path d="M64.8792 32.1707L61.7799 20.9955H63.5533L65.7305 29.6498H65.8341L68.0986 20.9955H69.8557L72.1202 29.6552H72.2238L74.3956 20.9955H76.1744L73.0696 32.1707H71.3726L69.0208 23.8003H68.9335L66.5817 32.1707H64.8792ZM77.5809 32.1707V23.7893H79.2124V32.1707H77.5809ZM78.4048 22.4961C78.1211 22.4961 77.8774 22.4015 77.6736 22.2124C77.4736 22.0196 77.3735 21.7904 77.3735 21.5248C77.3735 21.2556 77.4736 21.0265 77.6736 20.8373C77.8774 20.6445 78.1211 20.5481 78.4048 20.5481C78.6886 20.5481 78.9305 20.6445 79.1306 20.8373C79.3343 21.0265 79.4361 21.2556 79.4361 21.5248C79.4361 21.7904 79.3343 22.0196 79.1306 22.2124C78.9305 22.4015 78.6886 22.4961 78.4048 22.4961ZM85.3197 23.7893V25.0989H80.7416V23.7893H85.3197ZM81.9694 21.7813H83.6009V29.7098C83.6009 30.0263 83.6482 30.2645 83.7428 30.4246C83.8374 30.581 83.9592 30.6883 84.1084 30.7465C84.2612 30.8011 84.4267 30.8284 84.6049 30.8284C84.7359 30.8284 84.8505 30.8193 84.9487 30.8011C85.0469 30.7829 85.1233 30.7684 85.1779 30.7574L85.4725 32.1052C85.3779 32.1416 85.2433 32.178 85.0687 32.2144C84.8941 32.2544 84.6759 32.2762 84.4139 32.2798C83.9847 32.2871 83.5845 32.2107 83.2135 32.0507C82.8424 31.8906 82.5423 31.6432 82.3131 31.3086C82.084 30.9739 81.9694 30.5537 81.9694 30.0481V21.7813ZM88.9361 27.1943V32.1707H87.3046V20.9955H88.9143V25.1535H89.018C89.2144 24.7024 89.5145 24.3441 89.9183 24.0785C90.3221 23.813 90.8496 23.6802 91.5007 23.6802C92.0755 23.6802 92.5775 23.7984 93.0068 24.0349C93.4397 24.2713 93.7743 24.6242 94.0108 25.0935C94.2509 25.5591 94.3709 26.1411 94.3709 26.8396V32.1707H92.7394V27.036C92.7394 26.4213 92.5811 25.9447 92.2647 25.6064C91.9482 25.2644 91.508 25.0935 90.9442 25.0935C90.5586 25.0935 90.213 25.1753 89.9074 25.339C89.6055 25.5027 89.3672 25.7428 89.1926 26.0593C89.0216 26.3721 88.9361 26.7505 88.9361 27.1943ZM99.6857 32.3344C99.009 32.3344 98.4052 32.1616 97.8741 31.816C97.3466 31.4668 96.9319 30.9703 96.63 30.3264C96.3317 29.6789 96.1825 28.9022 96.1825 27.9964C96.1825 27.0906 96.3335 26.3158 96.6354 25.6719C96.941 25.028 97.3593 24.5351 97.8904 24.1931C98.4216 23.8512 99.0236 23.6802 99.6966 23.6802C100.217 23.6802 100.635 23.7675 100.952 23.9421C101.272 24.1131 101.519 24.3132 101.694 24.5424C101.872 24.7715 102.01 24.9734 102.108 25.148H102.207V20.9955H103.838V32.1707H102.245V30.8666H102.108C102.01 31.0448 101.868 31.2485 101.683 31.4777C101.501 31.7069 101.25 31.907 100.93 32.078C100.61 32.2489 100.195 32.3344 99.6857 32.3344ZM100.046 30.943C100.515 30.943 100.912 30.8193 101.235 30.5719C101.563 30.3209 101.81 29.9735 101.977 29.5297C102.148 29.0859 102.234 28.5693 102.234 27.98C102.234 27.398 102.15 26.8887 101.983 26.4522C101.816 26.0156 101.57 25.6755 101.246 25.4318C100.923 25.1881 100.522 25.0662 100.046 25.0662C99.5547 25.0662 99.1455 25.1935 98.8181 25.4482C98.4907 25.7028 98.2433 26.0502 98.076 26.4904C97.9123 26.9305 97.8304 27.4271 97.8304 27.98C97.8304 28.5402 97.9141 29.0441 98.0814 29.4915C98.2488 29.939 98.4961 30.2936 98.8235 30.5556C99.1546 30.8138 99.562 30.943 100.046 30.943ZM106.167 32.1707V23.7893H107.744V25.1208H107.831C107.984 24.6697 108.253 24.315 108.639 24.0567C109.028 23.7948 109.468 23.6638 109.959 23.6638C110.061 23.6638 110.181 23.6675 110.319 23.6748C110.461 23.682 110.572 23.6911 110.652 23.702V25.2626C110.587 25.2444 110.47 25.2244 110.303 25.2026C110.136 25.1771 109.968 25.1644 109.801 25.1644C109.415 25.1644 109.072 25.2463 108.77 25.41C108.471 25.57 108.235 25.7937 108.06 26.0811C107.886 26.3649 107.798 26.6886 107.798 27.0524V32.1707H106.167ZM114.428 32.3562C113.897 32.3562 113.417 32.258 112.988 32.0616C112.558 31.8615 112.218 31.5723 111.967 31.194C111.72 30.8157 111.596 30.3518 111.596 29.8025C111.596 29.3296 111.687 28.9404 111.869 28.6348C112.051 28.3293 112.296 28.0873 112.606 27.9091C112.915 27.7308 113.26 27.5962 113.642 27.5053C114.024 27.4144 114.414 27.3452 114.81 27.2979C115.312 27.2397 115.72 27.1925 116.032 27.1561C116.345 27.1161 116.573 27.0524 116.714 26.9651C116.856 26.8778 116.927 26.7359 116.927 26.5395V26.5013C116.927 26.0247 116.793 25.6555 116.523 25.3936C116.258 25.1317 115.861 25.0007 115.334 25.0007C114.785 25.0007 114.352 25.1226 114.035 25.3663C113.722 25.6064 113.506 25.8738 113.386 26.1684L111.853 25.8192C112.034 25.3099 112.3 24.8989 112.649 24.586C113.002 24.2695 113.408 24.0403 113.866 23.8985C114.324 23.753 114.806 23.6802 115.312 23.6802C115.647 23.6802 116.001 23.7202 116.376 23.8003C116.754 23.8766 117.107 24.0185 117.435 24.2259C117.766 24.4332 118.037 24.7297 118.248 25.1153C118.459 25.4973 118.564 25.9938 118.564 26.605V32.1707H116.971V31.0248H116.905C116.8 31.2358 116.642 31.4432 116.431 31.6469C116.22 31.8506 115.949 32.0197 115.618 32.1543C115.287 32.2889 114.89 32.3562 114.428 32.3562ZM114.783 31.0467C115.234 31.0467 115.619 30.9575 115.94 30.7793C116.263 30.601 116.509 30.3682 116.676 30.0808C116.847 29.7898 116.933 29.4788 116.933 29.1477V28.0673C116.874 28.1255 116.762 28.1801 116.594 28.231C116.431 28.2783 116.243 28.3202 116.032 28.3565C115.821 28.3893 115.616 28.4202 115.416 28.4493C115.216 28.4748 115.048 28.4966 114.914 28.5148C114.597 28.5548 114.308 28.6221 114.046 28.7167C113.788 28.8113 113.581 28.9477 113.424 29.1259C113.271 29.3005 113.195 29.5333 113.195 29.8244C113.195 30.2282 113.344 30.5337 113.642 30.7411C113.941 30.9448 114.321 31.0467 114.783 31.0467ZM122.554 32.1707L120.088 23.7893H121.774L123.417 29.9444H123.498L125.146 23.7893H126.832L128.469 29.9171H128.551L130.183 23.7893H131.869L129.408 32.1707H127.744L126.041 26.1193H125.916L124.213 32.1707H122.554Z" fill="#111313"/>
<path d="M65.6166 54.1707H62.5157V44.592H65.7149C66.6534 44.592 67.4594 44.7838 68.1329 45.1673C68.8064 45.5477 69.3225 46.0949 69.6811 46.8089C70.0428 47.5199 70.2236 48.3727 70.2236 49.3673C70.2236 50.3651 70.0412 51.2226 69.6764 51.9397C69.3147 52.6569 68.7908 53.2088 68.1049 53.5954C67.4189 53.979 66.5895 54.1707 65.6166 54.1707ZM63.961 52.9079H65.5371C66.2668 52.9079 66.8732 52.7707 67.3565 52.4963C67.8398 52.2188 68.2015 51.8181 68.4416 51.2943C68.6817 50.7673 68.8018 50.125 68.8018 49.3673C68.8018 48.6159 68.6817 47.9782 68.4416 47.4544C68.2046 46.9306 67.8507 46.533 67.3799 46.2617C66.9091 45.9905 66.3245 45.8548 65.626 45.8548H63.961V52.9079ZM75.0048 54.3157C74.297 54.3157 73.6874 54.1645 73.176 53.862C72.6678 53.5565 72.2749 53.1277 71.9974 52.5758C71.723 52.0208 71.5858 51.3707 71.5858 50.6255C71.5858 49.8896 71.723 49.241 71.9974 48.6798C72.2749 48.1185 72.6615 47.6805 73.1573 47.3655C73.6562 47.0506 74.2393 46.8931 74.9066 46.8931C75.3119 46.8931 75.7048 46.9602 76.0852 47.0943C76.4656 47.2283 76.807 47.4388 77.1095 47.7257C77.4119 48.0125 77.6505 48.3851 77.8251 48.8435C77.9997 49.2987 78.087 49.8522 78.087 50.5039V50.9996H72.3762V49.952H76.7166C76.7166 49.584 76.6418 49.2582 76.4921 48.9744C76.3424 48.6876 76.132 48.4615 75.8607 48.2963C75.5925 48.131 75.2776 48.0484 74.9159 48.0484C74.523 48.0484 74.18 48.145 73.8869 48.3384C73.597 48.5286 73.3725 48.778 73.2134 49.0867C73.0575 49.3923 72.9796 49.7243 72.9796 50.0829V50.9014C72.9796 51.3816 73.0638 51.7901 73.2321 52.1268C73.4036 52.4636 73.6422 52.7208 73.9477 52.8985C74.2533 53.0732 74.6103 53.1605 75.0188 53.1605C75.2838 53.1605 75.5255 53.123 75.7438 53.0482C75.962 52.9703 76.1507 52.8549 76.3097 52.7021C76.4687 52.5493 76.5903 52.3607 76.6745 52.1362L77.9981 52.3747C77.8921 52.7645 77.7019 53.1059 77.4275 53.399C77.1562 53.689 76.8148 53.915 76.4032 54.0772C75.9948 54.2362 75.5286 54.3157 75.0048 54.3157ZM82.6647 54.3157C81.9694 54.3157 81.3707 54.1582 80.8687 53.8433C80.3698 53.5253 79.9863 53.0872 79.7181 52.5291C79.45 51.9709 79.3159 51.3317 79.3159 50.6114C79.3159 49.8818 79.4531 49.2379 79.7275 48.6798C80.0019 48.1185 80.3885 47.6805 80.8874 47.3655C81.3863 47.0506 81.9741 46.8931 82.6507 46.8931C83.1963 46.8931 83.6828 46.9945 84.1099 47.1971C84.5371 47.3967 84.8817 47.6773 85.1436 48.039C85.4086 48.4007 85.5661 48.8232 85.616 49.3065H84.2549C84.1801 48.9698 84.0086 48.6798 83.7404 48.4366C83.4754 48.1934 83.1199 48.0718 82.6741 48.0718C82.2843 48.0718 81.9429 48.1747 81.6498 48.3805C81.3598 48.5831 81.1337 48.8731 80.9716 49.2504C80.8095 49.6246 80.7284 50.0673 80.7284 50.5787C80.7284 51.1025 80.8079 51.5547 80.9669 51.9351C81.1259 52.3155 81.3504 52.6101 81.6404 52.819C81.9335 53.0279 82.2781 53.1324 82.6741 53.1324C82.9391 53.1324 83.1792 53.0841 83.3943 52.9874C83.6126 52.8876 83.795 52.7458 83.9416 52.5618C84.0912 52.3778 84.1957 52.1564 84.2549 51.8976H85.616C85.5661 52.3622 85.4148 52.7769 85.1623 53.1418C84.9097 53.5066 84.5714 53.7934 84.1473 54.0023C83.7264 54.2113 83.2322 54.3157 82.6647 54.3157ZM93.7401 54.3017C93.1539 54.3017 92.6269 54.1894 92.1592 53.9649C91.6946 53.7373 91.3236 53.4255 91.0461 53.0295C90.7686 52.6335 90.6205 52.1814 90.6018 51.6731H92.0049C92.0392 52.0847 92.2216 52.423 92.5521 52.6881C92.8826 52.9531 93.2786 53.0856 93.7401 53.0856C94.108 53.0856 94.4339 53.0014 94.7176 52.8331C95.0045 52.6616 95.229 52.4262 95.3911 52.1268C95.5564 51.8275 95.639 51.4861 95.639 51.1025C95.639 50.7128 95.5548 50.3651 95.3864 50.0595C95.2181 49.754 94.9858 49.5139 94.6895 49.3393C94.3964 49.1647 94.0597 49.0758 93.6793 49.0727C93.3893 49.0727 93.0978 49.1226 92.8047 49.2223C92.5116 49.3221 92.2746 49.4531 92.0938 49.6152L90.7701 49.4188L91.308 44.592H96.5744V45.8314H92.51L92.206 48.5114H92.2621C92.4492 48.3306 92.6971 48.1793 93.0058 48.0577C93.3176 47.9361 93.6512 47.8753 94.0067 47.8753C94.5898 47.8753 95.1089 48.0141 95.5642 48.2916C96.0225 48.5691 96.3827 48.9479 96.6446 49.4281C96.9096 49.9052 97.0406 50.454 97.0375 51.0745C97.0406 51.695 96.9003 52.2484 96.6165 52.7348C96.3359 53.2213 95.9461 53.6048 95.4472 53.8854C94.9515 54.1629 94.3824 54.3017 93.7401 54.3017Z" fill="#A0ABBB"/>
<path d="M298.344 33.5676V19.5987H299.239V33.5676H298.344ZM301.143 23.9312C301.085 23.4147 300.845 23.0145 300.423 22.7308C300.001 22.4434 299.47 22.2997 298.83 22.2997C298.371 22.2997 297.975 22.3724 297.64 22.5179C297.306 22.6598 297.045 22.8563 296.86 23.1073C296.678 23.3546 296.587 23.6366 296.587 23.953C296.587 24.2186 296.649 24.4478 296.773 24.6406C296.9 24.8334 297.065 24.9953 297.269 25.1262C297.477 25.2535 297.698 25.3608 297.935 25.4482C298.171 25.5318 298.399 25.6009 298.617 25.6555L299.708 25.9393C300.065 26.0266 300.43 26.1448 300.805 26.2939C301.18 26.4431 301.527 26.6395 301.847 26.8832C302.167 27.127 302.426 27.4289 302.622 27.789C302.822 28.1492 302.922 28.5803 302.922 29.0823C302.922 29.7152 302.759 30.2773 302.431 30.7684C302.107 31.2595 301.636 31.6469 301.018 31.9306C300.403 32.2144 299.659 32.3562 298.786 32.3562C297.949 32.3562 297.225 32.2235 296.614 31.9579C296.003 31.6924 295.525 31.3158 295.179 30.8284C294.834 30.3373 294.643 29.7552 294.606 29.0823H296.298C296.331 29.4861 296.462 29.8225 296.691 30.0917C296.924 30.3573 297.22 30.5556 297.58 30.6865C297.944 30.8138 298.342 30.8775 298.775 30.8775C299.252 30.8775 299.676 30.8029 300.047 30.6538C300.421 30.501 300.716 30.29 300.931 30.0208C301.145 29.748 301.252 29.4297 301.252 29.0659C301.252 28.7349 301.158 28.4638 300.969 28.2529C300.783 28.0419 300.53 27.8673 300.21 27.729C299.894 27.5908 299.535 27.4689 299.135 27.3634L297.815 27.0033C296.92 26.7596 296.211 26.4012 295.687 25.9283C295.167 25.4554 294.906 24.8297 294.906 24.0513C294.906 23.4074 295.081 22.8453 295.43 22.3652C295.779 21.885 296.252 21.5121 296.849 21.2466C297.446 20.9774 298.119 20.8428 298.868 20.8428C299.625 20.8428 300.292 20.9755 300.871 21.2411C301.453 21.5067 301.911 21.8722 302.246 22.3379C302.58 22.7999 302.755 23.331 302.769 23.9312H301.143ZM304.784 32.1707V30.9484L308.566 27.0306C308.97 26.605 309.302 26.2321 309.564 25.912C309.83 25.5882 310.028 25.2808 310.159 24.9898C310.29 24.6988 310.356 24.3896 310.356 24.0622C310.356 23.6911 310.268 23.371 310.094 23.1018C309.919 22.829 309.681 22.6198 309.379 22.4743C309.077 22.3251 308.737 22.2506 308.358 22.2506C307.958 22.2506 307.609 22.3324 307.311 22.4961C307.012 22.6598 306.783 22.8908 306.623 23.1891C306.463 23.4874 306.383 23.8366 306.383 24.2368H304.773C304.773 23.5565 304.93 22.9618 305.243 22.4525C305.555 21.9432 305.985 21.5485 306.53 21.2684C307.076 20.9846 307.696 20.8428 308.391 20.8428C309.093 20.8428 309.712 20.9828 310.246 21.2629C310.785 21.5394 311.205 21.9177 311.507 22.3979C311.809 22.8744 311.96 23.4128 311.96 24.0131C311.96 24.4278 311.882 24.8334 311.725 25.2299C311.572 25.6264 311.305 26.0684 310.923 26.5558C310.541 27.0397 310.01 27.6272 309.33 28.3183L307.109 30.6429V30.7247H312.14V32.1707H304.784ZM317.897 32.3235C317.213 32.3235 316.598 32.1925 316.052 31.9306C315.51 31.6651 315.077 31.3013 314.754 30.8393C314.43 30.3773 314.257 29.8498 314.235 29.2569H315.872C315.912 29.7371 316.125 30.1318 316.511 30.441C316.896 30.7502 317.358 30.9048 317.897 30.9048C318.326 30.9048 318.706 30.8066 319.037 30.6101C319.372 30.41 319.634 30.1354 319.823 29.7862C320.016 29.4369 320.112 29.0386 320.112 28.5912C320.112 28.1365 320.014 27.7308 319.817 27.3743C319.621 27.0178 319.35 26.7377 319.004 26.534C318.662 26.3303 318.269 26.2266 317.826 26.223C317.487 26.223 317.147 26.2812 316.805 26.3976C316.463 26.514 316.187 26.6668 315.976 26.856L314.432 26.6268L315.059 20.9955H321.203V22.4416H316.461L316.107 25.5682H316.172C316.391 25.3572 316.68 25.1808 317.04 25.0389C317.404 24.897 317.793 24.8261 318.208 24.8261C318.888 24.8261 319.494 24.988 320.025 25.3117C320.559 25.6355 320.98 26.0775 321.285 26.6377C321.594 27.1943 321.747 27.8345 321.743 28.5584C321.747 29.2823 321.583 29.928 321.252 30.4955C320.925 31.063 320.47 31.5105 319.888 31.8379C319.31 32.1616 318.646 32.3235 317.897 32.3235ZM324.428 32.2744C324.13 32.2744 323.873 32.1689 323.659 31.9579C323.444 31.7433 323.337 31.485 323.337 31.1831C323.337 30.8848 323.444 30.6301 323.659 30.4191C323.873 30.2045 324.13 30.0972 324.428 30.0972C324.726 30.0972 324.983 30.2045 325.198 30.4191C325.412 30.6301 325.519 30.8848 325.519 31.1831C325.519 31.3831 325.469 31.5668 325.367 31.7342C325.268 31.8979 325.137 32.0288 324.974 32.1271C324.81 32.2253 324.628 32.2744 324.428 32.2744ZM330.572 20.9955V32.1707H328.881V22.6871H328.815L326.142 24.4332V22.8181L328.93 20.9955H330.572ZM337.486 32.3562C336.624 32.3526 335.887 32.1252 335.276 31.6742C334.665 31.2231 334.197 30.5665 333.874 29.7043C333.55 28.8422 333.388 27.8036 333.388 26.5886C333.388 25.3772 333.55 24.3423 333.874 23.4838C334.201 22.6253 334.67 21.9705 335.281 21.5194C335.896 21.0683 336.631 20.8428 337.486 20.8428C338.341 20.8428 339.074 21.0701 339.685 21.5248C340.296 21.9759 340.763 22.6307 341.087 23.4892C341.415 24.3441 341.578 25.3772 341.578 26.5886C341.578 27.8072 341.416 28.8476 341.093 29.7098C340.769 30.5683 340.301 31.2249 339.69 31.6796C339.079 32.1307 338.344 32.3562 337.486 32.3562ZM337.486 30.8993C338.242 30.8993 338.834 30.5301 339.259 29.7916C339.688 29.0532 339.903 27.9855 339.903 26.5886C339.903 25.661 339.805 24.877 339.608 24.2368C339.416 23.5929 339.137 23.1054 338.774 22.7744C338.413 22.4397 337.984 22.2724 337.486 22.2724C336.733 22.2724 336.142 22.6434 335.712 23.3855C335.283 24.1277 335.067 25.1953 335.063 26.5886C335.063 27.5199 335.159 28.3074 335.352 28.9513C335.549 29.5916 335.827 30.0772 336.187 30.4082C336.547 30.7356 336.98 30.8993 337.486 30.8993Z" fill="#111313"/>
<path d="M313.55 54.1707H310.449V44.592H313.648C314.587 44.592 315.393 44.7838 316.066 45.1673C316.74 45.5477 317.256 46.0949 317.614 46.8089C317.976 47.5199 318.157 48.3727 318.157 49.3673C318.157 50.3651 317.974 51.2226 317.609 51.9397C317.248 52.6569 316.724 53.2088 316.038 53.5954C315.352 53.979 314.523 54.1707 313.55 54.1707ZM311.894 52.9079H313.47C314.2 52.9079 314.806 52.7707 315.29 52.4963C315.773 52.2188 316.135 51.8181 316.375 51.2943C316.615 50.7673 316.735 50.125 316.735 49.3673C316.735 48.6159 316.615 47.9782 316.375 47.4544C316.138 46.9306 315.784 46.533 315.313 46.2617C314.842 45.9905 314.258 45.8548 313.559 45.8548H311.894V52.9079ZM322.868 54.3157C322.194 54.3157 321.606 54.1614 321.104 53.8527C320.602 53.544 320.213 53.1121 319.935 52.5571C319.658 52.0021 319.519 51.3535 319.519 50.6114C319.519 49.8662 319.658 49.2145 319.935 48.6564C320.213 48.0983 320.602 47.6649 321.104 47.3562C321.606 47.0475 322.194 46.8931 322.868 46.8931C323.541 46.8931 324.129 47.0475 324.631 47.3562C325.133 47.6649 325.523 48.0983 325.8 48.6564C326.078 49.2145 326.217 49.8662 326.217 50.6114C326.217 51.3535 326.078 52.0021 325.8 52.5571C325.523 53.1121 325.133 53.544 324.631 53.8527C324.129 54.1614 323.541 54.3157 322.868 54.3157ZM322.872 53.1418C323.309 53.1418 323.671 53.0264 323.958 52.7956C324.244 52.5649 324.456 52.2578 324.594 51.8743C324.734 51.4907 324.804 51.0682 324.804 50.6068C324.804 50.1484 324.734 49.7275 324.594 49.3439C324.456 48.9573 324.244 48.6471 323.958 48.4132C323.671 48.1793 323.309 48.0624 322.872 48.0624C322.433 48.0624 322.068 48.1793 321.778 48.4132C321.491 48.6471 321.278 48.9573 321.137 49.3439C321 49.7275 320.931 50.1484 320.931 50.6068C320.931 51.0682 321 51.4907 321.137 51.8743C321.278 52.2578 321.491 52.5649 321.778 52.7956C322.068 53.0264 322.433 53.1418 322.872 53.1418ZM329.176 49.9052V54.1707H327.778V46.9867H329.12V48.156H329.209C329.374 47.7756 329.633 47.47 329.985 47.2392C330.341 47.0085 330.788 46.8931 331.327 46.8931C331.817 46.8931 332.246 46.996 332.614 47.2018C332.982 47.4045 333.267 47.707 333.47 48.1092C333.672 48.5114 333.774 49.0087 333.774 49.6012V54.1707H332.375V49.7696C332.375 49.2488 332.239 48.8419 331.968 48.5488C331.697 48.2526 331.324 48.1045 330.85 48.1045C330.526 48.1045 330.238 48.1747 329.985 48.315C329.736 48.4553 329.538 48.6611 329.391 48.9324C329.248 49.2005 329.176 49.5248 329.176 49.9052ZM338.745 54.3157C338.038 54.3157 337.428 54.1645 336.917 53.862C336.408 53.5565 336.015 53.1277 335.738 52.5758C335.464 52.0208 335.326 51.3707 335.326 50.6255C335.326 49.8896 335.464 49.241 335.738 48.6798C336.015 48.1185 336.402 47.6805 336.898 47.3655C337.397 47.0506 337.98 46.8931 338.647 46.8931C339.052 46.8931 339.445 46.9602 339.826 47.0943C340.206 47.2283 340.548 47.4388 340.85 47.7257C341.152 48.0125 341.391 48.3851 341.566 48.8435C341.74 49.2987 341.828 49.8522 341.828 50.5039V50.9996H336.117V49.952H340.457C340.457 49.584 340.382 49.2582 340.233 48.9744C340.083 48.6876 339.873 48.4615 339.601 48.2963C339.333 48.131 339.018 48.0484 338.656 48.0484C338.264 48.0484 337.921 48.145 337.628 48.3384C337.338 48.5286 337.113 48.778 336.954 49.0867C336.798 49.3923 336.72 49.7243 336.72 50.0829V50.9014C336.72 51.3816 336.804 51.7901 336.973 52.1268C337.144 52.4636 337.383 52.7208 337.688 52.8985C337.994 53.0732 338.351 53.1605 338.759 53.1605C339.024 53.1605 339.266 53.123 339.484 53.0482C339.703 52.9703 339.891 52.8549 340.05 52.7021C340.209 52.5493 340.331 52.3607 340.415 52.1362L341.739 52.3747C341.633 52.7645 341.442 53.1059 341.168 53.399C340.897 53.689 340.555 53.915 340.144 54.0772C339.735 54.2362 339.269 54.3157 338.745 54.3157Z" fill="#A0ABBB"/>
</svg>
