<svg width="61" height="79" viewBox="0 0 61 79" fill="none" xmlns="http://www.w3.org/2000/svg">
<rect x="4.3667" width="52.2667" height="52.2667" rx="26.1333" fill="#111313"/>
<path d="M30.5 31.5778V16.3333V31.5778Z" fill="#B8FFAC"/>
<path d="M30.5 31.5778V16.3333" stroke="#B8FFAC" stroke-width="1.63333" stroke-linecap="round" stroke-linejoin="round"/>
<path d="M23.9668 25.0444L30.5001 31.5778L37.0335 25.0444" stroke="#B8FFAC" stroke-width="1.63333" stroke-linecap="round" stroke-linejoin="round"/>
<path d="M38.1221 35.9333H22.8777" stroke="#B8FFAC" stroke-width="1.63333" stroke-linecap="round" stroke-linejoin="round"/>
<path d="M3.27739 74.9778L0.641788 65.4748H2.14984L4.00126 72.834H4.08942L6.01508 65.4748H7.50921L9.43487 72.8387H9.52304L11.3698 65.4748H12.8825L10.2423 74.9778H8.79917L6.79927 67.8598H6.72503L4.72512 74.9778H3.27739ZM14.0785 74.9778V67.8505H15.4659V74.9778H14.0785ZM14.7792 66.7508C14.5379 66.7508 14.3306 66.6704 14.1574 66.5095C13.9872 66.3456 13.9022 66.1507 13.9022 65.9248C13.9022 65.6959 13.9872 65.501 14.1574 65.3402C14.3306 65.1762 14.5379 65.0943 14.7792 65.0943C15.0205 65.0943 15.2262 65.1762 15.3963 65.3402C15.5695 65.501 15.6562 65.6959 15.6562 65.9248C15.6562 66.1507 15.5695 66.3456 15.3963 66.5095C15.2262 66.6704 15.0205 66.7508 14.7792 66.7508ZM20.6594 67.8505V68.9641H16.7663V67.8505H20.6594ZM17.8103 66.1429H19.1978V72.8851C19.1978 73.1542 19.238 73.3568 19.3184 73.4929C19.3988 73.626 19.5025 73.7172 19.6293 73.7667C19.7592 73.8131 19.9 73.8363 20.0515 73.8363C20.1629 73.8363 20.2603 73.8286 20.3439 73.8131C20.4274 73.7976 20.4924 73.7853 20.5388 73.776L20.7893 74.9221C20.7089 74.953 20.5944 74.984 20.446 75.0149C20.2975 75.0489 20.1119 75.0675 19.8891 75.0706C19.5241 75.0768 19.1838 75.0118 18.8683 74.8757C18.5528 74.7396 18.2976 74.5292 18.1027 74.2446C17.9078 73.96 17.8103 73.6028 17.8103 73.1728V66.1429ZM23.7347 70.746V74.9778H22.3473V65.4748H23.7161V69.0105H23.8043C23.9713 68.627 24.2265 68.3223 24.5699 68.0964C24.9133 67.8706 25.3618 67.7577 25.9155 67.7577C26.4043 67.7577 26.8312 67.8582 27.1962 68.0593C27.5643 68.2604 27.8489 68.5605 28.05 68.9595C28.2542 69.3555 28.3563 69.8504 28.3563 70.4444V74.9778H26.9688V70.6114C26.9688 70.0886 26.8343 69.6834 26.5652 69.3957C26.296 69.1049 25.9217 68.9595 25.4422 68.9595C25.1143 68.9595 24.8205 69.0291 24.5606 69.1683C24.3039 69.3075 24.1012 69.5117 23.9527 69.7808C23.8074 70.0468 23.7347 70.3686 23.7347 70.746ZM32.8758 75.117C32.3004 75.117 31.7869 74.97 31.3352 74.6762C30.8867 74.3792 30.534 73.9569 30.2773 73.4094C30.0236 72.8588 29.8968 72.1983 29.8968 71.4281C29.8968 70.6578 30.0252 69.9989 30.2819 69.4514C30.5418 68.9038 30.8975 68.4847 31.3491 68.1939C31.8008 67.9031 32.3128 67.7577 32.885 67.7577C33.3274 67.7577 33.6831 67.832 33.9523 67.9804C34.2245 68.1258 34.4348 68.296 34.5833 68.4909C34.7349 68.6857 34.8525 68.8574 34.936 69.0059H35.0195V65.4748H36.4069V74.9778H35.052V73.8688H34.936C34.8525 74.0204 34.7318 74.1936 34.5741 74.3885C34.4194 74.5834 34.2059 74.7535 33.9337 74.8989C33.6615 75.0443 33.3088 75.117 32.8758 75.117ZM33.182 73.9337C33.5811 73.9337 33.9182 73.8286 34.1936 73.6182C34.472 73.4048 34.6823 73.1093 34.8246 72.732C34.97 72.3546 35.0427 71.9153 35.0427 71.4141C35.0427 70.9192 34.9716 70.4861 34.8293 70.1149C34.687 69.7437 34.4782 69.4545 34.2028 69.2472C33.9275 69.0399 33.5872 68.9363 33.182 68.9363C32.7644 68.9363 32.4164 69.0446 32.138 69.2611C31.8596 69.4777 31.6492 69.7731 31.5069 70.1474C31.3677 70.5217 31.2981 70.9439 31.2981 71.4141C31.2981 71.8905 31.3693 72.319 31.5116 72.6995C31.6539 73.08 31.8642 73.3816 32.1426 73.6043C32.4241 73.8239 32.7706 73.9337 33.182 73.9337ZM38.3871 74.9778V67.8505H39.7281V68.9827H39.8023C39.9323 68.5991 40.1612 68.2975 40.4891 68.0779C40.8201 67.8552 41.1944 67.7438 41.612 67.7438C41.6986 67.7438 41.8007 67.7469 41.9183 67.7531C42.0389 67.7593 42.1332 67.767 42.2013 67.7763V69.1034C42.1456 69.0879 42.0466 69.0709 41.9043 69.0523C41.762 69.0307 41.6197 69.0198 41.4774 69.0198C41.1495 69.0198 40.8572 69.0894 40.6005 69.2286C40.3468 69.3647 40.1457 69.555 39.9972 69.7994C39.8487 70.0407 39.7745 70.316 39.7745 70.6253V74.9778H38.3871ZM45.4123 75.1355C44.9606 75.1355 44.5523 75.052 44.1873 74.885C43.8223 74.7148 43.533 74.4689 43.3196 74.1472C43.1092 73.8255 43.0041 73.4311 43.0041 72.964C43.0041 72.5618 43.0814 72.2308 43.2361 71.971C43.3907 71.7111 43.5995 71.5054 43.8625 71.3538C44.1254 71.2022 44.4193 71.0878 44.7441 71.0105C45.0689 70.9331 45.3999 70.8743 45.7371 70.8341C46.164 70.7846 46.5105 70.7444 46.7765 70.7135C47.0425 70.6795 47.2359 70.6253 47.3565 70.5511C47.4772 70.4768 47.5375 70.3562 47.5375 70.1891V70.1567C47.5375 69.7514 47.423 69.4374 47.1941 69.2147C46.9683 68.992 46.6311 68.8806 46.1826 68.8806C45.7154 68.8806 45.3473 68.9843 45.0782 69.1915C44.8122 69.3957 44.6281 69.623 44.526 69.8736L43.2221 69.5766C43.3768 69.1436 43.6026 68.794 43.8996 68.528C44.1997 68.2588 44.5446 68.064 44.9344 67.9433C45.3241 67.8196 45.734 67.7577 46.164 67.7577C46.4486 67.7577 46.7502 67.7917 47.0688 67.8598C47.3905 67.9248 47.6906 68.0454 47.969 68.2217C48.2505 68.398 48.481 68.6502 48.6604 68.9781C48.8398 69.3029 48.9295 69.7251 48.9295 70.2448V74.9778H47.5746V74.0034H47.5189C47.4292 74.1828 47.2946 74.3591 47.1152 74.5323C46.9358 74.7056 46.7053 74.8494 46.4238 74.9639C46.1423 75.0783 45.8052 75.1355 45.4123 75.1355ZM45.7139 74.0219C46.0975 74.0219 46.4254 73.9461 46.6976 73.7945C46.9729 73.643 47.1817 73.445 47.324 73.2006C47.4694 72.9531 47.5421 72.6886 47.5421 72.4071V71.4884C47.4926 71.5379 47.3967 71.5843 47.2544 71.6276C47.1152 71.6678 46.9559 71.7034 46.7765 71.7343C46.5971 71.7622 46.4223 71.7885 46.2522 71.8132C46.082 71.8349 45.9397 71.8534 45.8253 71.8689C45.5561 71.9029 45.3102 71.9601 45.0875 72.0406C44.8678 72.121 44.6915 72.237 44.5585 72.3886C44.4286 72.5371 44.3636 72.735 44.3636 72.9825C44.3636 73.3259 44.4904 73.5857 44.7441 73.7621C44.9978 73.9353 45.321 74.0219 45.7139 74.0219ZM52.3226 74.9778L50.2253 67.8505H51.6591L53.0558 73.0846H53.1254L54.5267 67.8505H55.9605L57.3526 73.0614H57.4222L58.8096 67.8505H60.2434L58.1507 74.9778H56.7354L55.2877 69.8319H55.181L53.7332 74.9778H52.3226Z" fill="#282E38"/>
</svg>
